<svg viewBox="0 0 200 200" xmlns="http://www.w3.org/2000/svg" height="400" width="400"><path d="M79.969,99.288,70.751,67.194a4.8,4.8,0,0,0-4.765-3.446c-.1.005-37.665,1.627-37.665,1.727a4.542,4.542,0,0,0-4.14,6.028c1.4,4.177,10.218,28.86,11.48,32.328a4.764,4.764,0,0,0,4.693,3.149l35.235-1.593A4.768,4.768,0,0,0,79.969,99.288Zm-49.41-27.3c-.176,1.393.029,1.854-.481,1.955-.37.074-.547-.279-.843-.907-.732-1.448.556-3.516,2.889-3.686.444-.032,1.612.027,1.612.627C33.736,70.931,30.836,70.537,30.559,71.987ZM45.505,90.106C41.359,90.8,37.54,92,35.276,88.435c-3.2-5.03,1.684-11.892,7.028-13.186a4.328,4.328,0,0,1,3.177.34,1.932,1.932,0,0,1,.626,2.536.749.749,0,0,0,.433.945c.911.349,20.481,6.62,21.781,7C67.238,86.248,46.852,89.883,45.505,90.106ZM69.283,79.112a24.359,24.359,0,0,1-.89-2.393c-.51-1.772-1.078-4.6-1.733-5.781a2.7,2.7,0,0,0-1.829-1.453,12.173,12.173,0,0,0-1.95-.379.447.447,0,0,1-.024-.893,6.94,6.94,0,0,1,2.263-.1,3.919,3.919,0,0,1,2.84,2.1,33.023,33.023,0,0,1,1.853,6.147c.229,1.07.275,1.682.409,2.5a.493.493,0,0,1-.361.6A.477.477,0,0,1,69.283,79.112Zm3.3,19.681a2.292,2.292,0,0,1-.866.284c-.354.032-1.584,0-1.637-.526-.047-.487.44-.453,1.781-1.052,1.311-.761-.773-3.42.265-3.857C73.054,93.212,75.146,97.42,72.58,98.793Z" fill="#f26333"></path><path d="M58.055,82.24a.462.462,0,0,0-.339-.436,28.525,28.525,0,0,0-6.337-1.99.745.745,0,0,0-.857.492c-.866,2.518,2.15,5.41,5.427,4.035a4.834,4.834,0,0,0,2.016-1.571A.489.489,0,0,0,58.055,82.24Z" fill="#f26333"></path><path d="M111.713,40.682a68.177,68.177,0,0,0-2.382-6.674.45.45,0,0,1,.794-.424,23.651,23.651,0,0,1,3.273,7.607.753.753,0,0,1-.7.936l-1.83.1c-.36,3.874-1.981,7.181-5.848,6.921-.26.564-.488,1.336-1.059,2.786a.481.481,0,0,1-.6.333.475.475,0,0,1-.313-.6,26.12,26.12,0,0,1,.867-3.515.712.712,0,0,1,.746-.447c3.471.45,4.545-2.732,4.765-6.238a.762.762,0,0,1,.747-.7Z" fill="#191919"></path><path d="M104.132,42.194a2.514,2.514,0,0,0,3.346,1.7c.336-.16,1.128-.705.842-1.17-.333-.651-1.985.4-2.695-.681-.528-.872-.578-1.161-.939-1.148C104.162,40.907,104.08,42,104.132,42.194Z" fill="#191919"></path><path d="M106.262 36.141 A0.976 1.337 0 1 0 108.214 36.141 A0.976 1.337 0 1 0 106.262 36.141 Z" fill="#191919" transform="translate(-1.179 68.576) rotate(-35.28)"></path><path d="M110.414,25.951c-.338.026-1.169.083-1.564.159.044-1.3.042-2.712-.939-3.569-.921-.825-2.412-.637-3.538-.635a30.358,30.358,0,0,0-6.714.469,5.462,5.462,0,0,0-2.841,1.031c-1.661,1.525-.833,5.9-.986,8.775a.755.755,0,0,0,.77.779c.259-.006-.071-.215.481,2.832a29.934,29.934,0,0,0,.713,3c-2.315,1.687-.988,4.955,1.441,5.59a9.377,9.377,0,0,0,1.376,2.627C98.362,48.1,98.2,49.2,98,50.307a.446.446,0,0,0,.867.211c.43-1.315.433-1.141,1.3-3.952.274-.89.513-1.785.771-2.671a.681.681,0,0,0-.145-.662c-.408-.522-1.011-.108-2.455-.19a2.165,2.165,0,0,1-2.214-1.684c-.215-1.055,1.065-1.884,2-1.888a6.768,6.768,0,0,1,1.517.27,3.419,3.419,0,0,0,3.538-1.764,7.457,7.457,0,0,0,1.177-3.285,5.867,5.867,0,0,0,.094-1.713c.1,0,12.676.238,13.1.382a.492.492,0,0,0,.65-.234,23.013,23.013,0,0,0,1.684-4.555C120.158,24.884,114.1,25.68,110.414,25.951Zm7.028,6.436a175.467,175.467,0,0,0-20.7-.945c-.053,0-1.343-.043-1.4-.037,0-1.092-.083-2.184-.095-3.279a18.16,18.16,0,0,1,.241-3.059c.365-1.013,1.4-.973,2.5-1.224a29.176,29.176,0,0,1,6.378-.442c1.844,0,2.8-.288,2.984,1.268.2,1.627-.347,2.523.29,2.984.42.306.693.028,1.491-.1.405-.066,3.966-.395,5.3-.444a11.356,11.356,0,0,1,3.538.3,1,1,0,0,1,.578.468C118.91,28.669,118.372,29.656,117.442,32.387Z" fill="#191919"></path><path d="M48.465,84.107c-.921-2.048-3.7-2.006-5.318-.537A4.5,4.5,0,0,0,41.7,86.247a.779.779,0,0,0,.481.834,9.982,9.982,0,0,0,5.7.1v.04a.46.46,0,0,0,.385-.37h.048A3.844,3.844,0,0,0,48.465,84.107Z" fill="#f26333"></path><path d="M37.1,86.515a1.583,1.583,0,0,1,1.034.71,1.4,1.4,0,0,1,.228,1.171c-.243.767-.556.833-.3,1.206.334.489,1.025.01,1.431-.419a2.347,2.347,0,0,0-.1-2.784,2.679,2.679,0,0,0-2.19-1.285c-.549.058-1.49.413-1.3.947C36,86.412,36.151,86.27,37.1,86.515Z" fill="#191919"></path><path d="M70.583,85.7c-1.441-.474-22.19-7.535-22.864-7.783.68-3.265-2.575-4.894-5.776-4.126a12.891,12.891,0,0,0-7.629,5.869c-3.61,6.03-.451,11.734,4.043,12.561,2.627.484,3.67.141,32.178-5.616v.04A.5.5,0,0,0,70.583,85.7Zm-25.078,4.4C41.359,90.8,37.54,92,35.276,88.435c-3.2-5.03,1.684-11.892,7.028-13.186,2.249-.545,4.634.347,3.847,2.745a7.821,7.821,0,0,0-1.138.488,12.428,12.428,0,0,0-2.786,2.362,10.045,10.045,0,0,0-2.681,4.409.478.478,0,0,0,.208.654.471.471,0,0,0,.651-.22c.286-.409.624-.769.885-1.169a18.611,18.611,0,0,1,4.529-4.877c.18-.153.1-.109.665-.6.436.215,20.763,6.711,21.837,7.024C67.238,86.248,46.852,89.883,45.505,90.106Z" fill="#191919"></path><path d="M5.505,76.2c.407.009,1.462.075,2.046.073,8.3-.026,6.171.391,10.782.222a.487.487,0,1,0,.072-.972c-.721-.148-1.474-.331-2.286-.427a48.892,48.892,0,0,0-8.64-.239,12.943,12.943,0,0,0-2.07.458A.445.445,0,0,0,5.505,76.2Z" fill="#f26333"></path><path d="M14.531,83.405a5.107,5.107,0,0,0,.866.2c.375.035,3-.045,3.634-.081a4.631,4.631,0,0,0,1.2-.231.488.488,0,0,0,.024-.975,6.326,6.326,0,0,0-2.912-.25c-2.005.043-2.122.121-2.864.441a.473.473,0,0,0-.433.473A.463.463,0,0,0,14.531,83.405Z" fill="#f26333"></path><path d="M5.481,95.422c8.244.385,5.743.136,10.494.34,6.7.289,5.907.43,11.407.482a.488.488,0,1,0,.072-.973c-1.648-.248-2.472-.4-3.922-.538a139.145,139.145,0,0,0-14.561-.558c-1.4.059-2.685.243-3.538.355A.463.463,0,0,0,5,95,.457.457,0,0,0,5.481,95.422Z" fill="#f26333"></path><path d="M21.751,103.042a3.237,3.237,0,0,0,.7.219c.3.043,2.407.021,2.96-.007a2.747,2.747,0,0,0,.962-.224.491.491,0,0,0,.506-.475.5.5,0,0,0-.482-.5,4.417,4.417,0,0,0-.7-.232,17.424,17.424,0,0,0-3.322.035,4.579,4.579,0,0,0-.7.291A.448.448,0,0,0,21.751,103.042Z" fill="#f26333"></path><path d="M19.825,119.267c3,.282,2.612.314,10.566.336a89.9,89.9,0,0,0,10.565-.222.488.488,0,1,0,0-.975c-1.418-.107-2.369-.215-3.8-.249-3.484-.084-12.523-.09-13.935-.043-1.3.042-2.841.209-3.394.26a.46.46,0,0,0-.457.446A.477.477,0,0,0,19.825,119.267Z" fill="#f26333"></path><path d="M60.643,142.831a9.847,9.847,0,0,0,1.251.277c.618.075,4.414.185,5.295.195a9.22,9.22,0,0,0,1.757-.145.488.488,0,0,0,.073-.973c-1.779-.413-1.078-.347-4.188-.459-2.872-.107-2.991-.047-4.164.212A.447.447,0,0,0,60.643,142.831Z" fill="#f26333"></path><path d="M59.1,151.516c.171.02,1.055.156,1.54.177.04,0,5.784.129,6.185.122a9.879,9.879,0,0,0,1.95-.225.488.488,0,0,0,0-.975,14.2,14.2,0,0,0-2.022-.258c-5.374-.3-6.317-.158-7.725.269a.446.446,0,1,0,.072.89Z" fill="#f26333"></path><path d="M86.515,115.334a.481.481,0,0,0-.457-.31,6.955,6.955,0,0,1-1.2-1.013c-1.117-1.166-1.147-1.787-1.685-1.775-4.672.1-31.584.088-34.175.634-1.287.267-2.426.758-2.528,2.067-.12,1.4,1.438,2.06,2.817,2.314,2.469.447,27.414-.392,36.7-1.243A.442.442,0,0,0,86.515,115.334Z" fill="#191919"></path><path d="M106.972,61.227c.105.328.452,1.671.482,1.779a39.514,39.514,0,0,1,1.131,4.1c.4,1.877.267,2.133,1.035,6.073a.494.494,0,0,0,.986-.07,22.5,22.5,0,0,0,.024-2.28,30.133,30.133,0,0,0-1.8-8.2,12.368,12.368,0,0,0-1.034-1.784A.453.453,0,0,0,106.972,61.227Z" fill="#191919"></path><path d="M118.043,69.578c-3.245-5.6-6.435-11.482-12.659-13.309.078-.289.39-1.031.5-1.308a.725.725,0,0,0-.288-.908,26.158,26.158,0,0,0-9.723-3.625.767.767,0,0,0-.843.5l-.65,1.708c-8.367,1.753-9.923,12.411-11.985,20.11a.747.747,0,0,0,.553.924,98.783,98.783,0,0,0,17.064,2.057.669.669,0,0,0,.7-.569c.3-2.3.8-4.559,1.194-6.842a25.116,25.116,0,0,0,3.234-.041c1.948-.171,1.951-1.288.121-1.453a20.39,20.39,0,0,0-3.129.117c.116-.758.262-1.73.337-2.486a.45.45,0,0,0-.891-.121c-.279,2.062-1.524,7.019-2.069,10.02A114.744,114.744,0,0,1,84.061,72.4c1.918-7.363,3.459-17.047,11-18.371a.784.784,0,0,0,.578-.469l.577-1.553a24.673,24.673,0,0,1,8.063,2.969c-.072.232-.169.465-.265.7-.261.835-.425,1.09-.192,1.5a.7.7,0,0,0,.457.332c5.911,1.322,9.3,7.1,12.515,12.217a29.115,29.115,0,0,1-3.105,2.095.5.5,0,0,0-.216.659.509.509,0,0,0,.674.2c1.157-.6,3-1.821,3.754-2.339A.558.558,0,0,0,118.043,69.578Z" fill="#191919"></path><path d="M111.208,95.762a33.794,33.794,0,0,0,.481-3.357.494.494,0,0,1,.987.017,38.072,38.072,0,0,1-.265,4.071.653.653,0,0,1-.649.595c-7.117.136-16,.888-24.982.2a.714.714,0,0,1-.674-.755c.3-5.4.186-2.905.554-7.485a.444.444,0,0,1,.457-.433.455.455,0,0,1,.433.459c.025,3.111.133,3.343.024,6.809C95.835,96.419,103.431,95.683,111.208,95.762Z" fill="#191919"></path><path d="M101.1,77.225c4.157.55,9.689,1.533,14.922-.136,3.575-1.142,7.388-4.142,9.53-.546.818,1.37,1.294,3.306.626,4.624a.514.514,0,0,0,.192.661.5.5,0,0,0,.674-.194,6.029,6.029,0,0,0-.24-5.814c-2.733-4.907-8.042-1.189-11.24-.164-4.292,1.375-8.109.7-14.416.678A.446.446,0,0,0,101.1,77.225Z" fill="#191919"></path><path d="M122.953,77.844a6.313,6.313,0,0,1,.626,1.716c.337,1.431-.146,3.149.577,3.321,1.291.307,1.479-4.168-.048-5.808-.154-.214-1.065-1.029-1.444-.648C122.341,76.711,122.9,77.742,122.953,77.844Z" fill="#191919"></path><path d="M120.185,79.32a4.884,4.884,0,0,1,.77,1.591c.451,1.516-.143,3.048.578,3.246.522.143,1.529-1.174.89-3.646a4.779,4.779,0,0,0-1.179-2.107c-.422-.34-1.182-.855-1.54-.444C119.507,78.225,119.583,78.359,120.185,79.32Z" fill="#191919"></path><path d="M127.622,74.625c3.1-.484,5.967,1.144,7.461,4.605.34.789,1.269,2.733.65,3.368-1.352,1.385-4.4,1.232-7.605,1.474a.491.491,0,0,0-.482.492.481.481,0,0,0,.482.483,23.744,23.744,0,0,0,5.2.094,5.947,5.947,0,0,0,3.49-1.51c1.271-1.306.328-3.444-.361-5-1.666-3.769-4.914-6.176-9.026-4.871A.446.446,0,0,0,127.622,74.625Z" fill="#f26333"></path><path d="M178.669,118.652c-4.857-3.342-11.252-4.454-17.208-4.109A34.647,34.647,0,0,0,154,101.5c.083-5.554.154-10.482.794-16.294a.755.755,0,0,0-.746-.833,117.23,117.23,0,0,0-15.812.874c-3.175.475-5.82.731-8.809,1.457a.752.752,0,0,0-.5,1.054,78.78,78.78,0,0,1,6.69,49.017c-2.118,11.045-8.914,19.438-20.288,19.144-1.168-12.432-8.361-28.448-16.077-38.21a.488.488,0,0,0-.771.6c7.557,9.654,14.714,26.032,15.6,38.287a.652.652,0,0,0,.626.6c12.314.664,20.007-8.081,22.334-20.144a80.636,80.636,0,0,0-6.353-49.113,121.414,121.414,0,0,1,13.983-1.826c2.84-.162,5.7-.2,8.567-.232-.528,4.745-.694,11.152-.746,15.914a.776.776,0,0,0,.241.547c3.34,3.307,5.98,8.481,7.374,12.86-7.186,1.584-13.875,9.131-17.188,15.723a.5.5,0,0,0,.079.608c-3.978,2.222-4.856,7.727-5.981,12.15-1.431,5.636-.966,15.784-7.821,17.607-2-.01-77.762.17-83.177.336-.931-10.022,1.115-19.862,4.525-29.2,1.609-4.41,6.489-11.635,7.774-12.662.247-.2.593-.21.553-.592a.433.433,0,0,0-.457-.424,1.533,1.533,0,0,0-.818.441c-1.743,1.594-6.483,8.708-8.039,12.873-3.54,9.478-5.948,20.295-4.789,30.3a.666.666,0,0,0,.674.591c7.556-.223,83.842-.138,84.018-.193,8-2.013,7.524-12.86,9-18.713,1.077-4.267,1.972-9.912,5.9-11.5,10.411-4.208,25.037-3.324,30.613-4.049C182.889,127.477,185.254,123.184,178.669,118.652Zm.7,7.037c-3.528,1.831-8.192,1.489-12.13,1.7-7.758.425-15.974.8-23.248,3.68,4.487-6.315,8.113-11.056,15.254-14.4,2.524-1.188,7.806-.628,10.521-.068,3.72.767,8.221,2.7,10.4,5.374C181.477,123.594,181.235,124.719,179.367,125.689Z" fill="#f26333"></path><path d="M140.041,88.8c2.089,2.624,2.641,2.98,5.078,5.715,2.856,3.2,2.344,2.926,5.583,6.153a.487.487,0,1,0,.747-.626,28.32,28.32,0,0,0-1.661-2.364,98.751,98.751,0,0,0-7.1-7.909c-.551-.5-1.527-1.246-2.046-1.619a.44.44,0,0,0-.625.019A.435.435,0,0,0,140.041,88.8Z" fill="#f26333"></path><path d="M154.89,86.3c2.578,4.439,2.566,7.976.578,11.911a16.724,16.724,0,0,1-1.107,1.969.487.487,0,0,0,.746.626,10.737,10.737,0,0,0,1.588-1.9c2.393-3.809,2.463-9.787-1.107-13.163a.443.443,0,0,0-.626-.071A.457.457,0,0,0,154.89,86.3Z" fill="#191919"></path><path d="M112.147,156.649c-6.943.081-4.929-.263-23.442.084a.488.488,0,0,0-.1.972c4.062.583,5.458.35,9.411.351,6.706,0,9.218.373,14.2-.517A.446.446,0,0,0,112.147,156.649Z" fill="#f26333"></path><path d="M147.068,102.511c.47,3.223-.012.578,1.276,6.234.616,2.7.612,3.342,1.275,5.7a.476.476,0,0,0,.53.428.5.5,0,0,0,.433-.541,21.412,21.412,0,0,0-.818-6.155c-.281-1.278-.866-3.616-1.083-4.187-.095-.251-.534-1.294-.746-1.716a.442.442,0,0,0-.554-.311A.483.483,0,0,0,147.068,102.511Z" fill="#f26333"></path><path d="M137.61,75.72c1.285,1.416.251,3.8.987,4.086.54.194,1.021-.848,1.131-1.41a3.993,3.993,0,0,0-1.661-4.145c-.424-.241-1.628-.375-1.685.188C136.294,74.883,137.018,75.062,137.61,75.72Z" fill="#191919"></path><path d="M140.5,75.176a3.431,3.431,0,0,1,.6,1.634c.114,1.162-.689,3.232.1,3.479.539.187.916-.806,1.155-1.384a4.737,4.737,0,0,0-.7-4.558c-.425-.38-1.261-.978-1.636-.549C139.818,74.063,139.9,74.211,140.5,75.176Z" fill="#191919"></path><path d="M143.507,75.313a4.1,4.1,0,0,1,.071,3.435c-.177,1.031-.52,1.465-.047,1.728.575.319,1.078-.665,1.42-1.226.638-1.458.712-3.7-.29-4.762-.391-.417-1.354-1.02-1.684-.552C142.718,74.3,143.042,74.383,143.507,75.313Z" fill="#191919"></path><path d="M120.356,80.144a2.468,2.468,0,0,0-2.287-1.217,2.322,2.322,0,0,0-2.575,2.383,2.578,2.578,0,0,0,.8,1.921A1.663,1.663,0,0,1,114,83.3a.609.609,0,0,0-.578-.034c-1.633.7-5.042,1.7-6.907,2.343-5.151,1.783-10.821,3.324-16.173,2.421C84.9,87.11,82.068,80.709,83.7,76.141a.488.488,0,0,0-.915-.338c-2.317,5.85,1.078,12.624,7.293,13.7,5.589.967,11.539-.579,16.918-2.5a59.9,59.9,0,0,0,6.691-2.482,2.666,2.666,0,0,0,3.415-.753,2.605,2.605,0,0,0,3.254-3.622Zm-1.2,1.166a1.109,1.109,0,0,1-1.083,1.142,1.135,1.135,0,0,1-1.107-1.142,1.608,1.608,0,0,1,.385-1.012c.515-.444.832-.608,1.42-.008A1.576,1.576,0,0,1,119.152,81.31Z" fill="#191919"></path><path d="M77.228,164.493c-2.136,6.436-8.089,10.571-14.119,9.471-4.706-.858-8.222-4.646-9.432-9.471H60.8c2.273,3.286,6.735,3.287,9.3,0Z" fill="#191919"></path><path d="M77.644,164.647a.48.48,0,0,0-.416-.642l-7.126-.189a.675.675,0,0,0-.529.26c-2.114,2.65-5.915,3.087-8.165-.008a.765.765,0,0,0-.605-.323H53.677a.746.746,0,0,0-.737.931c2.873,11.539,16.316,13.75,22.682,4.287A15.525,15.525,0,0,0,77.644,164.647Zm-1.1.352-6.105.162a6.279,6.279,0,0,1-10.018.079H54.66a11.448,11.448,0,0,0,8.581,7.99C68.855,174.268,74.241,170.383,76.548,165Z" fill="#191919"></path><path d="M152.965,133.574c.231,1.186,1.876,7.336,2.19,8.5.244.909.812,3.262,1.516,3.088.931-.23-.337-4.482-1.083-7.314-.027-.1-.912-3.572-1.276-4.638-.464-1.359-.859-2.376-1.323-2.237C152.6,131.078,152.534,131.367,152.965,133.574Z" fill="#191919"></path><path d="M158.933,137.379a51.661,51.661,0,0,0,1.468,5.451c.526,1.379.709,2.073,1.276,1.9.524-.176.313-.771,0-2.345-.039-.2-1.743-7.695-2.527-9.866-.166-.467-.9-2.437-1.468-2.219C157.021,130.527,157.473,131.3,158.933,137.379Z" fill="#191919"></path><path d="M165.156,150.04a4.407,4.407,0,0,0-8.016-2.125,6.547,6.547,0,0,0-.787,5.786C158.658,159.1,165.811,155.939,165.156,150.04Zm-7.441,3.092a5.057,5.057,0,0,1-.1-2.8,4.549,4.549,0,0,1,1.479-2.42c1.81-1.6,3.753-.894,4.446,1.175a3.937,3.937,0,0,1,.174,1.1C164.475,153.6,159.715,157.279,157.715,153.132Z" fill="#191919"></path><path d="M178.211,140.713a17.891,17.891,0,0,0-10.469-10.879l-.193-.031a52,52,0,0,0-6.931.535v-.04h-.024a.474.474,0,0,0-.385.611c.507,1.944,1.273,4.28,1.733,6.291a.528.528,0,0,0,.481.421,10.114,10.114,0,0,1,8.424,6.722,15.941,15.941,0,0,1-4.766,17.7c-5.771,4.525-12.963,2.524-15.667-4.161a15.5,15.5,0,0,1,.818-12.908c1.474-2.882,2.38-2.842,2.142-3.655a69.347,69.347,0,0,1-1.853-7.542.76.76,0,0,0-1.228-.436c-13.968,12.189-10.7,35.73,4.477,39.752C170.393,177.234,184.446,157.35,178.211,140.713Zm-17.473-9.464v-.026l.025,0Z" fill="#191919"></path><path d="M107.069,100.033c8.5,1.226,17.685.358,19.181,8.9.5,2.85.135,6.023.049,8.62-.3,9.138-.924,19.015-2.071,28.193a.484.484,0,0,0,.41.555.492.492,0,0,0,.553-.41c1.71-9.595,2.212-16.921,2.623-28.287a43.655,43.655,0,0,0-.1-8.929c-1.844-10.57-14.052-8.83-20.529-9.528A.447.447,0,0,0,107.069,100.033Z" fill="#191919"></path><path d="M117.562,119.642c-.062-3.08-.459-6.649,0-9.865a.686.686,0,0,0-.578-.765c-.96-.089-1.925-.148-2.888-.2-.344-.018-13.092-1.166-14.681-1.342-2.743-.3-4.485-.611-4.933-2.087a18.628,18.628,0,0,1-1.565-5.73c-.041-.336-.349-1.9-.866-1.858-.6.043-.586,1.737-.554,2.012a14.675,14.675,0,0,0,.859,4.261,15.613,15.613,0,0,0-4.252-.3,4.675,4.675,0,0,0-4.38,4.525,7.776,7.776,0,0,0,2.31,5.758c5.526,5.2,13.54,3.97,20.625,1.345,3-1.111,6.446-2.419,6.591-5.617,1.181.168.778.1,2.892.437a24.34,24.34,0,0,0-.241,3.437c-.012,2.012.867,29.922.867,32.033a.471.471,0,0,0,.457.5.484.484,0,0,0,.505-.469C118.429,136.539,117.774,130.248,117.562,119.642Z" fill="#191919"></path><path d="M127.767,103.183c4.415,2.686,4.249,8.341,3.85,13.49-.746,9.625-.977,19.015-2.791,28.8a.468.468,0,0,0,.361.581.477.477,0,0,0,.577-.37c2.532-9.722,2.423-16.739,3.345-28.9.461-6.079.4-11.42-4.885-14.373a.47.47,0,0,0-.626.159A.453.453,0,0,0,127.767,103.183Z" fill="#191919"></path><path d="M127.956,150.3c0-.421-.251-.227-2.166-1.762-1.87-1.5-1.6-1.811-2.214-1.809a47.238,47.238,0,0,0-5.752.121.738.738,0,0,0-.65.7c-.12,2-.074,4.631.024,6.65a.762.762,0,0,0,.723.716,12.269,12.269,0,0,0,5.751-1.259,15.329,15.329,0,0,0,4.188-2.886A.428.428,0,0,0,127.956,150.3Z" fill="#191919"></path><path d="M129.74,147.7h.024c-.837-.947-.914-1.125-1.3-1.137-.746-.034-1.3-.1-2.142-.069a.757.757,0,0,0-.505,1.284,8.867,8.867,0,0,0,2.647,1.789.69.69,0,0,0,.7-.052,2.165,2.165,0,0,0,.747-1.186A.509.509,0,0,0,129.74,147.7Z" fill="#191919"></path><path d="M30.573,178.114l163.946-2.1a.492.492,0,0,0,.481-.493.477.477,0,0,0-.481-.481L30.573,177.221A.447.447,0,0,0,30.573,178.114Z" fill="#191919"></path></svg>