<svg viewBox="0 0 200 200" xmlns="http://www.w3.org/2000/svg" height="400" width="400"><path d="M27.937,38.8c-1.029,1.742.247,3.7,1.444,5,1.933,2.094,4.047,4.038,6.136,5.974a21.371,21.371,0,0,0,6.5,1.364c2.86-.131,5.98-1,6.53-1.654a5.66,5.66,0,0,1,2.623-1.606c1.029-.273,2.124-.193,3.01-.931,1.531-1.276.057-3.464-1.707-3.005-.819.212-.462,1.386.343,1.246,1.2.631-.945,1.028-1.286,1.071a4.891,4.891,0,0,0-3.681,2.42,35.211,35.211,0,0,1-5.612,1.184A24.571,24.571,0,0,1,36.561,49c-.032-.051-3.3-2.924-4.809-4.406-1.426-1.4-3.278-2.863-3.031-4.944,9.14,9.468,23.116,7.1,28.1-.528.454-.7-.553-1.426-1.128-.87-3.184,3.087-6.914,5.305-11.417,5.681-10.561.883-21.387-8.594-19.869-22.694,4.449,11.932,16.747,19.337,27.46,18.532a.814.814,0,0,0,0-1.627,29.373,29.373,0,0,1-15.039-4.53,28.491,28.491,0,0,1-9.792-11.153c-.873-1.67-2.063-4.132-1.536-6.066s3.439-2.107,5.072-1.92c4.97.57,10.02,3.145,14.161,5.854A36.338,36.338,0,0,1,56.14,32.2a.445.445,0,0,0,.768-.449,37.056,37.056,0,0,0-10.7-12.27c-4.449-3.214-10.133-6.133-15.64-6.78-2-.236-4.471.081-5.958,1.587a6.612,6.612,0,0,0-1.273,3.093c-.572,3.966-.365,10.692.7,14.037A26.858,26.858,0,0,0,27.937,38.8Z" fill="#191919"></path><path d="M48.808,51.213a9.406,9.406,0,0,1-5.1,1.474A14.327,14.327,0,0,1,38.749,51.4c-.233-.088-.593.051-.483.556a48.872,48.872,0,0,0,22.2,30.8A.958.958,0,0,0,61.43,81.1c-10.84-6.487-18.2-16.795-22.393-28.555,2.733,2.279,7.445,2.011,10.324.188A29.358,29.358,0,0,0,62.15,63.892a20.489,20.489,0,0,0,15.1.263,16,16,0,0,0,6.213-3.625c.445.572,5.285,5.125,5.886,5.695.682.647,1.724-.395,1.031-1.031-1.254-1.16-2.5-2.325-3.775-3.466-.792-.709-2.54-2.887-2.863-3.115-.845-.6-1.863.634-2.44,1.093a19.285,19.285,0,0,1-15,3.455,22.943,22.943,0,0,1-8.966-4.341c-2.2-1.622-5.958-6.361-7.676-7.688A.662.662,0,0,0,48.808,51.213Z" fill="#191919"></path><path d="M96.883,24.647c2.336-.054,8.413-1.138,6.694-4.787a.736.736,0,0,0-1.334.174c-.634,2.4-4.243,2.72-6.332,2.677a6.341,6.341,0,0,1-5.606-3.133c-.2-.368-.711-.105-.644.271C90.268,23.205,93.763,24.719,96.883,24.647Z" fill="#191919"></path><path d="M99.045,44.194c.024-.448-.078-.889-.094-1.34a.47.47,0,0,0-.867-.236,1.551,1.551,0,0,0,.024,1.96C98.433,44.976,99.021,44.627,99.045,44.194Z" fill="#191919"></path><path d="M99.45,41.944c.333.408.489.97.946,1.254a.488.488,0,0,0,.708-.287c.358-1.026-1.372-2.726-2.532-2.484a.285.285,0,0,0-.169.419C98.688,41.265,99.131,41.552,99.45,41.944Z" fill="#191919"></path><path d="M90.388,42.18a.558.558,0,0,0-.617-.4.564.564,0,0,0-.489.553,2.488,2.488,0,0,0,.124,1.2.594.594,0,0,0,1.079-.139C90.569,43.156,90.523,42.973,90.388,42.18Z" fill="#191919"></path><path d="M89.363,39.759a3.328,3.328,0,0,0-1.276,1.466.428.428,0,0,0,.739.432,2.488,2.488,0,0,1,1.694-.951C92.026,40.392,91.225,38.655,89.363,39.759Z" fill="#191919"></path><path d="M102.965,58.108c-.438-.131-.746.551-.317.752a129.717,129.717,0,0,1,14.011,7.129,31.623,31.623,0,0,0,4.39,2.618c.7.274,1.181-.733.706-1.214a20,20,0,0,0-4.293-2.779A75.115,75.115,0,0,0,102.965,58.108Z" fill="#191919"></path><path d="M68.551,74.114a.319.319,0,0,0-.615-.17A84.256,84.256,0,0,0,64.274,92.49a140.45,140.45,0,0,0,1.2,36.485c-.067.19,2.975,14.684,5.19,21.521,1.7,5.261,5.416,15,8.254,19.7.454.752,1.49.094,1.152-.674-2.126-4.82-4.047-7.709-7.339-17.321-2.056-6.023-5.238-20.219-5.4-21.113a31.18,31.18,0,0,0,9.342,4.594,47.1,47.1,0,0,0,25.013.637,43.124,43.124,0,0,0,11.391-4.348c3.964,10.51,4.251,13.065,6.014,17.212.432,1.015,2.019.282,1.748-.738-.83-3.1-2.116-6.16-3.23-9.17-1.079-2.919-2.2-5.824-3.528-8.635.325-1.305.663-7.8.816-9.637.312-3.687.7-7.389.768-11.089,2.382.217,5.488-.521,6.721-2.561a.635.635,0,0,0-.862-.862,19.476,19.476,0,0,1-3.067,1.774,7.719,7.719,0,0,1-9.035-3.673c-.107-.188-.443-.062-.359.153a7.823,7.823,0,0,0,5.7,5.037c.051.011-2.307,19.6-2.084,21.143-1.753.507-3.447,1.336-5.179,1.911-9.785,3.233-20.219,4.193-29.944,1.168-3.823-1.189-10.6-5.147-10.6-5.147s-3.3-19-1.512-33.523C66.328,88.21,67.243,81.16,68.551,74.114Z" fill="#191919"></path><path d="M81.7,83.831a157.435,157.435,0,0,0,.723,30.048c.314,2.492,2.158,12.456,3.155,14.7a.9.9,0,0,0,1.672-.454,70.854,70.854,0,0,0-1.611-7.091c-.526-2.455-2.534-17.217-2.687-22.152-.5-15.971,1.858-22.718,2.287-28.706A24.618,24.618,0,0,0,89.6,68.84a91.138,91.138,0,0,0,9.2-4.529c1.248-.806,2.945-1.716,3.724-3.018a.34.34,0,0,0-.379-.494c-1.428.453-2.682,1.68-3.95,2.475-7.128,4.463-11.5,4.618-13.862,5.472-.5.18-1.4,5.711-1.735,7.894Q82.055,80.225,81.7,83.831Z" fill="#191919"></path><path d="M87.094,85.565a1.134,1.134,0,0,0-1.67-.434,1.027,1.027,0,0,0,.276,1.656,1.093,1.093,0,0,0,1.2-.153A1.268,1.268,0,0,0,87.094,85.565Z" fill="#191919"></path><path d="M86.774,99.691a1.086,1.086,0,0,0,.585-1.64.948.948,0,0,0-1.707.534C85.569,99.2,86.121,99.93,86.774,99.691Z" fill="#191919"></path><path d="M88.2,113.922a.976.976,0,0,0-.494-1.6,1.028,1.028,0,0,0-1.16.465.887.887,0,0,0,.137,1.055A1.3,1.3,0,0,0,88.2,113.922Z" fill="#191919"></path><path d="M91.873,163.136a.818.818,0,0,0,1.635,0c.333-4.89.019-10.147.932-19.632a148.406,148.406,0,0,1,9.32,13.164c.725,1.1,2.5.062,1.767-1.033-3.652-5.412-7.793-11.065-12.738-15.375-.218-.188-.6.056-.422.325q.685,1.03,1.418,2.03A102.4,102.4,0,0,0,91.873,163.136Z" fill="#191919"></path><path d="M96.008,77.035c1.64.249,3.271.577,4.906.849a.34.34,0,0,0,.179-.656c-1.353-.44-2.719-.843-4.073-1.288.435-2.148-.966-4.409-3.461-4.1a2.765,2.765,0,0,0-2.1,4.1,2.888,2.888,0,0,0-1.138,4.538,2.951,2.951,0,0,0,4.932-.682c1.1.438,2.194.873,3.3,1.3.931.36,1.34-1.144.413-1.5q-1.974-.753-3.957-1.482a.742.742,0,0,0-.911.516c-.214,1.232-1.552,2.019-2.556,1.007A1.51,1.51,0,0,1,92.7,77.067a.712.712,0,0,0,.357-1.315c-1.359-1-.212-2.825,1.251-2.6,1.5.234,1.716,1.875,1.224,3.045A.682.682,0,0,0,96.008,77.035Z" fill="#191919"></path><path d="M139.917,86.79c1.909.276,6,1.012,5.434,3.77-.446,2.164-3.243,3.694-5,4.656-4.151,2.263-8.957,3.377-13.575,4.207a55.26,55.26,0,0,1-28.693-1.992c-2.1-.768-5.59-1.874-5.687-4.608-.107-3.012,2.879-4.648,5.1-5.971a.408.408,0,0,0-.411-.7c-2.218,1.077-4.545,2.425-5.526,4.823a4.734,4.734,0,0,0,1.482,5.638c2.02,1.649,4.887,2.478,7.333,3.241a56.613,56.613,0,0,0,19.163,2.317c-.15.371-.158.782-.579.972-.347.159-2.025-1.267-2.613-.513-.269.344-.457.72-.945.776a1.105,1.105,0,0,1-1.163-.738c-.086-.269-.553-.239-.518.069a1.838,1.838,0,0,0,1.463,1.749,1.919,1.919,0,0,0,2.113-1.069,1.6,1.6,0,0,0,2.081.931,2.074,2.074,0,0,0,1.254-2.233c7.265-.462,16.882-2.313,22.831-6.562,2.049-1.461,4.369-3.73,3.534-6.512a4.718,4.718,0,0,0-2.409-2.7,8.641,8.641,0,0,0-4.521-.586C139.492,85.767,139.305,86.7,139.917,86.79Z" fill="#191919"></path><path d="M112.65,102.323c-.505.3-.542.977-1.24,1.034-.664.053-1.069-.532-1.41-1-.075-.1-.2-.091-.32,0a3.9,3.9,0,0,1-2.054.6,2.06,2.06,0,0,1-1.471-1.028c-.145-.284-.532-.072-.483.2a2.246,2.246,0,0,0,3.968,1.214,1.994,1.994,0,0,0,1.595,1.2c.975.091,2.661-.9,2.1-2.043A.511.511,0,0,0,112.65,102.323Z" fill="#191919"></path><path d="M127.839,102.93c-2.576-.894-4.486.574-6.608,1.63a13.15,13.15,0,0,1-10.858.166c-.284-.118-.467.344-.207.491,4.122,2.336,8.627,1.866,12.7-.287,1.263-.666,2.793-1.487,4.267-1.023.76.239,1.509.9,2.334.416,1.4-.813.357-2.809-.916-3.029a.444.444,0,0,0-.494.642,7.473,7.473,0,0,1,.494.6C129,103.7,128.282,103.083,127.839,102.93Z" fill="#191919"></path><path d="M176.922,131.257c-.086-3.48-2.535-6.372-5.056-8.587-3.225-2.835-23.969-19-32.065-22.24-.835-.333-1.329.98-.6,1.418,6.275,3.75,32.487,22.946,34.323,25.8,2.052,3.187,1.3,6.527-1.3,9.121-2.5,2.483-23.5,12.262-30.7,15.729-14.191,6.833-56.354,27.038-63.174,30.448-3.026,1.512-6.052,3.6-9.591,2.669a25.489,25.489,0,0,1-8.912-4.876c-6.658-5.163-27.137-20.852-30.593-23.674-2.693-2.2-6.068-6.439-2.878-9.747.01-.011,7.268-4.527,8.823-5.469,11.478-6.963,19.61-10.264,28.075-15.316a.7.7,0,0,0-.707-1.211c-6.36,3.257-12.66,6.7-18.937,10.123-3.077,1.675-16.7,10.458-17.8,11.334a4.431,4.431,0,0,0-1.64,3.246c-.521,4.75.274,13.1,2.47,15.911a32.085,32.085,0,0,0,5.673,5.089c2.336,1.852,15.789,12.372,20.222,15.715,4.186,3.155,8.627,6.205,13.734,7.636,5.19,1.456,10.13.2,14.9-2.03,2.6-1.219,79.246-39.373,82.541-41.126,2.776-1.48,11.819-5.972,12.493-7.621C176.616,142.633,177.134,132.532,176.922,131.257Z" fill="#191919"></path><path d="M147.166,115.337c.5-1.189.272-2.022-.977-3.071-1.485-1.249-4.632-.355-4.4,2.223C142.028,117.117,146.007,118.1,147.166,115.337Z" fill="#191919"></path><path d="M46.464,159.874a20.687,20.687,0,0,0-4.087-2.258c-.475-.158-.747.456-.457.784a25.123,25.123,0,0,0,3.569,2.916c1.02.8,9.578,7.778,10.861,7.55a.691.691,0,0,0,.5-.663C56.778,166.52,47.751,160.665,46.464,159.874Z" fill="#191919"></path><path d="M119.218,110.767a.5.5,0,0,0-.481.631c.521,1.354,1.9,2.164,3.007,3.018,6.842,5.26,18.881,13.805,21.61,15.721a83.891,83.891,0,0,0,7.861,5.346c-.714.244-10.514,5.335-12.9,6.541-24.538,12.4-35.637,17.031-60.113,30.537,0,0-29.45-21.9-35.209-26.553,3.746-1.809,21.9-11.535,22.353-12.308a.505.505,0,0,0-.3-.738c-1.7-.3-20.484,10.01-23.886,13.074-.376.338.142.9.459,1.159,10.165,8.216,36.237,26.643,36.444,26.561,4.93-1.933,9.914-4.506,14.658-6.85,43.249-21.363,61.746-29.99,60.5-31.288C150.864,133.158,120.8,110.974,119.218,110.767Z" fill="#191919"></path><path d="M115.625,10.873a9.479,9.479,0,0,0-8.431.641A7.905,7.905,0,0,0,105.056,7.7a8.4,8.4,0,0,0-12.727.446,9.967,9.967,0,0,0-6.065-2.32c-5.551-.244-10.788,4.629-8.611,9.427,1.1,2.412,3.512,3.751,5.939,4.533-.144,2.61,1.971,15.635,2.036,15.678a5.478,5.478,0,0,0-1.158,1.326C83.794,37.82,83,39.071,83.719,40.3a1.66,1.66,0,0,0,1.4.851,4.667,4.667,0,0,0-.4,1.595,1.172,1.172,0,0,0-1.176-.059c-1.67.845-1.285,3.913,1.378,4.009a8.28,8.28,0,0,0,.446,1.713,10.774,10.774,0,0,0-.529,4.366,9.212,9.212,0,0,0,3.38,7.491c4.353,3.8,13.393,1.458,14.945-5.483a10.043,10.043,0,0,0,.03-4.809,6.012,6.012,0,0,0,.3-1.453,2.587,2.587,0,0,0,3-2.054c.457-1.965-1.742-2.964-1.742-2.964a11.7,11.7,0,0,0,.129-1.729,1.477,1.477,0,0,0,.619-.446,4.377,4.377,0,0,0-.426-4.717,4.566,4.566,0,0,0-.68-.586s4.469-10.8,4.732-11.548c4.349.95,9.55-1.563,10.249-6.366A6.812,6.812,0,0,0,115.625,10.873Zm-31.587,33.5a1.05,1.05,0,0,1,.65-1.06c-.022.819.058,1.659.067,1.834C84.417,44.994,84.115,44.849,84.038,44.371Zm14.271,7.317c-.126,1.81-2.357,2.844-3.99,2.747a3.784,3.784,0,0,1-3.542-2.948c-.037-.3.379-.414.567-.231.953.9,1.794,1.756,3.236,1.6,1.28-.14,1.777-1.091,2.744-1.73A.658.658,0,0,1,98.309,51.688Zm6.323-7.518a3.445,3.445,0,0,1,.446,1.909A1.5,1.5,0,0,1,104,47.153C104.368,45.242,104.379,45.483,104.632,44.17ZM117.3,17.6a5.767,5.767,0,0,1-4.21,4.712c-2.706.809-4.983-.424-7.327-1.6-.594-.3-1.5.371-1.015,1.015a7.125,7.125,0,0,0,2.776,2.221,26.058,26.058,0,0,0-2.218,5.214,27.149,27.149,0,0,0-1.544,6.528c-.161-.07-4.078-1.174-4.078-1.174,1.348-5.551,1.533-6,1.415-7.166a.369.369,0,0,0-.68-.185c-1.4,1.89-1.509,4.849-1.63,7.241a9.9,9.9,0,0,0-2.328.046c-.359.123-.338.319-.19.5.113.139,3.171,2.306,3.807,2.841.983.827,3.665,3.649,4.21,3.9-.614,1.264-1.683,7.555-2,7.647a3.159,3.159,0,0,1-1.405.04c-2.306-.712-4.4-3.284-4.977-2.623-.293.335-.317.676-.583,1.009-1.007,1.257-1.778-1.025-1.877-1.691-.212-1.391.3-2.581.422-3.926.026-.282-.344-.381-.524-.217a5.174,5.174,0,0,0-1.259,4.094c-.427.145-2.857,2.028-4.074,2.269a4.146,4.146,0,0,1-1.538.011c-.98-3.555-.583-6.039-.886-7.166a10.447,10.447,0,0,0,3.6-1.488c.521-.3,4.852-3.536,5.4-3.955.3-.228,1.4-.956.518-1.163a23.708,23.708,0,0,0-4.47-.026,9.175,9.175,0,0,0-1.128-7.618.418.418,0,0,0-.76.319A60.2,60.2,0,0,1,89.825,34.6c-.881.107-3.08.311-3.282.373.231-1.152-.593-6.361-.768-7.741-.322-2.567-.405-5.421-1.216-7.889-.121-.365-4.057-1.708-5.394-4.245-2.076-3.9,2.74-7.8,7.11-7.443,2.54.207,4.642,2.462,5.609,2.693,1.5.36,5.687-3.971,8.28-3.27a7.279,7.279,0,0,1,3.65,2.405c.88,1.075,1.028,2.589,1.949,3.569.384.411,5.73-1.493,8.149-.687A4.9,4.9,0,0,1,117.3,17.6Z" fill="#191919"></path><path d="M137.371,82c-.159-6.007-6.355-11.092-12.152-11.417a21.04,21.04,0,0,0-10.4,1.922,23.542,23.542,0,0,0-4.036,2.53c3.088,1.142,7.649,3.878,8.852,6.946a.526.526,0,0,1-.445.663c-.653-.937-4.43-5.974-10.453-7.011-3.053-.526-7.247.988-8.48,4.135a7.586,7.586,0,0,0-.1,5.046,7.791,7.791,0,0,0,3.249,3.8c2.309-1.82,6.13-1.989,7.913-1.592a13.528,13.528,0,0,1,4.3,1.941c.29.03.95-.448,1.246-.507,3.332-.661,4.626,1.487,5.426,2.159a3.746,3.746,0,0,1,3.115-1.252,5.548,5.548,0,0,1,3.684,1.184c-.1-.088.5-2.881,6.019-4.446a3.641,3.641,0,0,1,1.813-.032A26.672,26.672,0,0,0,137.371,82Zm-5.542-5.123c-.968-.184-1.679-1.593-3.216-3.013-.355-.327.1-.846.494-.639,1.17.611,3.352,1.787,3.418,3.123A.558.558,0,0,1,131.829,76.877Zm1.853,3.2c-.426-.112-.586-.372-.773-.771a.952.952,0,0,1,.216-1.182.934.934,0,0,1,1.169.114C135.265,79.217,134.6,80.314,133.682,80.072Z" fill="#f26333"></path><path d="M117.287,112.58c0,6.433-1.573,11.462-.443,17.7.655,3.625,5.3,15.286,7.134,17.05.741-.7,20.412-9.7,23.583-11.581C147.682,135.674,119.269,113.49,117.287,112.58Z" fill="#f26333"></path><path d="M95.181,161.92c0-6.009.1-8.78-.035-14.59,2.747,3.2,7.561,9.975,8.329,10.737C102.087,159.017,96.569,161.7,95.181,161.92Z" fill="#f26333"></path><path d="M67.906,147.048c-1.154-3.566-3-11.578-3-11.578L44.5,146.226s31.807,24.037,32.929,24.037S72.83,162.251,67.906,147.048Z" fill="#f26333"></path><path d="M119.894,90.066a3.769,3.769,0,0,0-4.121.628,4,4,0,0,0-2.108-1.813,9.823,9.823,0,0,0-7.234-.2c-1.726.628-4.237,1.477-3.984,3.786.438,4,6.366,3.375,9.019,2.7a8.2,8.2,0,0,0,3.721-1.61,3.254,3.254,0,0,0,4.989,1.468A2.868,2.868,0,0,0,119.894,90.066Zm-7.985,3.187c-1.968.6-5.115,1.345-6.933-.016-.958-.72-.84-2.194.618-3.035,1.686-.971,7.569-.84,8.688.876C115.155,92.418,112.68,93.017,111.909,93.253Zm7.867.483c-1.9,1.413-3.905-1.059-2.607-1.987a2.294,2.294,0,0,1,1.737-.628C120.248,91.331,121,92.823,119.776,93.736Z" fill="#191919"></path><path d="M127.249,90.729a4.443,4.443,0,0,0-3.719.639,4,4,0,0,0-1.037,1.324c-.36.553-.9.907-1.151,1.546a1.607,1.607,0,0,0,.29,1.882c.719.639,1.925.309,2.765.183a10.528,10.528,0,0,0,4.216-1.222C130.672,93.69,129.16,91.22,127.249,90.729Zm-4.213,4.409c-.618-.6.438-1.77.827-2.181a3.2,3.2,0,0,1,2.57-1.084,2.773,2.773,0,0,1,1.7.719C129.04,93.865,123.321,95.412,123.036,95.138Z" fill="#191919"></path><path d="M132.412,88.683a8.092,8.092,0,0,0-2.3,2.945,2.314,2.314,0,0,0,.87,2.854c1.138.715,2.706.078,3.818-.351a10.154,10.154,0,0,0,4.027-2.3C141.38,88.888,136.362,85.245,132.412,88.683Zm.1,4.556c-3.09.521.822-3.348,2.1-3.9.695-.3,2.537-1,3.437.317C138.394,90.17,136.168,92.624,132.508,93.239Z" fill="#191919"></path></svg>