<svg viewBox="0 0 200 200" xmlns="http://www.w3.org/2000/svg" height="400" width="400"><path d="M107.021,38.867c.28-.838.543-1.659.789-2.514-.789-.247-1.577-.444-2.366-.641-.16.593-.556,1.871-.74,2.58C104.967,38.358,106.512,38.752,107.021,38.867Z" fill="#191919"></path><path d="M103.307,40.2c.542.136,3.714.9,4.75,1.15a.449.449,0,0,0,.542-.312c.641-1.907,1.282-3.813,1.791-5.752a.467.467,0,0,0-.312-.559c-1.84-.625-3.681-1.183-5.554-1.627a.48.48,0,0,0-.592.345c-.351,1.285-.044-.251-1.512,4.8-.115.411-.394.969-.2,1.38C102.4,40.067,102.929,40.1,103.307,40.2Zm.362-1.775c.149-.77.688-2.412.969-3.369a.481.481,0,0,1,.576-.329c1.084.279,2.169.559,3.237.92a.459.459,0,0,1,.313.543c-.3,1.117-.674,2.218-1.052,3.336a.464.464,0,0,1-.543.312c-.1-.026-3.07-.769-3.171-.789h-.017A.56.56,0,0,1,103.669,38.424Z" fill="#191919"></path><path d="M122.782,38.407a56.494,56.494,0,0,0-5.555-1.627.479.479,0,0,0-.591.345c-.166.606-1.991,5.593-1.71,6.18.152.345-.2.239,5.835,1.676a.441.441,0,0,0,.542-.312c.641-1.907,1.282-3.813,1.791-5.752A.437.437,0,0,0,122.782,38.407Zm-1.315,1.446c-.3,1.118-.674,2.219-1.052,3.337a.463.463,0,0,1-.542.312c-.1-.026-3.07-.769-3.172-.789h-.016a.5.5,0,0,1-.345-.592c.163-.815.688-2.412.969-3.369a.481.481,0,0,1,.576-.328c1.084.279,2.169.558,3.237.92A.4.4,0,0,1,121.467,39.853Z" fill="#191919"></path><path d="M117.375,41.973c.263.066,1.808.444,2.334.576.279-.838.542-1.66.788-2.515-.788-.246-1.577-.444-2.366-.641C118.1,39.493,117.516,41.428,117.375,41.973Z" fill="#191919"></path><path d="M106.709,47.43a55.934,55.934,0,0,0-5.554-1.627.48.48,0,0,0-.592.345c-.351,1.285-.044-.251-1.512,4.8-.115.41-.394.969-.2,1.38.181.411.706.444,1.084.526.543.131,3.714.9,4.75,1.15a.449.449,0,0,0,.542-.312c.641-1.906,1.282-3.813,1.808-5.752A.465.465,0,0,0,106.709,47.43ZM105.4,48.876c-.3,1.117-.674,2.218-1.052,3.336a.463.463,0,0,1-.543.312c-.1-.026-3.07-.768-3.171-.789h-.017a.5.5,0,0,1-.345-.591c.163-.815.688-2.413.97-3.369a.48.48,0,0,1,.575-.329c1.085.279,2.169.559,3.237.92A.4.4,0,0,1,105.4,48.876Z" fill="#191919"></path><path d="M101.3,51c.263.066,1.808.444,2.334.575.28-.838.542-1.66.789-2.514-.789-.247-1.578-.444-2.367-.641C102.027,48.516,101.446,50.441,101.3,51Z" fill="#191919"></path><path d="M119.4,51.094a56.574,56.574,0,0,0-5.555-1.627.481.481,0,0,0-.592.346c-.353,1.295-.038-.273-1.512,4.8-.115.411-.394.97-.2,1.381.181.411.707.444,1.085.526.542.131,3.714.9,4.749,1.15a.441.441,0,0,0,.542-.312c.641-1.907,1.282-3.813,1.792-5.752A.438.438,0,0,0,119.4,51.094Zm-1.315,1.447c-.3,1.117-.674,2.218-1.052,3.336a.464.464,0,0,1-.542.312c-.1-.026-3.071-.769-3.172-.789H113.3a.5.5,0,0,1-.345-.591c.163-.812.69-2.418.97-3.369a.48.48,0,0,1,.575-.329c1.085.279,2.169.559,3.238.92A.4.4,0,0,1,118.082,52.541Z" fill="#191919"></path><path d="M113.99,54.661c.263.065,1.807.443,2.333.575.28-.838.543-1.66.789-2.515-.789-.246-1.577-.443-2.366-.64C114.715,52.181,114.133,54.108,113.99,54.661Z" fill="#191919"></path><path d="M110.226,41.283a4.962,4.962,0,0,0,1.94.526.666.666,0,0,0,.722-.46q.174-.468.346-.937a.449.449,0,0,0-.313-.542c-.131-.049-.279-.082-.411-.132h-.032c.033-.1.864-2.378.9-2.481a.473.473,0,0,0-.328-.575c-.345-.148-.92-.411-1.282-.2a.918.918,0,0,0-.345.263A24.578,24.578,0,0,0,110,40.79.517.517,0,0,0,110.226,41.283Z" fill="#191919"></path><path d="M119.446,46.049a23.647,23.647,0,0,0-4.142-1.117.45.45,0,0,0-.526.295,4.532,4.532,0,0,0-.345,1.907c.034.706.581.688,1.463.953a.441.441,0,0,0,.542-.312l.115-.477c.346.1,2.005.575,2.5.707a.48.48,0,0,0,.575-.329C119.808,47.087,120.023,46.28,119.446,46.049Z" fill="#191919"></path><path d="M105.378,45.359a.5.5,0,0,0,.181-.657.68.68,0,0,0-.575-.329c-1.66-.332-2.871-.784-3.386-.526a.39.39,0,0,0-.082.608A9.687,9.687,0,0,0,105.378,45.359Z" fill="#191919"></path><path d="M110.883,48.12c-.186-.042-1.011-.217-1.1-.247.353-1.072.723-1.649.46-2.12a.863.863,0,0,0-.74-.361c-.652,0-1.328-.362-1.923-.2a.332.332,0,0,0-.2.493,1.051,1.051,0,0,0,.329.328,4.858,4.858,0,0,0,1.429.428c-.082.274-.245.661-.476,1.314a1.239,1.239,0,0,0-.148.477.635.635,0,0,0,.312.575,1.587,1.587,0,0,0,.477.132c.1.023,1.165.228,1.265.246A.557.557,0,0,0,110.883,48.12Z" fill="#191919"></path><path d="M102.206,42.483a6.392,6.392,0,0,0,1.578.345.384.384,0,0,0,.361-.279c.1-.313.2-.625.3-.921a.364.364,0,0,0-.164-.41c-.351-.164-1.651-.634-1.923-.362a2.719,2.719,0,0,0-.378.756,1.163,1.163,0,0,0-.1.411A.549.549,0,0,0,102.206,42.483Z" fill="#191919"></path><path d="M110.276,50.519a12.549,12.549,0,0,0-2.531-.739c-.489-.2-.749.74-.937,1.282a1.557,1.557,0,0,0-.132.608.654.654,0,0,0,.444.558,12.716,12.716,0,0,0,2.465.526.383.383,0,0,0,.362-.279c.164-.51.345-1.019.509-1.528A.4.4,0,0,0,110.276,50.519Z" fill="#191919"></path><path d="M109.191,54.611a7.236,7.236,0,0,0-2.663-.624.3.3,0,0,0-.147.559,9.355,9.355,0,0,0,2.547,1.019.505.505,0,0,0,.608-.346A.514.514,0,0,0,109.191,54.611Z" fill="#191919"></path><path d="M112.478,43.305a4.19,4.19,0,0,0-.559,1.446c-.292,1.093-.394,1.316-.329,1.61a.487.487,0,0,0,.8.214.863.863,0,0,0,.2-.477,10.323,10.323,0,0,0,.378-2.662A.29.29,0,0,0,112.478,43.305Z" fill="#191919"></path><path d="M118.394,49.96c.2.033.46.132.641-.016a.469.469,0,0,0-.214-.871,3.293,3.293,0,0,0-1.3-.082.316.316,0,0,0-.148.591A2.49,2.49,0,0,0,118.394,49.96Z" fill="#191919"></path><path d="M114.335,39.163a.512.512,0,0,0,.608-.345,6.9,6.9,0,0,0,.361-1.331.379.379,0,0,0-.69-.3,7.754,7.754,0,0,0-.591,1.364A.461.461,0,0,0,114.335,39.163Z" fill="#191919"></path><path d="M68.7,54.874C67.761,44.354,58.509,38.856,53.38,41.4c-.328.165-.082.625.23.559a10.2,10.2,0,0,1,9.532,3.188,16.08,16.08,0,0,1,4.5,12.129c-.049.986-.2,1.972-.23,2.974a.331.331,0,0,0,.608.165A10.83,10.83,0,0,0,68.7,54.874Z" fill="#f26333"></path><path d="M66.166,121.6c-2.084-3.312-4.538-6.17-7.2-12.013C54.577,99.961,54.537,92,57.094,81.81c2.373-9.526,6.347-19.017,6.13-28.07-.016-.591-.049-1.183-.082-1.775a.312.312,0,0,0-.624,0c-.1,9.89-3.88,19.46-6.212,28.267-2.732,10.373-3.147,18.419.953,28.251a54.093,54.093,0,0,0,8.2,13.689,11.031,11.031,0,0,1-1,1.167,34.848,34.848,0,0,1-5.916,4.848,34.3,34.3,0,0,1-9.96,4.684c-16.1,5.137-29.053-.259-42.268-3.369-.033,0-.05-.016-.082-.016a67.579,67.579,0,0,0,5.078-23.074c.37-8.562-1.263-15.609-.855-25.227.345-7.97,1.676-16.187,4.9-23.533,7.255-16.63,22.055-22.463,33.51-17.864a21.2,21.2,0,0,1,2.416,1.084.4.4,0,0,0,.411-.69c-6.065-3.993-14.2-3.78-20.675-.92-6.442,2.826-11.553,8.184-14.922,14.3-3.9,7.05-5.686,15.1-6.475,23.073-1.132,11.405.484,17.769.608,25.884A68.669,68.669,0,0,1,5.047,129.4c-.213.51.51.921.9.658a.319.319,0,0,0,.2.148c8.939,2.618,18.144,5.8,27.939,5.932,9.365.136,18.257-2.625,24.108-6.36,2.436-1.571,6.178-4.275,7.889-6.606.181-.247.329-.51.493-.773A.529.529,0,0,0,66.166,121.6Z" fill="#f26333"></path><path d="M101.023,156.783a66.267,66.267,0,0,1-2.827,17.65,11.434,11.434,0,0,0-.542,2.186c-.1.411.509.707.707.3.356-.712.463-.389,1.4-3.7a47.89,47.89,0,0,0,1.857-16.418A.3.3,0,0,0,101.023,156.783Z" fill="#191919"></path><path d="M26.987,151.294c-2.2-5.667-1.8-6.563-2.482-7.675a.378.378,0,0,0-.69.1,2.128,2.128,0,0,0-.033.854,35.7,35.7,0,0,0,1.726,6.015c3.26,8.868,8.309,16.1,5.949,29.417-.066.378.493.559.592.165C35.317,168.3,30.069,159.219,26.987,151.294Z" fill="#191919"></path><path d="M148.682,69.4a.5.5,0,0,0-.181-.674,6.549,6.549,0,0,0-1.3-.558c0-.02.019-.007.263-.592a.6.6,0,0,0-.115-.657,4.469,4.469,0,0,0-1.117-.493,1.766,1.766,0,0,0,.18-.97.318.318,0,0,0-.378-.214,1.353,1.353,0,0,0-.608.674c-.148.28-.345.592-.2.92a.749.749,0,0,0,.37.355c.153.078.631.259.813.319-.231.543-.345.694-.345.921a.562.562,0,0,0,.329.509,1.916,1.916,0,0,0,.444.131,5.454,5.454,0,0,1,1.15.494A.5.5,0,0,0,148.682,69.4Z" fill="#191919"></path><path d="M147.137,63.174c-.143.314-.23.657.05.92a4.786,4.786,0,0,0,1.249.411,2.455,2.455,0,0,0-.1.378.954.954,0,0,0-.033.476.578.578,0,0,0,.362.4,7.933,7.933,0,0,0,1.512.443.489.489,0,0,0,.591-.328.5.5,0,0,0-.328-.592,6.335,6.335,0,0,1-1.134-.312s.159-.443.181-.542a.589.589,0,0,0-.28-.658,2.193,2.193,0,0,0-.559-.164c-.036-.01-.608-.148-.641-.164a1.32,1.32,0,0,0,.1-.806.3.3,0,0,0-.444-.181A1.54,1.54,0,0,0,147.137,63.174Z" fill="#191919"></path><path d="M155.6,61.333a2.188,2.188,0,0,0-.92-.362c-1.045-.19-1.091.124-1.512,1.019-.148.3-.3.608-.428.9a.5.5,0,0,0,.181.69c.181.083.707.313.789.346a4.624,4.624,0,0,1-.444.92c-.328.542.526,1.035.855.493a4.1,4.1,0,0,0,.362-.707c.307-.749.526-1.255-.28-1.594a3.388,3.388,0,0,1-.361-.164c.2-.357.446-.989.476-1.019.489,0,.623.049,1.118.049A.309.309,0,0,0,155.6,61.333Z" fill="#191919"></path><path d="M152.955,71.818c-1.147-.255-1.52-.468-1.84-.148-.24.26-.244.673-.526,1.381-.231-.05-.444-.1-.674-.132-.345-.066-.723-.181-.986.115a9.215,9.215,0,0,0-.5,1.731,1.018,1.018,0,0,0,.321,1.086c.248.15,1.572.613,2.115.93a.5.5,0,1,0,.509-.871,5.666,5.666,0,0,0-2.251-.789,7.2,7.2,0,0,0,.477-1.38c.1.022,1.1.269,1.2.3a.47.47,0,0,0,.559-.329c.027-.085.382-1.141.427-1.233.313.066.625.165.937.23C153.376,72.883,153.5,71.909,152.955,71.818Z" fill="#191919"></path><path d="M151.69,67.627a1.961,1.961,0,0,0-.822,1.249.585.585,0,0,0,.263.641,3.827,3.827,0,0,0,.937.378.6.6,0,0,0,.723-.411.627.627,0,0,0-.164-.574c-.126-.126-.232-.144-.543-.247a2.244,2.244,0,0,0,.126-.777A.351.351,0,0,0,151.69,67.627Z" fill="#191919"></path><path d="M143.916,71.785c.481.239,1.279.575,1.594.707.3-.559.592-1.118.871-1.693-.525-.279-1.068-.526-1.627-.756C144.644,70.265,143.916,71.785,143.916,71.785Z" fill="#191919"></path><path d="M144.689,68.679a.569.569,0,0,0-.641.082,22.482,22.482,0,0,0-1.627,3.073.455.455,0,0,0,.164.625,31.887,31.887,0,0,0,3.139,1.446.48.48,0,0,0,.575-.329,21.755,21.755,0,0,1,1.315-2.793.5.5,0,0,0-.164-.658C146.75,69.829,146,69.252,144.689,68.679Zm1.117,4.207a.218.218,0,0,1-.3.082c-.287-.121-1.879-.8-2-.887s-.11-.276-.055-.41c.159-.387.96-1.945,1.009-2.039a.255.255,0,0,1,.328-.082c.691.3,1.364.608,2.022.97C147.042,70.659,146.753,71.078,145.806,72.886Z" fill="#191919"></path><path d="M149.274,61.07c.431.215,1.056.481,1.594.707.3-.559.592-1.118.871-1.693-.526-.279-1.068-.526-1.627-.756C150,59.558,149.274,61.07,149.274,61.07Z" fill="#191919"></path><path d="M152.807,59.427c-.844-.392-1.251-.819-2.761-1.48a.569.569,0,0,0-.641.083,22.544,22.544,0,0,0-1.627,3.073.454.454,0,0,0,.165.624,31.9,31.9,0,0,0,3.139,1.447.481.481,0,0,0,.575-.329,21.571,21.571,0,0,1,1.315-2.794A.447.447,0,0,0,152.807,59.427Zm-.591.673c-.319.712-.691,1.381-1.052,2.071a.219.219,0,0,1-.3.082c-.285-.12-1.881-.8-2-.887-.149-.074-.1-.355-.033-.427.28-.691.641-1.348.986-2.022a.256.256,0,0,1,.329-.082c.69.3,1.364.608,2.021.97A.235.235,0,0,1,152.216,60.1Z" fill="#191919"></path><path d="M158.3,65.589c.481.239,1.279.575,1.594.707.3-.559.592-1.117.871-1.693-.526-.279-1.068-.526-1.627-.756C159.069,63.971,158.3,65.589,158.3,65.589Z" fill="#191919"></path><path d="M137.113,30.371c-.614-2.343-3.259-2.654-5.687-3.353-1.315-.378-25.21-6.935-25.884-7.116a5.894,5.894,0,0,0-3.385-.082c-.378.066-.74.1-1.118.164a3.48,3.48,0,0,0-2.991,2.038c1.424-.813,3.273-.136,4.849.3,1.528.411,3.106.723,4.65,1.118,3.4.833,17.687,4.668,22.713,6.343a10.012,10.012,0,0,1,2.07.723c2.7,1.612,1.135,5.835.345,8.809-2.069,7.97-13.01,43.361-13.459,44.783,1.006-.422,2.519-1.144,2.991-2.087.158-.307,11.632-36.5,13.772-44.29C136.627,35.366,137.612,32.275,137.113,30.371Z" fill="#f26333"></path><path d="M66.764,70.253a1.637,1.637,0,0,0-.1-2.051.979.979,0,0,0-1.216-.164,1.4,1.4,0,0,0-.394,1.5C65.245,70.186,66.076,70.9,66.764,70.253Z" fill="#191919"></path><path d="M65.624,64.39a1.484,1.484,0,0,0-1.479-.017,2.753,2.753,0,0,0-1.759,3.534.3.3,0,0,0,.543-.066,5.394,5.394,0,0,1,.288-1.109,2.387,2.387,0,0,1,1.634-1.38C66,65.117,65.973,64.646,65.624,64.39Z" fill="#191919"></path><path d="M164.742,80.255l0,.01Z" fill="#191919"></path><path d="M192.5,47.89c.178-.36,2.7-5.353,2.482-5.687a1.719,1.719,0,0,0-.461-.772c-.9-.46-1.775-1.035-2.662-1.528-2.038-1.151-22.433-12.556-22.7-12.688a.22.22,0,0,0-.148-.2,4.911,4.911,0,0,0-1.823-.264c-11.851-.32-13.058-.776-13.542-.131C150.232,32.831,130.017,76.27,130,76.37a.269.269,0,0,0,.083.313c1.468,1.483,16.987,10.776,18.779,11.243a15.9,15.9,0,0,1-2.419,9.536c-.483-.444-.955-.906-1.421-1.387a.541.541,0,0,0-.756,0c-3.32,3.549-6.528,7.19-9.778,10.781-7.255,8.013-7.5,8.919-7.822,9.4-2.154-1.543-2.216-1.538-6.214-4.076a124.041,124.041,0,0,0-19.195-10.338c-8.583-3.528-19-5.8-28.086-4.142a17.744,17.744,0,0,0-9.478,4.873c-2.13-3.468-2.242-5.215-3.242-7.9,3.963-.4,7.721-1.991,9.433-5.588,1.465-3.076,1.177-6.375.575-9.728-.34-2.039-.394-1.683-.246-1.825a8.639,8.639,0,0,0,1.906-2.7c.912-2.116-.8-3.259-2.5-5.456-.575-.74-1.15-1.479-1.709-2.235C66.553,61.171,65.472,56.136,64.1,51.6a.308.308,0,0,0-.592.164c.872,4.973,6.179,26.151,6.4,30.944a2.2,2.2,0,0,1-2.921-.335,4.309,4.309,0,0,1-.65-.945.429.429,0,0,0-.772.1,1.618,1.618,0,0,0,.05.969c.75,1.609,3.19,2.221,4.334,1.285.042,6.018-3.283,9.362-10,9.973a14.374,14.374,0,0,0-2.334.213.377.377,0,0,0,0,.724,6.923,6.923,0,0,0,2.1.048,27.635,27.635,0,0,0,3.217,8.561,21.759,21.759,0,0,0-2.231,2.45.3.3,0,0,0,.428.428c2.834-2.414,5.453-5.908,10.814-7.2A40.363,40.363,0,0,1,85.9,98.655c9.575,1.348,18.115,5.131,26.476,9.91,5.724,3.3,8.94,5.547,12.129,7.527.81.513,1.526.836,1.627.937a24.913,24.913,0,0,0-3.682,6.853c-.115.3.378.509.527.213,1.083-2.094,3.09-5.24,3.336-5.6,3.744-5.515,13.791-16.447,18.324-21.283A33.636,33.636,0,0,0,158,105.426a15.552,15.552,0,0,0,4.568,1.036c-1.709,4.994-5.016,18.686-14.214,36.089-3.016,5.744-5.891,9.911-11.981,12.325s-12.72,2.17-19.113,1.627c-17.106-1.452-20.547-1.955-23.4-1.955-.526,0-.674.838-.131.937,1.884.335,1.722.287,21.167,2.021,6.623.592,13.459,1.2,19.918-.789,6.613-2.053,10.078-5.6,13.361-11.34,6.154-10.85,13.463-28.991,15.251-38.916a.363.363,0,0,0-.055-.267c.2-1.318,1.187-3.222,2.356-3.627,2.224-.75,5.885-1.071,8.332-3.518a3.516,3.516,0,0,0,1.314-2.777c-.033-.213-.1-.345.017-.542.131-.218,2.44-2.79,1.1-4.8a4.934,4.934,0,0,0,1-3.533.267.267,0,0,0-.509,0,8.108,8.108,0,0,1-2.1,4.108c-.681.743-1.077.831-1.035,1.249a.4.4,0,0,0,.3.378c.361.1.575-.164.821-.378a12.253,12.253,0,0,0,1.053-1.134,4.815,4.815,0,0,1-1.266,3.386c-.815,1-.055,1.049-.428,2.07a4.494,4.494,0,0,1-1.282,1.611c-2.564,2.254-6.592,2.367-8.315,3.27a4.5,4.5,0,0,0-2.326,3.577,33.961,33.961,0,0,1-15.446-7.611,12.845,12.845,0,0,0,2.571-5.645c.608-2.961.052-5.2.508-7.577.461-2.4,1.826-4.519,2.762-6.738,2.684-6.323.879-8.412,2.1-10.452a1.891,1.891,0,0,1,2.464-.805,4.432,4.432,0,0,1,2.087,2.35,19.2,19.2,0,0,1,1.907,7.066,28.844,28.844,0,0,0,.247,3.156,4.41,4.41,0,0,0,4.207,3.813c3.983.456,9.323-2.5,11.179-5.132.189-.267.362-.617.928-1.579a14.823,14.823,0,0,1,.778,3.095c.516,6.437-5.506,8.556-8.1,10.7-.411.328.115,1,.559.723,1.068-.69,2.12-1.413,3.155-2.119a16.84,16.84,0,0,0,2.909-2.384c3.125-3.374,2.686-8.562,1.058-10.624C178.313,75.7,191.673,49.555,192.5,47.89ZM69.88,76.436c-.164-.789-.324-1.578-.477-2.35-1.1-5.612-1.213-5.1-.789-4.5,2.054,2.965,3.224,3.344,2.581,4.865A8.328,8.328,0,0,1,69.88,76.436Zm97.176-48.711a5.1,5.1,0,0,0,1.725-.115c.1,0,23.158,13.371,24.7,14.2-.912.03-8.386.361-9.286.493a.354.354,0,0,0-.164-.229h-.016c-.58-.58-28.543-14.791-28.645-14.841C156.553,27.361,166.855,27.72,167.056,27.725Zm-9.241,38.069c-.065-.123-.015-.23.092-.489.257-.617.83-1.7.932-1.885a.252.252,0,0,1,.328-.082c.691.3,1.364.608,2.022.97a.249.249,0,0,1,.049.3c-.338.7-.676,1.387-1.051,2.07a.217.217,0,0,1-.3.082A21.022,21.022,0,0,1,157.815,65.794Zm3.416,4.8a16.511,16.511,0,0,0-1.435-3.03l.308.125a.481.481,0,0,0,.575-.328,21.642,21.642,0,0,1,1.315-2.794.436.436,0,0,0-.165-.625c-.849-.394-1.247-.817-2.761-1.479a.567.567,0,0,0-.64.082,20.9,20.9,0,0,0-1.58,2.983,3.073,3.073,0,0,0-3.284,2.736c-.565,2.681.833,4.1-2.3,10.68-.791-.491-11.105-5.789-11.259-5.865,4.112-9.963,8.292-17.215,8.562-17.88,1.036.706,2.153,1.282,3.238,1.89,1.9,1.063,12.057,6.943,12.654,7.215C164.061,64.907,162.025,68.974,161.231,70.6Zm15.838,5.608a10.585,10.585,0,0,1-2.338,2.6,13.724,13.724,0,0,1-8.2,3.3c-2.575-.044-3.637-1.163-3.976-3.386a34.326,34.326,0,0,0-.867-6.7c.657-1.288,1.512-3.068,2.116-4.275a21.014,21.014,0,0,0,1.627-3.713c-.07-.139-.014-.246-.164-.346a13.3,13.3,0,0,0-1.809-1.019c-8.143-4.555-12.791-7.531-15.119-8.332-.23-.082-.378.115-.361.312a22.1,22.1,0,0,0-1.841,3.2c-1.835,3.388-4.507,8.916-7.034,15.054a.346.346,0,0,0,.033.361c-.086.433,1.277.975,1.873,1.3.576.311,8.793,4.6,9.22,4.831.194.106.413.264.639.383-1.257,2.616-1.958,4.3-2,7.133-20.145-11.8-16.151-9.57-18.192-10.6.016-.03,23.477-49.065,23.5-49.09.1.055,28.067,14.878,29.138,15.235-2.038,3.785-18.571,37.674-18.571,37.832-.164.329.329.625.494.3,0-.016.016-.016.016-.033-.082.1,0,0,.017-.032.064-.13.173-.321.2-.362,3.119-5.315,4.877-9.438,6.409-12.572,1.741-3.534,11.225-22.942,11.947-24.487a13.781,13.781,0,0,0,2.334,0c.937-.033,6.278-.312,8.02-.411C193.522,43.9,179.378,71.671,177.069,76.206Z" fill="#191919"></path><path d="M128.468,69.682c-.517-.4-1.729-.429-1.988.115a.3.3,0,0,0,.115.41c.394.3,1.051-.131,1.4.231.3.3-.157,1.143-.378,1.511a12.492,12.492,0,0,1-2.646,2.614c-.2.18.049.476.279.361a7.741,7.741,0,0,0,3.385-3.024C128.961,71.193,129.193,70.239,128.468,69.682Z" fill="#191919"></path><path d="M128.731,62.943a.439.439,0,0,0,.058.855.143.143,0,0,1,.135.133,6.955,6.955,0,0,1-1.409,2.579c-.181.213.066.608.312.411a5.365,5.365,0,0,0,1.627-1.907,2.482,2.482,0,0,0,.378-1.3C129.75,63.239,129.269,62.734,128.731,62.943Z" fill="#191919"></path><path d="M130.49,57.7a.287.287,0,0,0-.526.214c0,2.051-.424,1.375-.543,2.153a.247.247,0,0,0,.247.312C130.508,60.4,131.133,58.633,130.49,57.7Z" fill="#191919"></path><path d="M126.447,76.518a2.646,2.646,0,0,0-2.17.9c-.18.247.2.46.395.312a2.489,2.489,0,0,1,1.019-.394c1.449-.322,1.53.66.887,1.808a4.848,4.848,0,0,1-1.479,1.627c-1.43,1-1.784.938-2.005,1.38a.286.286,0,0,0,.247.427,2.207,2.207,0,0,0,1.117-.41C128.318,80.15,128.443,76.669,126.447,76.518Z" fill="#191919"></path><path d="M86.167,58.441A31.862,31.862,0,0,0,83.553,61.2a17.52,17.52,0,0,0-3.878,5.357c-2.082,5.465,1.753,12.379-1.972,20.822a20.22,20.22,0,0,1-1.824,3.106c-.214.313.263.674.526.411,2.971-3,3.927-8.214,3.927-12.457,0-3.585-.79-7.589-.1-10.485.552-2.395,2.1-4.025,3.763-5.818.477-.509.953-1.035,1.43-1.545a11.831,11.831,0,0,0,1.4-1.627C87.07,58.523,86.5,58.178,86.167,58.441Z" fill="#191919"></path><path d="M108.205,66.263a8.462,8.462,0,0,0-4.848-.674A16.618,16.618,0,0,0,98.3,67.151c-4.838,2.226-7.956,4.767-10.781,2.7-.411-.312-.854.345-.526.69,1.1,1.2,2.958,1.216,4.421.822,4.192-1.11,9.091-5.563,14.4-4.848a5.143,5.143,0,0,1,2.235.739c.691.493.526,1.3.181,1.956a7.608,7.608,0,0,1-2.892,2.744c-3.059,1.973-4.4,2.764-6.557,6.558a22.488,22.488,0,0,1-3.09,4.519,21.207,21.207,0,0,1-4.026,3.336.269.269,0,0,0,.279.46,16.252,16.252,0,0,0,6.919-6.639c2.2-3.8,2.659-4.767,6.574-7.231a10.636,10.636,0,0,0,3.237-2.745C109.7,68.692,109.837,67.117,108.205,66.263Z" fill="#191919"></path><path d="M102.7,86.74c-.726.454-.577.881-2.448,2.465-2.381,1.955-6.343,4.074-6.64,7.56-.016.3.395.312.493.066a11.052,11.052,0,0,1,4.257-5.078c1.241-.893,4.646-3.215,4.815-4.733A.325.325,0,0,0,102.7,86.74Z" fill="#191919"></path><path d="M132.823,32.491c-.422-1.367-1.49-1.466-2.416-1.775-12.929-4.112-26.192-7.187-28.546-7.839-2.189-.625-3.533-.956-4.6,1.117,0,.022-12.065,41.623-12.1,41.727,2.656,3.289,4.86,3.4,8.546,1.857,2.366-.986,4.519-2.4,7-3.123a12.142,12.142,0,0,1,6.672-.328c2.5.713,3.976,2.548,3.484,5.111-.477,2.432-2.449,3.977-4.47,5.16a2.867,2.867,0,0,1,.559,3.632,3.409,3.409,0,0,1-2.646,1.561,2.939,2.939,0,0,1-2.827-.986c-.784,1.238-1.126,2.208-1.955,3.369.87.247,10.287,2.646,15.119,3.83a3.117,3.117,0,0,0,3.714-2.088c1.212-3.846,13.424-43.114,14.413-48.333A5.83,5.83,0,0,0,132.823,32.491Zm-7.017,5.8c-1.657,7.169-3.712,13.921-6.344,22.252a.48.48,0,0,1-.575.329c-4.677-1.123-7.445-1.945-13.263-3.8-1.725-.553-8.394-2.767-9.022-2.893a.466.466,0,0,1-.69-.427c0-.564,5.921-21.732,6.13-22.449a.437.437,0,0,1,.345-.329.331.331,0,0,1,.378-.2c4.031,1.019,19.85,5.626,22.811,7A.412.412,0,0,1,125.806,38.292Z" fill="#f26333"></path></svg>