<svg width="28" height="28" viewBox="0 0 28 28" fill="none" xmlns="http://www.w3.org/2000/svg">
    <path
        d="M18.5063 2.33333C22.235 2.33333 24.4645 4.57333 24.4995 8.32066V19.5895C24.4995 23.3893 22.2642 25.6667 18.5063 25.6667H9.49384C9.01318 25.6667 8.55701 25.6293 8.12768 25.5558L7.87334 25.508C5.10718 24.9328 3.49951 22.8142 3.49951 19.5895V8.4105C3.49951 8.02083 3.52285 7.6475 3.56951 7.2905C3.97668 4.158 6.12918 2.33333 9.49384 2.33333H18.5063ZM18.4958 4.03316H9.49384C6.62851 4.03316 5.17601 5.50666 5.17601 8.4105V19.5895C5.17601 22.4933 6.62851 23.9668 9.49384 23.9668H18.4958C21.36 23.9668 22.8032 22.4933 22.8032 19.5895V8.4105C22.8032 5.50666 21.36 4.03316 18.4958 4.03316ZM18.1913 18.095C18.651 18.095 19.0232 18.473 19.0232 18.9397C19.0232 19.4063 18.651 19.7843 18.1913 19.7843H9.77851C9.31884 19.7843 8.94551 19.4063 8.94551 18.9397C8.94551 18.473 9.31884 18.095 9.77851 18.095H18.1913ZM18.1913 13.1495C18.5122 13.1145 18.826 13.2685 18.9975 13.545C19.169 13.8238 19.169 14.1762 18.9975 14.455C18.826 14.7315 18.5122 14.8855 18.1913 14.8505H9.77851C9.35151 14.8015 9.02834 14.4363 9.02834 14C9.02834 13.5637 9.35151 13.1973 9.77851 13.1495H18.1913ZM12.9892 8.21566C13.4162 8.2635 13.7393 8.62983 13.7393 9.06616C13.7393 9.50133 13.4162 9.86766 12.9892 9.9155H9.78901C9.36084 9.86766 9.03768 9.50133 9.03768 9.06616C9.03768 8.62983 9.36084 8.2635 9.78901 8.21566H12.9892Z"
        fill="#5C616F" />
</svg>