<svg width="28" height="22" viewBox="0 0 16 16" fill="none" xmlns="http://www.w3.org/2000/svg">
    <g clip-path="url(#clip0_209_613)">
        <path
            d="M4.50084 3.66665C4.13284 3.66665 3.83418 3.36799 3.83418 2.99999V0.666651C3.83418 0.298651 4.13284 -1.52588e-05 4.50084 -1.52588e-05C4.86884 -1.52588e-05 5.1675 0.298651 5.1675 0.666651V2.99999C5.1675 3.36799 4.86884 3.66665 4.50084 3.66665Z"
            fill="#5C616F" />
        <path
            d="M7.66667 3.66665C7.29867 3.66665 7 3.36799 7 2.99999V0.666651C7 0.298651 7.29867 -1.52588e-05 7.66667 -1.52588e-05C8.03468 -1.52588e-05 8.33335 0.298651 8.33335 0.666651V2.99999C8.33335 3.36799 8.03468 3.66665 7.66667 3.66665Z"
            fill="#5C616F" />
        <path
            d="M10.8325 3.66665C10.4645 3.66665 10.1658 3.36799 10.1658 2.99999V0.666651C10.1658 0.298651 10.4645 -1.52588e-05 10.8325 -1.52588e-05C11.2005 -1.52588e-05 11.4992 0.298651 11.4992 0.666651V2.99999C11.4992 3.36799 11.2005 3.66665 10.8325 3.66665Z"
            fill="#5C616F" />
        <path
            d="M12.1662 1.49998H3.16624C2.15491 1.49998 1.33291 2.32198 1.33291 3.33332V14.1667C1.33291 15.178 2.15491 16 3.16624 16H12.1662C13.1776 16 13.9996 15.178 13.9996 14.1667V3.33332C13.9996 2.32198 13.1776 1.49998 12.1662 1.49998ZM4.66624 5.33332H7.99957C8.36757 5.33332 8.66624 5.63198 8.66624 5.99998C8.66624 6.36798 8.36757 6.66665 7.99957 6.66665H4.66624C4.29824 6.66665 3.99957 6.36798 3.99957 5.99998C3.99957 5.63198 4.29824 5.33332 4.66624 5.33332ZM11.3329 12H4.66624C4.29824 12 3.99957 11.7013 3.99957 11.3333C3.99957 10.9653 4.29824 10.6667 4.66624 10.6667H11.3329C11.7009 10.6667 11.9996 10.9653 11.9996 11.3333C11.9996 11.7013 11.7009 12 11.3329 12ZM11.3329 9.33332H4.66624C4.29824 9.33332 3.99957 9.03465 3.99957 8.66665C3.99957 8.29865 4.29824 7.99998 4.66624 7.99998H11.3329C11.7009 7.99998 11.9996 8.29865 11.9996 8.66665C11.9996 9.03465 11.7009 9.33332 11.3329 9.33332Z"
            fill="#5C616F" />
    </g>
    <defs>
        <clipPath id="clip0_209_613">
            <rect width="16" height="16" fill="white" />
        </clipPath>
    </defs>
</svg>