<svg width="28" height="22" viewBox="0 0 20 20" fill="none" xmlns="http://www.w3.org/2000/svg">
    <g clip-path="url(#clip0_114_5765)">
        <path
            d="M5.18867 3.90236C5.01902 3.73326 4.78504 3.63631 4.5457 3.63631C4.30633 3.63631 4.0723 3.73326 3.90265 3.90236C3.73355 4.07205 3.6366 4.30599 3.6366 4.54541C3.6366 4.78482 3.73355 5.01873 3.90265 5.18846C4.07175 5.35756 4.30629 5.45451 4.5457 5.45451C4.78504 5.45451 5.01902 5.35756 5.18867 5.18846C5.35778 5.01877 5.45481 4.78482 5.45481 4.54541C5.45481 4.30599 5.35778 4.07205 5.18867 3.90236Z"
            fill="#5C616F" />
        <path
            d="M8.18184 0H0.909102C0.407031 0 0 0.407031 0 0.909102V8.18184C0 8.68391 0.407031 9.09094 0.909102 9.09094H8.18184C8.68391 9.09094 9.09094 8.68391 9.09094 8.18184V0.909102C9.0909 0.407031 8.68387 0 8.18184 0ZM7.27273 7.27273H1.81816V1.81816H7.2727V7.27273H7.27273Z"
            fill="#5C616F" />
        <path
            d="M16.0968 3.90236C15.9277 3.73326 15.6937 3.63631 15.4544 3.63631C15.215 3.63631 14.9804 3.73326 14.8113 3.90236C14.6422 4.07205 14.5453 4.30599 14.5453 4.54541C14.5453 4.78482 14.6422 5.01873 14.8113 5.18846C14.9804 5.35756 15.215 5.45451 15.4544 5.45451C15.6937 5.45451 15.9277 5.35756 16.0968 5.18846C16.2665 5.01877 16.3635 4.78482 16.3635 4.54541C16.3635 4.30599 16.2664 4.07205 16.0968 3.90236Z"
            fill="#5C616F" />
        <path
            d="M19.0914 0H11.8187C11.3166 0 10.9096 0.407031 10.9096 0.909102V8.18184C10.9096 8.68391 11.3166 9.09094 11.8187 9.09094H19.0914C19.5935 9.09094 20.0005 8.68391 20.0005 8.18184V0.909102C20.0005 0.407031 19.5935 0 19.0914 0ZM18.1823 7.27273H12.7278V1.81816H18.1823V7.27273H18.1823Z"
            fill="#5C616F" />
        <path
            d="M5.18867 14.8115C5.01899 14.6424 4.78504 14.5455 4.5457 14.5455C4.30633 14.5455 4.0723 14.6424 3.90265 14.8115C3.73355 14.9812 3.6366 15.2152 3.6366 15.4546C3.6366 15.694 3.73355 15.9279 3.90265 16.0976C4.07175 16.2667 4.30629 16.3637 4.5457 16.3637C4.78504 16.3637 5.01902 16.2667 5.18867 16.0976C5.35778 15.9279 5.45481 15.694 5.45481 15.4546C5.45481 15.2152 5.35778 14.9812 5.18867 14.8115Z"
            fill="#5C616F" />
        <path
            d="M8.18184 10.9091H0.909102C0.407031 10.9091 0 11.3161 0 11.8182V19.0909C0 19.593 0.407031 20 0.909102 20H8.18184C8.68391 20 9.09094 19.593 9.09094 19.0909V11.8182C9.0909 11.3161 8.68387 10.9091 8.18184 10.9091ZM7.27273 18.1818H1.81816V12.7273H7.2727V18.1818H7.27273Z"
            fill="#5C616F" />
        <path
            d="M16.0603 14.5455H15.4543C14.9522 14.5455 14.5452 14.9525 14.5452 15.4546C14.5452 15.9566 14.9522 16.3637 15.4543 16.3637H16.0603C16.5624 16.3637 16.9694 15.9566 16.9694 15.4546C16.9694 14.9525 16.5624 14.5455 16.0603 14.5455Z"
            fill="#5C616F" />
        <path
            d="M19.09 16.3636C18.5879 16.3636 18.1809 16.7707 18.1809 17.2727V18.1818H16.0597C15.5576 18.1818 15.1506 18.5889 15.1506 19.0909C15.1506 19.593 15.5576 20 16.0597 20H19.09C19.5921 20 19.9991 19.593 19.9991 19.0909V17.2727C19.9991 16.7707 19.5921 16.3636 19.09 16.3636Z"
            fill="#5C616F" />
        <path
            d="M11.8187 14.5455C11.3166 14.5455 10.9096 14.9525 10.9096 15.4546V16.6667C10.9096 17.1688 11.3166 17.5758 11.8187 17.5758C12.3207 17.5758 12.7278 17.1688 12.7278 16.6667V15.4546C12.7278 14.9525 12.3207 14.5455 11.8187 14.5455Z"
            fill="#5C616F" />
        <path
            d="M16.0615 10.9091H14.2434C13.7413 10.9091 13.3343 11.3161 13.3343 11.8182C13.3343 12.3203 13.7413 12.7273 14.2434 12.7273H16.0615C16.5636 12.7273 16.9706 12.3203 16.9706 11.8182C16.9706 11.3161 16.5636 10.9091 16.0615 10.9091Z"
            fill="#5C616F" />
    </g>
    <defs>
        <clipPath id="clip0_114_5765">
            <rect width="20" height="20" fill="white" />
        </clipPath>
    </defs>
</svg>