<svg height="512" viewBox="0 0 64 64" width="512" xmlns="http://www.w3.org/2000/svg" id="fi_8994380"><g id="Flat"><path d="m29.28 31.19c-.094-.026-.187-.049-.28-.071-.125-.03-.249-.056-.37-.079-2.5-.41-4.02-.01-5.56-.59-1.58-.58-3.31-.6-4.96-.26l-.56.11c-1.36.28-2.6.91-3.74 1.72-.67.48-1.45.87-2.31 1.14-1.98.6-2.84.09-4.4-.73-1.25-.66-3.59-1.47-4.03-2.93-.59-1.93.17-3.22 1.71-4.67 1.62-1.53 1.33-2.48 3.25-3.06.85-.26 1.72-.38 2.55-.35 1.39.03 2.77-.13 4.06-.66l.26-.11c1.77-.72 3.34-1.93 4.36-3.55.53-.84 1.23-1.55 2.24-2.56 1.04-1.03 1.59-3.24 2.96-4.01 1.14-.64 3.46-1.06 4.78-1.46 1.93-.59 3.46-2.59 5.45-2.7 2.27-.13 4.98 1.7 6.97 2.28 1.34.4 2.8-1.11 4.33.49 1.44 1.5 3.93 2.6 4.61 4.82.12.4.2.8.25 1.19.15-.15-2.85 10.85-2.85 10.85l-17 5z" fill="#ea9228"></path><g fill="#ce8024"><path d="m26.457 26.43c-.272 0-.545-.111-.742-.33-.37-.41-.338-1.042.072-1.412l.461-.416c1.035-.937 2.551-1.104 3.767-.418l.688.39c.281.157.607.202.921.12.528-.136 1.08.185 1.218.72.138.534-.185 1.08-.72 1.218-.815.212-1.669.098-2.403-.316l-.687-.39c-.466-.262-1.045-.197-1.442.16l-.462.417c-.191.173-.431.258-.67.258z"></path><path d="m7.282 28.701c-.234 0-.469-.081-.658-.247-.416-.363-.458-.995-.095-1.411l.408-.467c.656-.751 1.605-1.155 2.6-1.104.552.027.977.497.949 1.049-.027.551-.478.975-1.049.949-.378-.013-.743.135-.994.422l-.408.467c-.198.227-.475.342-.753.342z"></path><path d="m24.923 17.486c-.354 0-.698-.188-.88-.522-.264-.485-.084-1.093.401-1.356.333-.181.692-.301 1.067-.356l.78-.116c.319-.047.604-.215.801-.471.338-.438.965-.521 1.402-.182.438.337.519.965.182 1.402-.515.668-1.257 1.104-2.09 1.229l-.781.116c-.144.021-.279.066-.406.136-.151.082-.315.121-.477.121z"></path><path d="m35.145 15.167c-.312 0-.621-.146-.815-.42-.32-.45-.215-1.074.234-1.395.207-.147.361-.352.447-.591l.094-.259c.444-1.234 1.578-2.074 2.889-2.14l2.108-.104c.571-.042 1.021.397 1.049.949s-.397 1.021-.949 1.049l-2.108.104c-.502.024-.937.347-1.107.82l-.093.258c-.224.623-.628 1.157-1.169 1.542-.176.125-.379.186-.579.186z"></path><path d="m16.795 26.625c-.392 0-.763-.231-.923-.615-.213-.51.028-1.096.538-1.308.235-.098.432-.263.569-.478l.146-.23c.638-.993 1.76-1.551 2.938-1.487.551.035.969.511.934 1.062s-.501.96-1.062.934c-.449-.035-.881.189-1.125.57l-.146.229c-.358.56-.872.99-1.484 1.245-.126.053-.256.077-.385.077z"></path></g><path d="m39 41.05c-.59.12-1.15.18-1.75.12-1.67-.17-3.36.24-4.87.98l-.51.25c-1.24.61-2.29 1.54-3.19 2.6-.53.64-1.19 1.21-1.95 1.68-1.77 1.08-2.73.8-4.45.39-1.37-.32-3.83-.52-4.63-1.82-1.06-1.72-.63-3.16.49-4.95 1.19-1.89.67-2.73 2.38-3.78.76-.47 1.57-.79 2.38-.98 1.35-.31 2.66-.82 3.77-1.65l.22-.16c1.54-1.15 2.75-2.71 3.34-4.54.3-.94.8-1.81 1.53-3.03.75-1.27.72-3.54 1.86-4.63.94-.9 3.08-1.89 4.26-2.61 1.73-1.05 2.71-3.37 4.6-3.98 2.16-.69 5.25.4 7.32.47 1.4.05 2.43-1.78 4.32-.6 1.76 1.09 4.45 1.53 5.67 3.51 1.55 2.54 1.15 5.57 1.06 7.49-.07 1.51-1.09 3.35-1.79 4.74-.91 1.83-.22 3.47-2.26 5.88-.4.47-1.05.77-1.8 1.01h-.01z" fill="#f9ae41"></path><path d="m49.198 34.989c-.058 0-.115-.005-.174-.015-.544-.096-.907-.614-.812-1.158l.107-.611c.242-1.377 1.334-2.44 2.716-2.646l.78-.116c.318-.048.604-.215.802-.472.335-.437.965-.52 1.402-.18.438.337.518.965.18 1.402-.515.666-1.256 1.102-2.088 1.228l-.782.116c-.529.078-.947.485-1.039 1.013l-.107.611c-.086.485-.508.827-.984.827z" fill="#e59225"></path><path d="m20.807 44.148c-.058 0-.115-.005-.174-.015-.544-.097-.908-.615-.812-1.158l.108-.61c.171-.981.772-1.816 1.649-2.291.487-.261 1.094-.081 1.355.404.263.486.081 1.093-.404 1.355-.336.182-.565.501-.631.876l-.107.611c-.086.485-.508.827-.984.827z" fill="#e59225"></path><path d="m29.923 39.486c-.354 0-.698-.188-.88-.522-.264-.485-.084-1.093.401-1.356.333-.181.692-.301 1.067-.356l.78-.116c.319-.047.604-.215.801-.471.338-.438.965-.521 1.402-.182.438.337.519.965.182 1.402-.515.668-1.257 1.104-2.09 1.229l-.781.116c-.144.021-.279.066-.406.136-.151.082-.315.121-.477.121z" fill="#e59225"></path><path d="m48.596 21.98c-.439 0-.842-.292-.964-.736-.146-.533.168-1.083.701-1.229.245-.066.461-.205.625-.401l.175-.208c.842-1.007 2.199-1.403 3.451-1.015l2.015.63c.527.164.821.725.656 1.252-.164.526-.729.821-1.252.656l-2.015-.629c-.484-.149-1 .004-1.322.389l-.175.209c-.427.51-.991.872-1.631 1.047-.088.023-.177.035-.265.035z" fill="#e59225"></path><path d="m38.556 31.11c-.115 0-.232-.02-.347-.062-.519-.191-.783-.767-.591-1.284.088-.238.101-.494.037-.74l-.068-.266c-.329-1.271.135-2.604 1.182-3.396l1.684-1.273c.441-.335 1.067-.247 1.4.193.334.44.247 1.067-.193 1.4l-1.684 1.274c-.401.304-.579.814-.453 1.302l.068.265c.167.643.133 1.312-.098 1.935-.149.404-.531.653-.938.653z" fill="#e59225"></path><path d="m12 41c0 2.045-5.185 1.948-5.185 1.948-1.055 0 0-1.292 0-2.045 0-.404-1.274-1.363-.637-2.045s3.335-.913 3.822-.858c1.274.142 2 2.318 2 3z" fill="#ea9228"></path><path d="m12.22 53.6c-1.938-.65-.925-3.67-.925-3.67.336-1 1.225.411 1.938.65.383.128 1.698-.774 2.141.046s-.655 1.951-.811 2.415c-.203.604-1.698.774-2.344.557z" fill="#f9ae41"></path><path d="m11.774 13.86c1.269 3.201-3.179 3.677-4.129 2.663-.835 0 0-1.167 0-1.847 0-.365-1.008-1.231-.504-1.847s1.629 0 2.016 0c.504 0 2.395.47 2.617 1.031z" fill="#ea9228"></path><path d="m31.533 54.031c-3.156-1.377-.336-4.848 1.053-4.799.592-.588.822.828 1.302 1.31.257.259 1.583.163 1.659.955s-1.156 1.148-1.43 1.421c-.358.355-2.03 1.354-2.583 1.113z" fill="#f9ae41"></path><path d="m61 41-.06.4v.01l-1.69 11.87c-.15.99-.99 1.72-1.98 1.72h-14.54c-.99 0-1.83-.73-1.98-1.72l-1.69-11.87v-.01l-.06-.4z" fill="#f2f2f2"></path><path d="m51 49v6h-2v-6c0-.55.45-1 1-1s1 .45 1 1z" fill="#d8d8d8"></path><path d="m47 55h-2.02l-.97-5.84c-.09-.54.28-1.06.83-1.15.54-.09 1.06.28 1.15.83l1 6c.01.05.01.11.01.16z" fill="#d8d8d8"></path><path d="m55.99 49.16-.97 5.84h-2.02c0-.05 0-.11.01-.16l1-6c.09-.55.61-.92 1.15-.83.55.09.92.61.83 1.15z" fill="#d8d8d8"></path><path d="m61 41c0 .53-.29 1.04-.81 1.5-1.64 1.47-5.58 2.5-10.19 2.5s-8.55-1.03-10.19-2.5c-.52-.46-.81-.97-.81-1.5 0-2.21 4.92-4 11-4s11 1.79 11 4z" fill="#cecece"></path><path d="m60.19 42.5c-1.64 1.47-5.58 2.5-10.19 2.5s-8.55-1.03-10.19-2.5c1.64-1.47 5.58-2.5 10.19-2.5s8.55 1.03 10.19 2.5z" fill="#d1303d"></path></g><g id="Outline"><path d="m52.617 29.972c-.198.257-.483.424-.802.472l-.78.116c-1.382.205-2.474 1.269-2.716 2.646l-.107.611c-.095.544.269 1.062.812 1.158.059.01.116.015.174.015.477 0 .898-.342.984-.827l.107-.611c.092-.527.51-.935 1.039-1.013l.782-.116c.832-.126 1.573-.562 2.088-1.228.338-.438.258-1.065-.18-1.402-.438-.34-1.067-.257-1.402.18z"></path><path d="m21.578 40.074c-.877.475-1.479 1.31-1.649 2.291l-.108.61c-.096.543.269 1.062.812 1.158.059.01.116.015.174.015.477 0 .898-.342.984-.827l.107-.611c.065-.375.295-.694.631-.876.485-.263.667-.869.404-1.355-.262-.485-.868-.665-1.355-.404z"></path><path d="m9.537 25.473c-.995-.052-1.943.353-2.6 1.104l-.408.467c-.363.416-.321 1.048.095 1.411.189.166.424.247.658.247.278 0 .555-.115.753-.342l.408-.467c.251-.287.616-.435.994-.422.571.025 1.021-.398 1.049-.949.027-.552-.397-1.021-.949-1.049z"></path><path d="m32.093 36.664c-.197.256-.481.424-.801.471l-.78.116c-.375.056-.734.176-1.067.356-.485.264-.665.871-.401 1.356.182.334.525.522.88.522.161 0 .325-.039.477-.121.127-.069.263-.114.406-.136l.781-.116c.833-.124 1.575-.561 2.09-1.229.337-.438.256-1.065-.182-1.402-.438-.339-1.064-.256-1.402.182z"></path><path d="m26.587 17.113c.833-.124 1.575-.561 2.09-1.229.337-.438.256-1.065-.182-1.402-.438-.339-1.064-.256-1.402.182-.197.256-.481.424-.801.471l-.78.116c-.375.056-.734.176-1.067.356-.485.264-.665.871-.401 1.356.182.334.525.522.88.522.161 0 .325-.039.477-.121.127-.069.263-.114.406-.136l.781-.116z"></path><path d="m48.596 21.98c.088 0 .177-.012.265-.035.64-.175 1.204-.537 1.631-1.047l.175-.209c.322-.385.838-.538 1.322-.389l2.015.629c.523.165 1.088-.13 1.252-.656.165-.527-.129-1.088-.656-1.252l-2.015-.63c-1.252-.389-2.609.008-3.451 1.015l-.175.208c-.164.196-.38.335-.625.401-.533.146-.847.695-.701 1.229.122.444.524.736.964.736z"></path><path d="m38.556 31.11c.406 0 .788-.249.938-.653.23-.623.265-1.292.098-1.935l-.068-.265c-.126-.487.052-.998.453-1.302l1.684-1.274c.44-.333.527-.96.193-1.4-.333-.44-.959-.528-1.4-.193l-1.684 1.273c-1.047.792-1.511 2.126-1.182 3.396l.068.266c.063.246.051.502-.037.74-.192.518.072 1.093.591 1.284.114.043.231.062.347.062z"></path><path d="m35.145 15.167c.2 0 .403-.061.579-.186.541-.385.945-.919 1.169-1.542l.093-.258c.171-.474.605-.796 1.107-.82l2.108-.104c.552-.027.977-.497.949-1.049s-.478-.991-1.049-.949l-2.108.104c-1.311.065-2.444.905-2.889 2.14l-.094.259c-.086.239-.24.443-.447.591-.449.32-.555.944-.234 1.395.194.273.503.42.815.42z"></path><path d="m20.064 22.507c-1.179-.063-2.301.494-2.938 1.487l-.146.23c-.138.215-.334.38-.569.478-.51.212-.751.798-.538 1.308.16.384.531.615.923.615.129 0 .259-.024.385-.077.612-.255 1.126-.686 1.484-1.245l.146-.229c.244-.381.676-.605 1.125-.57.562.026 1.027-.383 1.062-.934.035-.552-.383-1.027-.934-1.062z"></path><path d="m57.584 37.05c1.427-1.699 1.681-3.136 1.883-4.291.113-.646.211-1.205.485-1.759l.225-.44c.713-1.396 1.6-3.134 1.672-4.703l.038-.666c.118-1.938.298-4.865-1.245-7.395-.989-1.606-2.692-2.331-4.196-2.972-.663-.282-1.29-.55-1.796-.863-1.242-.776-2.282-.596-3.088-.269-.002-.008-.003-.017-.005-.025-.553-1.804-2.022-2.935-3.319-3.933-.57-.439-1.109-.854-1.523-1.286-1.349-1.409-2.773-1.083-3.718-.864-.429.098-.8.183-1.055.106-.618-.18-1.354-.513-2.134-.864-1.612-.729-3.426-1.562-5.172-1.454-1.406.077-2.525.842-3.607 1.581-.715.488-1.39.95-2.077 1.16-.392.118-.876.238-1.391.367-1.258.313-2.683.669-3.589 1.178-1.052.591-1.669 1.711-2.214 2.699-.325.59-.633 1.147-.964 1.476-1.099 1.099-1.802 1.818-2.38 2.734-.858 1.363-2.239 2.484-3.899 3.161l-.254.106c-1.033.425-2.215.615-3.644.586-.952-.039-1.914.098-2.875.392-1.527.461-2.042 1.216-2.54 1.946-.279.411-.569.836-1.106 1.343-1.5 1.413-2.778 3.08-1.982 5.687.484 1.607 2.293 2.462 3.746 3.147.282.134.547.259.776.379l.153.081c1.047.552 1.94 1.022 3.167 1.022.537 0 1.139-.09 1.845-.304.951-.299 1.823-.73 2.589-1.279 1.152-.817 2.252-1.327 3.353-1.554l.571-.111c1.599-.33 3.124-.255 4.405.216 1.013.382 1.999.405 3.043.43.504.012 1.07.042 1.669.094-.344.359-.713.702-1.127 1.011l-.231.168c-.894.668-2.036 1.165-3.399 1.478-.956.225-1.857.596-2.676 1.102-1.355.832-1.664 1.688-1.962 2.516-.169.469-.344.953-.742 1.586-1.098 1.754-1.917 3.695-.493 6.005.881 1.432 2.848 1.804 4.428 2.103.301.058.582.11.821.166l.161.038c.771.185 1.465.352 2.195.352.847 0 1.74-.224 2.852-.902.854-.527 1.591-1.164 2.186-1.883.923-1.086 1.861-1.854 2.869-2.35l.51-.25c1.464-.716 2.96-1.025 4.329-.883.332.033.662.036 1.009.011l1.606 11.248c.21 1.469 1.486 2.576 2.97 2.576h14.531c1.483 0 2.76-1.107 2.97-2.576l1.685-11.797c.023-.093.028-.191.041-.287l.029-.193c.002-.013-.003-.025-.002-.038.002-.037.013-.072.013-.109 0-1.793-1.808-3.116-4.416-3.95zm2.41 3.918-.021.143c-2.142-1.316-5.815-2.111-9.972-2.111s-7.83.794-9.972 2.111l-.021-.143c.069-1.194 4.034-2.968 9.994-2.968s9.925 1.774 9.994 2.968zm-1.645 1.538c-1.707.806-4.641 1.494-8.348 1.494s-6.641-.687-8.348-1.494c1.697-.826 4.588-1.506 8.348-1.506s6.651.68 8.348 1.506zm-32.541-12.69c-.944-.022-1.689-.04-2.393-.305-1.639-.603-3.545-.706-5.496-.303l-.571.111c-1.388.286-2.734.902-4.121 1.887-.597.428-1.278.764-2.017.996-1.518.459-2.097.158-3.489-.577l-.154-.08c-.25-.133-.542-.271-.854-.418-.979-.463-2.457-1.161-2.686-1.92-.407-1.332-.044-2.253 1.44-3.651.696-.656 1.079-1.219 1.388-1.671.435-.638.614-.902 1.468-1.16.741-.226 1.505-.334 2.236-.306 1.715.027 3.168-.204 4.468-.738l.251-.105c2.064-.84 3.734-2.204 4.828-3.942.464-.735 1.101-1.386 2.099-2.384.532-.527.925-1.239 1.305-1.928.436-.791.887-1.608 1.441-1.92.672-.378 2.015-.713 3.094-.981.549-.137 1.066-.267 1.488-.395.981-.3 1.816-.87 2.624-1.422.895-.611 1.739-1.188 2.592-1.236 1.233-.066 2.833.647 4.235 1.28.846.382 1.644.742 2.391.96.76.229 1.455.066 2.068-.075.899-.207 1.286-.268 1.826.299.52.541 1.145 1.022 1.748 1.487 1.163.895 2.262 1.739 2.625 2.928.014.047.018.1.031.148-.612-.036-1.333-.154-2.108-.289-1.75-.303-3.736-.645-5.391-.118-1.33.429-2.216 1.442-3.073 2.422-.574.657-1.117 1.277-1.741 1.656-.353.215-.795.455-1.264.71-1.135.617-2.422 1.317-3.167 2.031-.876.838-1.191 2.079-1.471 3.174-.034.136-.069.268-.103.399-.226.008-.451-.024-.653-.137l-.688-.39c-1.216-.686-2.731-.519-3.767.418l-.461.416c-.41.37-.442 1.002-.072 1.412.197.219.47.33.742.33.239 0 .479-.085.67-.258l.462-.417c.397-.357.977-.422 1.442-.16l.687.39c.255.144.526.237.803.308-.558.955-.969 1.736-1.242 2.591-.13.402-.297.792-.495 1.17-1.179-.193-2.134-.216-2.977-.236zm6.132 11.437-.511.25c-1.259.618-2.407 1.551-3.52 2.859-.464.561-1.037 1.055-1.699 1.464-1.363.832-1.998.678-3.535.311l-.167-.04c-.27-.063-.579-.122-.909-.185-1.066-.201-2.679-.507-3.097-1.188-.733-1.188-.615-2.135.483-3.892.513-.814.744-1.455.93-1.971.262-.725.37-1.025 1.13-1.492.637-.393 1.338-.682 2.079-.855 1.632-.374 3.026-.988 4.133-1.815l.231-.168c1.042-.778 1.905-1.699 2.574-2.719.003-.004.006-.009.009-.013.472-.722.85-1.493 1.113-2.305.268-.84.741-1.662 1.438-2.825.382-.648.582-1.434.775-2.194.223-.875.453-1.78.916-2.223.552-.529 1.765-1.188 2.739-1.719.501-.272.972-.529 1.347-.759.887-.537 1.559-1.305 2.208-2.047.709-.812 1.378-1.577 2.179-1.835 1.186-.378 2.914-.078 4.438.185.907.157 1.765.306 2.541.332.772.044 1.421-.3 1.979-.59.815-.424 1.174-.58 1.85-.16.638.396 1.365.706 2.068 1.005 1.348.574 2.621 1.116 3.274 2.177 1.213 1.989 1.063 4.438.954 6.227l-.04.696c-.052 1.139-.83 2.662-1.455 3.886l-.231.455c-.406.818-.539 1.576-.667 2.31-.187 1.065-.363 2.073-1.46 3.368-.191.225-.565.431-1.122.628-1.555-.269-3.236-.41-4.916-.41-5.431 0-10.908 1.43-11.845 4.164-.286.028-.553.037-.804.011-1.742-.173-3.612.196-5.412 1.078zm26.315 11.888c-.069.49-.495.859-.989.859h-2.085l.806-4.836c.091-.544-.277-1.06-.822-1.15-.543-.095-1.061.277-1.15.822l-.861 5.164h-2.153v-5c0-.553-.447-1-1-1s-1 .447-1 1v5h-2.153l-.861-5.164c-.091-.545-.606-.917-1.15-.822-.545.091-.913.606-.822 1.15l.806 4.836h-2.085c-.494 0-.92-.369-.989-.859l-1.285-8.996c2.309 1.223 5.933 1.855 9.54 1.855s7.231-.633 9.54-1.855l-1.285 8.996z"></path><path d="m10.109 37.006c-.25-.029-3.596.029-4.661 1.169-.986 1.056-.092 2.286.245 2.75.03.041.06.08.087.117-.039.124-.101.284-.144.396-.222.571-.498 1.283-.06 1.924.183.267.546.586 1.219.586.056 0 .131.002.222.002 1.009 0 4.005-.112 5.307-1.39.441-.434.675-.973.675-1.56 0-.886-.869-3.77-2.891-3.994zm.814 4.126c-.496.488-2.062.739-3.336.802.119-.321.228-.671.228-1.03 0-.462-.256-.814-.504-1.155-.058-.079-.145-.198-.213-.305.649-.271 2.311-.495 2.791-.449.487.054 1.107 1.488 1.11 2.006 0 .024 0 .058-.076.132z"></path><path d="m11.297 48.624c-.312.089-.729.332-.95.987-.46 1.373-.728 4.17 1.555 4.937.306.103.657.142.998.142.307 0 .603-.032.845-.078.929-.176 1.557-.621 1.757-1.224.04-.088.116-.196.197-.322.433-.674 1.157-1.801.556-2.914-.685-1.269-2.136-.812-2.684-.642-.049.016-.096.031-.14.045-.104-.076-.237-.187-.329-.262-.472-.393-1.059-.878-1.805-.669zm.779 2.413c.249.196.525.386.838.49.44.148.854.018 1.256-.109.059-.019.136-.043.215-.065-.106.222-.277.489-.369.632-.132.205-.25.389-.336.576-.257.12-.891.177-1.142.091-.545-.183-.55-.984-.462-1.614z"></path><path d="m9.227 11.833h-.004c-.068-.011-.154-.039-.252-.067-.59-.17-1.821-.524-2.604.43-.793.968-.105 2.046.188 2.507.022.034.044.067.064.099-.031.113-.081.262-.115.363-.186.545-.416 1.224.013 1.822.108.151.328.38.707.483.508.349 1.235.526 1.999.526.84 0 1.724-.214 2.41-.649 1.301-.825 1.701-2.267 1.071-3.854-.514-1.294-3.223-1.659-3.478-1.659zm1.411 3.772c-.729.53-1.988.435-2.254.241.005-.014.01-.027.014-.04.116-.343.248-.731.248-1.131 0-.408-.199-.728-.396-1.035.063.017.122.034.168.047.252.073.49.142.737.142.34.008 1.395.302 1.736.525.293.852-.088 1.13-.254 1.251z"></path><path d="m31.728 55.062c1.271 0 2.906-1.249 3.044-1.39.057-.04.138-.081.227-.13.539-.296 1.662-.911 1.544-2.14-.119-1.245-1.366-1.526-1.898-1.646-.04-.009-.079-.017-.115-.025-.059-.102-.127-.242-.174-.338-.253-.518-.568-1.161-1.293-1.284-.186-.029-.502-.039-.844.155-1.272.231-2.697 1.681-3.041 3.194-.342 1.502.39 2.807 1.957 3.49.182.079.383.113.594.113zm-.618-3.069c.142-.889 1.105-1.71 1.43-1.759.007.013.013.025.019.037.159.325.339.694.62.977.288.29.655.376 1.011.457-.057.032-.11.062-.152.084-.23.127-.448.246-.623.419-.246.234-1.202.77-1.602.852-.809-.397-.734-.862-.702-1.066z"></path></g></svg>