<svg width="185" height="185" viewBox="0 0 185 185" fill="none" xmlns="http://www.w3.org/2000/svg">
<g clip-path="url(#clip0_296_7429)">
<rect width="185" height="185" fill="white"/>
<path opacity="0.163388" fill-rule="evenodd" clip-rule="evenodd" d="M171.023 106.387H155.918C154.025 106.387 152.476 104.838 152.476 102.944V87.8344C152.476 85.9408 154.025 84.3916 155.918 84.3916H171.023C172.916 84.3916 174.465 85.9408 174.465 87.8344V102.944C174.465 104.838 172.916 106.387 171.023 106.387Z" fill="#597EF7"/>
<path fill-rule="evenodd" clip-rule="evenodd" d="M22.2686 93.3016H15.5678C14.7231 93.3016 14.032 92.565 14.032 91.6649V84.4385C14.032 83.5383 14.7231 82.8018 15.5678 82.8018H22.2686C23.1133 82.8018 23.8045 83.5383 23.8045 84.4385V91.6649C23.8045 92.565 23.1133 93.3016 22.2686 93.3016Z" fill="#FFC540"/>
<path fill-rule="evenodd" clip-rule="evenodd" d="M171.114 134.899C170.269 134.899 169.578 134.213 169.578 133.375V126.647C169.578 125.809 170.269 125.124 171.114 125.124H177.815C178.659 125.124 179.351 125.809 179.351 126.647V133.375C179.351 134.213 178.659 134.899 177.815 134.899H171.114Z" fill="#FF7A46"/>
<path opacity="0.49707" fill-rule="evenodd" clip-rule="evenodd" d="M9.89372 61.6843C7.63186 61.6843 5.78125 59.8336 5.78125 57.5718V39.5226C5.78125 37.2608 7.63186 35.4102 9.89372 35.4102H27.9429C30.2047 35.4102 32.0553 37.2608 32.0553 39.5226V57.5718C32.0553 59.8336 30.2047 61.6843 27.9429 61.6843H9.89372Z" fill="#ADC6FF"/>
<path fill-rule="evenodd" clip-rule="evenodd" d="M134.685 14.7383C114.438 14.7383 98.0244 31.1518 98.0244 51.399C98.0244 71.6461 114.438 88.0596 134.685 88.0596C154.932 88.0596 171.346 71.6461 171.346 51.399C171.346 31.1518 154.932 14.7383 134.685 14.7383Z" fill="#0BB8E4"/>
<path fill-rule="evenodd" clip-rule="evenodd" d="M136.182 61.8732H134.873C133.788 61.8732 132.909 60.9939 132.909 59.9092V35.0323C132.909 33.9476 133.788 33.0684 134.873 33.0684H136.182C137.267 33.0684 138.146 33.9476 138.146 35.0323V59.9092C138.146 60.9939 137.267 61.8732 136.182 61.8732Z" fill="white"/>
<path fill-rule="evenodd" clip-rule="evenodd" d="M136.182 69.9243H134.873C133.788 69.9243 132.909 69.045 132.909 67.9603V66.651C132.909 65.5663 133.788 64.687 134.873 64.687H136.182C137.267 64.687 138.146 65.5663 138.146 66.651V67.9603C138.146 69.045 137.267 69.9243 136.182 69.9243Z" fill="white"/>
<path fill-rule="evenodd" clip-rule="evenodd" d="M133.089 103.584C133.089 135.348 107.34 161.097 75.5765 161.097C43.813 161.097 18.0636 135.348 18.0636 103.584C18.0636 71.8207 43.813 46.0713 75.5765 46.0713C107.34 46.0713 133.089 71.8207 133.089 103.584Z" fill="#A3B5D6"/>
<path fill-rule="evenodd" clip-rule="evenodd" d="M73.2265 95.3302C73.2265 102.005 67.8157 107.416 61.1411 107.416C54.4664 107.416 49.0555 102.005 49.0555 95.3302C49.0555 88.6556 54.4664 83.2446 61.1411 83.2446C67.8157 83.2446 73.2265 88.6556 73.2265 95.3302Z" fill="white"/>
<path fill-rule="evenodd" clip-rule="evenodd" d="M102.098 95.3302C102.098 102.005 96.6867 107.416 90.012 107.416C83.3374 107.416 77.9265 102.005 77.9265 95.3302C77.9265 88.6556 83.3374 83.2446 90.012 83.2446C96.6867 83.2446 102.098 88.6556 102.098 95.3302Z" fill="white"/>
<path fill-rule="evenodd" clip-rule="evenodd" d="M66.5124 94.9945C66.5124 97.7756 64.2578 100.03 61.4768 100.03C58.6956 100.03 56.4412 97.7756 56.4412 94.9945C56.4412 92.2135 58.6956 89.959 61.4768 89.959C64.2578 89.959 66.5124 92.2135 66.5124 94.9945Z" fill="#253368"/>
<path fill-rule="evenodd" clip-rule="evenodd" d="M94.7117 94.9945C94.7117 97.7756 92.4573 100.03 89.6762 100.03C86.8951 100.03 84.6405 97.7756 84.6405 94.9945C84.6405 92.2135 86.8951 89.959 89.6762 89.959C92.4573 89.959 94.7117 92.2135 94.7117 94.9945Z" fill="#253368"/>
<path fill-rule="evenodd" clip-rule="evenodd" d="M94.2589 129.573C93.5183 129.573 92.8058 129.163 92.4536 128.455C89.6118 122.741 82.9872 119.049 75.5765 119.049C68.166 119.049 61.5414 122.741 58.6994 128.455C58.2041 129.451 56.9951 129.857 55.9989 129.362C55.0028 128.866 54.5969 127.657 55.0923 126.661C58.6095 119.59 66.65 115.02 75.5765 115.02C84.5032 115.02 92.5437 119.59 96.0608 126.661C96.556 127.657 96.1503 128.866 95.1543 129.362C94.8662 129.505 94.5602 129.573 94.2589 129.573Z" fill="#253368"/>
<g clip-path="url(#clip1_296_7429)">
<path fill-rule="evenodd" clip-rule="evenodd" d="M139.647 117.109C134.558 125.923 137.578 137.193 146.392 142.281C155.205 147.37 166.475 144.35 171.564 135.536C176.653 126.723 173.633 115.452 164.819 110.364C156.005 105.275 144.735 108.295 139.647 117.109Z" fill="#A3B5D6"/>
<path fill-rule="evenodd" clip-rule="evenodd" d="M157.58 124.409C156.511 126.261 157.145 128.629 158.997 129.699C160.849 130.768 163.218 130.133 164.287 128.281C165.356 126.429 164.722 124.061 162.87 122.992C161.017 121.922 158.649 122.557 157.58 124.409Z" fill="white"/>
<path fill-rule="evenodd" clip-rule="evenodd" d="M149.569 119.783C148.5 121.636 149.134 124.004 150.986 125.073C152.838 126.142 155.206 125.508 156.276 123.656C157.345 121.804 156.711 119.435 154.858 118.366C153.006 117.297 150.638 117.931 149.569 119.783Z" fill="white"/>
<path fill-rule="evenodd" clip-rule="evenodd" d="M159.497 125.391C159.051 126.163 159.316 127.15 160.087 127.595C160.859 128.041 161.846 127.776 162.291 127.005C162.737 126.233 162.472 125.246 161.701 124.801C160.929 124.355 159.942 124.62 159.497 125.391Z" fill="#253368"/>
<path fill-rule="evenodd" clip-rule="evenodd" d="M151.672 120.874C151.226 121.645 151.491 122.632 152.262 123.078C153.034 123.523 154.021 123.259 154.466 122.487C154.912 121.715 154.648 120.729 153.876 120.283C153.104 119.838 152.117 120.102 151.672 120.874Z" fill="#253368"/>
<path fill-rule="evenodd" clip-rule="evenodd" d="M146.258 130.541C146.464 130.659 146.727 130.66 146.938 130.52C148.642 129.389 151.072 129.426 153.128 130.613C155.184 131.801 156.431 133.886 156.304 135.927C156.282 136.283 156.552 136.589 156.908 136.611C157.264 136.634 157.57 136.363 157.592 136.007C157.749 133.482 156.25 130.926 153.773 129.496C151.296 128.065 148.333 128.045 146.224 129.444C145.928 129.641 145.846 130.042 146.043 130.339C146.1 130.425 146.174 130.492 146.258 130.541Z" fill="#253368"/>
</g>
</g>
<defs>
<clipPath id="clip0_296_7429">
<rect width="185" height="185" fill="white"/>
</clipPath>
<clipPath id="clip1_296_7429">
<rect width="43.7039" height="43.7039" fill="white" transform="matrix(-0.866025 -0.5 -0.5 0.866025 185.443 118.327)"/>
</clipPath>
</defs>
</svg>
