<svg version="1.1" id="fi_706853" xmlns="http://www.w3.org/2000/svg" xmlns:xlink="http://www.w3.org/1999/xlink" x="0px" y="0px" viewBox="0 0 511.999 511.999" style="enable-background:new 0 0 511.999 511.999;" xml:space="preserve">
<path style="fill:#FF7A49;" d="M463.704,315.268c-5.278-13.262-17.487-14.286-30.123-10.511c0.876-5.31-0.368-10.847-4.503-15.305
	c-7.066-7.615-17.34-7.642-26.256-3.457c-4.487,2.106-9.166,5.167-13.562,8.866c-0.912-0.425-1.846-0.734-2.776-0.883
	c0.651-1.169,1.237-2.301,1.503-2.677c5.038-7.124,9.319-15.346,8.832-24.398c-0.486-9.033-6.838-16.78-15.614-19.123
	c-2.162-0.577-4.172-0.726-6.089-0.594c1.189-4.669,1.235-9.137,0.056-14.119c-1.486-6.276-8.857-10.384-14.984-8.508
	c-6.652,2.037-12.232,5.577-17.574,9.464c-0.497-1.384-1.186-2.795-2.109-4.241c-4.473-7.008-12.482-7.161-18.569-2.393
	c-8.293,6.495-15.786,12.186-22.586,19.648c-1.219-2.846-3.287-5.316-6.16-6.917c-5.182-2.888-11.196-2.03-16.483,0.041
	c-2.892,1.133-6.754,2.847-10.537,5.036c-2.401-3.991-6.018-7.304-9.725-8.621c-12.978-4.611-22.273,8.183-28.684,17.233
	c-0.128,0.18-0.276,0.372-0.433,0.57c-1.749-1.252-3.666-2.22-5.547-2.776c-2.974-0.88-5.946-0.832-8.766-0.108
	c-0.544-6.347-2.275-12.94-6.341-18.428c-10.096-13.629-26.503-9.438-35.563,3.066c-0.279,0.384-0.794,1.092-1.392,1.953
	c-4.599-4.154-10.047-7.48-16.525-7.423c-6.994,0.062-12.785,4.825-14.686,11.463c-0.45,1.57-0.419,3.51-0.282,5.524
	c-2.737-0.665-5.608-0.828-8.867,0.077c-6.474,1.797-12.251,6.53-15.329,12.455c-3.082,5.932-3.594,13.66-1.534,20.279
	c-1.861,1.746-3.702,3.431-5.526,5.02c-2.29,0.61-4.435,0.074-7.979,0.194c-5.487,0.185-10.465,1.872-15.002,4.905
	c-1.877,1.255-3.485,3.634-5.188,4.968c0.293-0.376-2.134,0.46-3.114,0.782c-4.351,1.43-7.931,4.141-10.115,8.326
	c-2.531,4.849-3.323,11.933-1.511,17.704c-3.9,4.166-6.719,9.952-7.605,14.308c-2.603,12.796,10.012,23.342,21.163,26.536
	c15.605,4.469,31.728-2.301,46.902-5.289c18.619-3.666,37.474-4.176,56.376-3.799c8.514,0.17,17.085-0.055,25.58,0.654
	c2.618,0.161,5.219,0.471,7.802,0.928c0.41,0.143,0.759,0.259,1.073,0.361c0.053,1.682,1.039,5.778,1.167,6.242
	c3.403,12.335,12.192,21.904,24.856,24.902c13.143,3.112,27.556-1.273,38.55-8.536c6.163-4.071,11.609-9.038,16.086-14.905
	c2.349-3.077,4.209-6.139,5.881-9.617c0.647-1.495,1.326-2.976,2.037-4.441c0.026-0.034,0.038-0.057,0.063-0.09
	c1.082-0.142,2.166-0.27,3.245-0.441c1.815-0.287,3.302-1.084,4.511-2.172c1.172,0.429,2.822,0.552,3.949,0.81
	c3.09,0.706,6.063,1.369,9.212,1.754c12.297,1.502,24.808,1.525,37.176,1.318c9.518-0.159,19.482-1.229,29.492-2.022
	c9.454,6.545,22.811,6.057,35.042,4.476c5.052-0.232,10.08-0.906,15.037-2.161c0.26-0.066,0.485-0.178,0.732-0.26
	C458.306,347.523,470.473,332.278,463.704,315.268z"></path>
<path style="fill:#FFD45C;" d="M10.456,138.32c1.903,6.985,6.383,11.793,10.966,18.566c6.283,9.287,13.539,18.699,21.162,26.946
	c11.618,12.569,24.935,24.992,39.026,34.732c8.338,5.764,16.603,11.071,25.231,16.16c4.847,2.859,7.992,6.91,12.492,10.099
	c5.254,3.724,11.883,2.268,18.381,1.94c0.788-6.212,0.907-15.225,8.255-17.162c4.74-1.249,6.763,1.359,10.682,3.446
	c2.096,1.116,7.24,5.246,9.157,5.595c5.426,0.988,13.219-12.553,21.655-12.847c7.972-0.278,17.148,6.771,20.046,13.792
	c1.283,3.109,0.303,8.466,2.722,10.462c3.086,2.546,13.097,2.565,17.418,4.265c3.793-6.951,7.351-17.091,16.386-18.285
	c8.809-1.163,14.838,5.192,18.305,12.373c6.973-3.194,9.923-11.858,18.19-12.857c3.018-0.365,23.711,7.376,22.105,10.174
	c5.393-9.395,8.374-22.603,21.506-23.957c10.269-1.059,11.893,7.939,16.298,14.804c7.576-3.266,16.108-16.7,25.738-10.438
	c7.654,4.978,4.747,14.957,4.943,22.255c7.433-1.31,14.155-1.659,20.514,2.813c4.924,3.462,7.432,8.552,11.589,12.304
	c14.986-26.209,43.067-39.869,61.799-63.004c10.691-13.204,20.869-26.818,31.124-40.36c7.475-9.872,16.103-27.81,10.745-40.08
	c-5.333-12.214-17.625-20.713-25.352-31.418c-6.803-9.425-13.73-25.156-25.798-28.337c-11.7-3.084-24.902-1.937-36.842-1.996
	c-29.318-0.145-58.504-2.383-87.826-2.123c-27.038,0.24-54.053-1.043-81.069-1.927c-25.692-0.84-50.767,1.13-76.399,1.383
	c-23.665,0.233-47.191-0.664-70.889-0.065c-15.336,0.388-30.592,0.643-45.902,0.581c-5.071-0.021-12.917-1.517-17.778,0.267
	c-5.396,1.981-6.177,7.893-8.095,12.952c-7.952,20.963-22.184,39.416-21.42,62.539C9.599,134.275,9.928,136.381,10.456,138.32z"></path>
<path style="fill:#EB3840;" d="M66.69,57.768c0.161,7.445,2.087,16.967,6.424,23.149c6.964,9.927,23.64,13.058,34.251,17.763
	c8.296,3.678,19.241,6.224,25.046,13.617c3.488,4.443,2.809,10.144,5.668,14.59c2.483,3.86,5.429,2.526,10.71,2.527
	c13.448,0.001,29.106,3.621,42.257,1.535c3.196-13.333,1.913-25.079-10.715-32.01c-9.423-5.172-19.362-10.442-29.857-13.106
	c-10.358-2.629-20.208-3.59-28.867-10.182c-7.147-5.44-9.791-11.75-10.288-20.492c-5.303-1.794-12.344-0.627-17.856-0.622
	C87.981,54.54,76.509,52.136,66.69,57.768z"></path>
<path style="fill:#F29246;" d="M38.984,172.261c16.575,16.161,33.9,30.635,51.261,45.964c5.8,5.121,10.121,10.604,14.601,16.84
	c1.981,2.757,4.213,7.585,6.86,9.6c6.404,4.877,17.315,2.671,24.917,5.367c0.764-10.179,1.113-22.323,14.859-22.016
	c7.836,0.175,13.769,6.98,18.623,12.213c3.867-10.602,12.117-22.54,24.174-14.82c8.749,5.603,13.229,14.943,13.632,25.057
	c4.477-5.396,13.595,4.391,17.531,6.58c5.333-7.54,8.87-21.257,19.708-22.081c8.485-0.645,14.959,7.835,18.683,14.537
	c8.134-2.829,9.595-14.591,20.303-15.067c8.543-0.38,10.66,7.382,16.852,10.762c5.441-8.625,10.619-18.535,22.342-20.398
	c10.25-1.629,15.02,6.126,18.599,14.053c7.369-2.423,13.938-18.433,24.305-12.406c9.564,5.56,2.558,16.92,3.283,24.646
	c9.673-0.463,16.296-4,24.736,2.746c4.944,3.951,6.288,10.89,12.642,7.798c7.409-3.605,13.932-14.226,18.868-20.444
	c9.405-11.85,18.986-23.849,28.89-35.277c12.29-14.181,27.165-26.706,37.352-42.619c3.178-4.965,15.565-22.901,11.265-29.603
	c-2.686-4.186-13.491-3.381-17.513-3.23c-19.662,0.736-39.236,4.356-58.901,5.437c-25.676,1.412-51.896,0.745-77.62,0.534
	c-10.743-0.088-21.595,0.335-32.278-0.895c-3.293-0.379-6.712-1.119-9.943-0.589c-0.967,9.943,4.559,27.652-7.473,32.612
	c-8.982,3.702-21.025,2.298-30.538,3.18c-13.808,1.281-26.697,1.345-40.56,0.308c-7.817-0.585-23.988-2.172-28.931-9.858
	c-5.41-8.411,4.151-25.253-5.695-28.817c-5.857-2.121-14.181-0.809-20.414-0.809c-16.021,0-32.072-0.803-48.04-0.12
	c-13.697,0.586-27.55,1.099-41.191-0.48c-16.641-1.926-32.507-2.793-49.353-2.047c-4.314,0.191-8.724,1.357-12.976,1.475
	c-1.873,0.052-4.858-0.88-6.547-0.471c-2.642,0.64-3.67,0.513-4.055,3.554c-0.943,7.432,13.285,22.714,17.502,27.893
	C31.9,165.247,35.42,168.786,38.984,172.261z"></path>
<path style="fill:#FFD45C;" d="M9.59,352.427c-2.309,19.932,1.004,40.694,4.848,60.358c1.615,8.26,1.885,28.038,9.659,33.52
	c10.986,7.747,32.222,5.807,44.652,5.78c22.943-0.05,46.005-0.213,68.914,1.076c47.956,2.697,95.387,6.2,143.576,4.863
	c42.757-1.187,84.881-7.033,127.752-6.477c14.355,0.186,28.576,0.683,42.926,0.537c6.971-0.071,16.928,1.427,23.392-1.602
	c9.624-4.509,7.786-26.01,9.267-35.072c2.615-16.002,7.287-34.936,5.547-51.247c-1.45-13.593-21.277-11.607-31.835-12.838
	c-22.977-2.68-46.668-3.378-69.785-3.505c-21.384-0.118-42.625,3.117-64.078,2.991c-4.24-0.025-14.751-2.279-18.609-0.022
	c-4.948,2.894-7.97,13.444-11.735,18.163c-11.017,13.81-30.119,23.654-48.32,18.933c-8.281-2.147-19.078-7.59-24.715-13.964
	c-6.207-7.018-6.942-19.323-17.854-19.254c-13.138,0.083-26.691,2.51-39.905,3.029c-18.312,0.719-36.681,1.384-55.012,1.764
	c-19.949,0.413-40.074,1.45-59.949-0.438c-7.551-0.717-15-1.909-22.236-4.307C21.606,353.226,17.037,349.472,9.59,352.427z"></path>
<path style="fill:#EB3840;" d="M334.954,454.238c-1.603-6.513-3.026-13.653-8.621-18.356c-8.113-6.821-21.861-7.826-31.845-8.969
	c-21.592-2.471-44.211-4.337-65.479-8.755c-15.153-3.148-31.388-9.089-41.009-21.689c-4.419-5.786-6.665-12.173-8.201-19.256
	c-1.339-6.175-4.226-13.065-4.212-19.317c12.318-0.773,24.636-3.902,37.006-3.232c1.475,14.253,13.454,31.638,28.081,34.283
	c13.796,2.495,33.772,1.724,45.145-7.404c9.908-7.953,8.965-23.498,18.064-32.842c2.235,0.767,7.866-0.286,9.546,1.279
	c2.372,2.21,3.03,11.16,4.786,14.487c8.699,16.484,23.442,20.763,40.141,26.353c15.117,5.061,31.527,4.465,45.402,12.635
	c7.923,4.665,13.832,10.882,18.234,18.924c5.43,9.92,8.37,19.59,7.684,31.242c-4.004,0.778-7.985,0.506-12.082,0.578
	c-12.888,0.225-25.619,2.622-38.47,3.21C364.976,458.055,350.739,456.387,334.954,454.238z"></path>
<g>
	<path style="fill:#E8643F;" d="M137.67,330.584c-1.728-0.555-3.5-0.887-5.3-1.079c-0.764-1.844-1.828-3.544-3.147-5.054
		c-4.625-5.292-11.514-6.071-17.791-3.432c-2.369,0.996-4.777,2.467-6.682,4.298c-1.133-1.991-2.8-4.607-3.138-5.219
		c-1.809-3.275-3.903-6.121-6.422-8.892c-5.855-6.442-15.583-3.835-19.962,2.572c-1.705,2.495-3.217,7.002-3.75,11.394
		c-1.372-0.324-2.789-0.466-4.194-0.362c-5.213,0.383-9.345,4.904-7.858,10.315c0.678,2.469,1.499,4.983,2.478,7.444
		c-1.643,4.247-0.837,9.746,2.198,12.986c8.409,8.979,24.208,5.432,35.436,4.934c13.023-0.578,25.478-2.381,38.132-5.367
		C149.969,352.219,149.612,333.693,137.67,330.584z"></path>
	<path style="fill:#E8643F;" d="M229.253,346.016c-1.772-6.856-6.866-12.758-13.58-15.194c-3.517-1.276-7.445-1.73-11.094-0.705
		c-3.192-4.731-8.682-7.657-14.533-7.619c-1.98,0.013-3.788,0.375-5.497,0.95c0.129-0.647,0.222-1.257,0.252-1.807
		c0.259-4.712-0.359-9.212-2.752-13.346c-5.233-9.044-15.7-14.104-25.786-14.881c-3.199-0.246-6.102,1.769-7.731,4.516
		c2.881-7.046,8.31-11.631,16.352-13.186c4.523-0.874,9.037,0.221,13.356-1.173c2.524,2.95,6.37,4.822,11.187,4.861
		c5.895,0.047,10.275-7.901,6.148-12.434c-3.916-7.17,4.869-13.841,10.415-18.966c6.358-5.875-0.39-15.489-8.028-13.79
		c-7.809,1.737-14.784,6.243-20.124,12.174c-2.673,2.969-4.863,6.18-6.413,9.856c-0.009,0.023-0.018,0.056-0.028,0.079
		c-0.239-0.154-0.443-0.326-0.705-0.467c-3.921-2.103-7.459-2.57-11.747-1.262c-3.995,1.219-7.112,4.702-10.851,4.154
		c-4.287-0.629-7.643-4.02-12.454-4.14c-5.726-0.143-11.503,2.068-16.296,4.999c-6.938,4.243-6.773,17.411,2.474,18.927
		c7.344,1.204,12.313,2.561,13.324,10.859c0.799,6.563,9.439,8.816,12.205,2.595c-0.405,2.027-0.118,4.137,1.171,5.895
		c4.035,5.503,10.909,9.465,14.366,15.24c1.107,1.849,1.736,3.874,2.033,5.994c-1.901,5.367-2.978,10.199-1.702,15.866
		c-0.275,1.174-0.548,2.32-0.794,3.415c-1.016,4.53,4.21,7.612,7.673,4.554c2.06,0.731,4.35,0.913,6.588,0.432
		c3.378-0.725,6.004-2.266,8.901-4.072c0.149-0.106,0.309-0.196,0.458-0.3c1.883,2.802,4.232,5.281,5.328,5.923
		c5.456,3.2,12.988,2.609,18.198-0.936c1.373,1.713,3.364,3.012,5.095,4.206C222.078,362.349,231.294,353.914,229.253,346.016z"></path>
	<path style="fill:#E8643F;" d="M264.662,368.431c-0.727-0.449-1.583-0.835-2.352-1.208c-2.105-1.018-3.786-1.667-6.072-1.979
		c-0.348-0.047-1.399-0.159-2.514-0.254c-1.358-8.627-11.247-11.065-17.896-5.885c-1.775,1.384-3.379,2.219-5.54,2.802
		c-11.766,3.178-6.005,20.328,4.057,18.195c0.696-0.029,1.39-0.078,2.083-0.148c2.397,3.247,5.989,5.57,10.924,6.523
		c1.322,0.185,2.647,0.356,3.972,0.522c1.232,0.801,3.206,2,3.359,2.087c5.775,3.315,11.87,4.024,17.467-0.133
		C281.348,382.121,276.847,365.889,264.662,368.431z"></path>
	<path style="fill:#E8643F;" d="M338.794,328.811c-0.517-9.385-9.516-15.576-18.118-12.221c-3.554-3.219-9.003-4.332-13.468-2.254
		c-3.388-2.516-8.046-3.229-12.59-0.722c-0.719,0.396-1.508,0.894-2.326,1.46c-4.333-4.348-11.596-5.374-16.807-0.38
		c-3.13-1.678-7.096-1.74-10.657,0.008c-1.934,0.949-3.513,2.227-5.302,3.379c-1.059-1.649-2.203-3.266-4.169-4.611
		c-2.68-1.834-6.479-1.5-9.189,0c-11.138,6.167-2.187,17.158,2.879,23.758c1.207,1.572,3.432,2.386,5.177,1.675
		c0.242,0.089,0.471,0.181,0.735,0.262c2.463,0.754,4.648,0.807,6.692,0.444c0.278,0.762,0.611,1.538,1.076,2.349
		c2.491,4.348,7.59,6.207,12.167,5.229c1.718,1.641,4.166,2.893,7.732,3.544c3.248,0.593,5.893,0.319,8.177-0.493
		c2.58,2.415,6.19,3.541,10.516,2.523c2.666-0.627,4.931-1.758,6.932-3.279c2.771,1.234,5.901,1.59,8.552,0.684
		c1.022-0.349,1.944-0.784,2.827-1.25c7.092,3.616,17.568-1.348,18.625-11.035C338.596,334.738,338.968,331.976,338.794,328.811z"></path>
	<path style="fill:#E8643F;" d="M447.892,335.938c-1.522-2.438-3.22-4.436-6.705-5.613c-2.671-0.902-5.997-0.891-8.697-0.367
		c-0.457,0.089-1.439,0.229-2.354,0.405c-3.666-2.866-8.042-4.017-14.247-2.013c-1.054,0.34-2.238,0.776-3.368,1.291
		c-0.781-1.283-1.527-2.333-1.846-2.663c-5.814-6.028-14.918-4.641-21.902-1.417c-0.635-1.039-1.294-1.933-1.861-2.489
		c-5.264-5.165-11.794-4.063-17.34-0.838c-3.721-5.835-11.51-5.894-16.613-1.23c-6.973,6.373-5.096,14.623-6.105,22.803
		c-0.526,4.268,5.512,6.136,8.19,3.393c0.042-0.043,0.11-0.121,0.17-0.19c0.459,0.438,0.944,0.858,1.485,1.236
		c3.707,2.591,8.335,3.068,12.618,1.599c0.824-0.283,1.676-0.66,2.519-1.079c0.921,1.246,2.109,2.38,3.723,3.312
		c6.017,3.475,15.284,1.722,20.984-2.51c1.237,1.409,2.69,2.629,4.254,3.566c3.654,2.189,7.766,2.85,11.98,1.806
		c2.092-0.518,4.118-2.057,6.173-3.196c1.142,0.901,2.437,1.594,4.052,2.184c3.48,1.271,6.455,0.503,9.438-0.115
		c0.598,0.582,1.251,1.121,2.035,1.6c4.164,2.546,9.125,2.094,13.656,1.196c3.69-0.731,6.733-4.203,7.698-7.698
		C457.916,341.377,453.484,338.039,447.892,335.938z"></path>
	<path style="fill:#E8643F;" d="M386.75,274.821c-6.986-2.058-13.74-3.769-20.865-2.341c-1.759-3.202-4.928-5.569-8.545-6.036
		c-0.163-0.867-0.355-1.69-0.598-2.397c-2.574-7.475-9.788-9.98-16.75-6.815c-3.2,1.455-5.613,3.798-7.924,6.397
		c-0.1,0.113-0.267,0.293-0.465,0.507c-0.336-1.448-0.857-2.84-1.713-4.245c-2.995-4.915-12.033-6.144-14.681,0
		c-4.062,9.427-21.577,23.174-6.446,32.655c5.301,3.322,11.13,1.602,16.897,1.443c6.622-0.182,11.552,1.465,16.181,4.452
		c1.262,2.041,3.294,3.521,5.589,4.284c0.394,0.345,0.784,0.668,1.183,1.03c1.501,1.364,3.417,0.812,4.286-0.647
		c1.037-0.198,2.056-0.538,3.015-1.074c4.018-2.248,6.935-5.158,10.155-8.366c5.151-5.131,9.498-4.896,16.208-2.614
		C392.501,294.53,397.183,277.894,386.75,274.821z"></path>
	<path style="fill:#E8643F;" d="M303.016,263.7c-6.139-6.039-14.712-6.428-22.123-2.285c-4.09,2.287-6.988,5.8-9.898,9.246
		c-3.016-2.142-7.045-2.772-10.53-0.487c-0.109,0.071-0.196,0.148-0.303,0.219c-1.303-0.882-2.849-1.476-4.943-1.493
		c-9.189-0.076-13.237,13.237-22.708,7.096c-0.035,0.06-0.07,0.121-0.106,0.181c-7.825-3.767-17.245,6.445-9.696,12.522
		c0.549,0.442,1.094,0.857,1.64,1.268c2.734,1.775-0.942,15.942-0.622,19.75c0.764,9.067,11.971,10.189,15.298,2.07
		c3.532-8.62,9.139-14.611,18.838-14.203c3.916,0.165,8.357,1.702,10.93-2.334c0.087-0.136,0.174-0.273,0.261-0.409
		c0.241-0.378,0.418-0.791,0.564-1.216c1.509-0.383,2.921-1.1,3.973-2.131c3.324-3.257,13.984-16.112,18.612-13.782
		C300.963,282.121,310.545,271.105,303.016,263.7z"></path>
</g>
<path style="fill:#DE7233;" d="M424.175,133.747c-7.268-1.71-13.871,0.002-21.155-0.076c-8.775-0.094-17.239-1.065-26.07-0.822
	c-19.318,0.534-38.646-0.132-57.954,0.859c-5.828,0.299-9.056,4.292-9.794,9.794c-0.999,7.454-1.22,19.549-8.538,24.112
	c-6.434,4.012-19.162,2.559-26.351,3.218c-10.405,0.953-20.704,2.656-31.168,2.613c-1.313-1.438-3.201-2.461-5.694-2.637
	c-10.565-0.745-21.171-0.894-31.79-0.911c-2.356-3.33-4.606-6.85-5.939-10.592c-2.378-6.672,0.089-14.88-1.087-22
	c-0.649-3.924-5.092-6.647-8.789-6.691c-30.023-0.36-60.788,0.314-90.699-2.411c-4.217-0.385-7.042,1.985-8.304,5.162
	c-2.936-1.411-5.923-2.727-8.962-3.943c-4.239-1.697-7.404,4.56-4.34,7.456c10.809,10.218,23.655,17.929,34.574,28.042
	c10.629,9.844,18.738,16.973,33.592,19.183c13.65,2.031,27.754,1.59,41.522,2.432c16.648,1.018,33.555,1.073,50.223,0.602
	c1.112-0.032,2.077-0.259,2.953-0.587c2.111,0.128,4.18,0.257,6.171,0.434c14.518,1.289,29.888-0.206,44.51-0.548
	c15.749,5.931,34.795,2.271,51.245,2.115c6.564-0.063,13.178-0.213,19.672,0.777c5.506,0.84,11.11,2.529,16.714,2.4
	c1.198-0.028,2.257-0.15,3.253-0.317c1.37,0.399,2.914,0.358,4.439-0.348c0.732-0.339,1.437-0.717,2.127-1.115
	c1.157,0.496,2.486,0.664,3.594,0.215c1.468-0.595,2.775-1.111,3.911-2.272c1.51-1.545,1.859-3.373,1.726-5.311
	c1.502-1.44,2.984-2.901,4.495-4.306c6.175-5.741,12.367-11.678,16.919-18.797c0.417-0.652,0.704-1.29,0.932-1.919
	c2.922-2.495,5.724-5.127,8.206-8.116C432.571,144.318,431.597,135.493,424.175,133.747z"></path>
<path d="M418.425,255.524c3.099-4.376,6.113-8.952,9.045-13.587c15.557-12.882,27.973-29.746,41.615-44.403
	c13.708-14.728,30.037-28.872,38.797-47.368c8.958-18.917,1.993-37.138-8.428-54.011c-9.859-15.963-23.017-36.87-41.124-44.181
	c-7.416-2.995-15.554-3.423-23.467-3.617c-15.613-0.383-31.245-0.339-46.861-0.636c-30.914-0.589-61.826-1.284-92.747-0.796
	c-31.188,0.492-62.311,2.641-93.508,2.95c-30.626,0.303-61.319-0.234-91.931-1.168c-16.812-0.513-33.719-1.39-50.542-1.188
	C48.03,47.654,35.078,48.94,26.561,57.18c-7.963,7.704-10.028,21.034-12.616,31.323c-0.882,3.507-1.715,7.025-2.539,10.545
	c-1.223,3.572-2.458,7.094-3.783,10.496c-3.08,7.911-7.828,16.418-7.616,25.144c0.207,8.509,5.566,16.636,10.438,23.215
	c12.109,16.346,26.178,28.888,41.961,41.559c8.561,6.874,16.271,14.598,24.401,21.956c3.179,2.878,6.605,5.92,10.321,8.374
	c3.495,3.875,7.58,7.314,10.993,10.203c3.049,2.58,9.184,8.932,15.057,11.689c-0.39,0.605-0.774,1.243-1.147,1.934
	c-1.98,3.663-3.358,8.525-3.657,13.421c-7.462,2.664-13.569,11.135-19.169,16.199c-0.718,0.649-4.163,3.178-7.044,5.846
	c-1.598-0.163-3.13-0.174-4.515,0.11c-6.862,1.405-13.242,6.303-15.397,13.153c-0.255,0.81-0.368,1.569-0.42,2.308
	c-7.058-0.268-18.381,8.594-21.998,10.969c-3.678,2.416-7.428,5.021-10.687,8.047c-0.207,0.114-0.413,0.219-0.62,0.335
	c-7.197,3.996-15.727,8.171-20.333,15.318c-9.387,14.567-3.455,37.647-1.943,53.547c1.101,11.567,2.514,23.109,4.616,34.54
	c1.352,7.353,1.723,16.681,7.031,22.466c10.444,11.381,36.601,8.288,50.171,8.774c50.248,1.795,100.578,7.035,150.865,6.557
	c50.671-0.482,101.341-1.746,152.032-2.148c25.278-0.201,50.427-0.407,75.701,0.021c16.39,0.277,37.267,2.408,45.128-15.388
	c2.763-6.256,3.123-13.216,3.541-19.954c0.744-12.019,2.806-23.742,4.528-35.644c1.557-10.763,5.378-28.992-2.264-38.824
	c-1.657-5.382-5.727-9.438-9.859-13.508c-5.491-5.408-11.512-9.754-18.236-13.511c-0.571-0.319-1.122-0.499-1.658-0.614
	c0.082-2.667-0.01-5.243-0.271-7.602c-0.724-6.541-3.142-12.836-8.645-16.747c-7.059-5.017-12.231-2.801-18.827-1.549
	c-1.072-9.451-6.95-17.405-17.006-19.714c-9.752-2.239-17.513,1.614-23.7,7.836c3.733-6.159,6.067-12.638,5.391-19.533
	C410.286,267.47,416.321,258.494,418.425,255.524z M265.814,60.615c54.35-1.496,108.763,1.448,163.102,2.394
	c7.789,0.136,15.89-0.04,23.38,2.443c9.214,3.056,15.576,10.31,21.778,17.419c9.492,10.881,24.39,27.126,26.355,43.251
	c-0.044,0.01-0.084,0.008-0.128,0.019c-18.226,4.554-37.768,1.764-56.381,2.601c-21.434,0.963-42.876,1.427-64.332,1.446
	c-43.588,0.039-87.165-1.211-130.753-1.307c-4.035-0.009-8.069-0.037-12.103-0.052c-9.836-0.408-19.659-1.121-29.507-1.358
	c-4.742-0.114-9.487-0.204-14.233-0.291c5.932-20.63-7.085-33.34-26.929-39.972c-10.61-3.546-21.774-5.576-32.177-9.725
	c-4.719-1.882-9.824-4.294-13.227-8.19c-2.28-2.609-2.97-5.336-3.534-8.186C166.707,61.093,216.223,61.979,265.814,60.615z
	 M149.419,303.685c2.404-8.076,13.846-14.194,21.079-13.825c2.985-0.019,5.814,0.795,8.486,2.442c0.8,1.184,1.743,2.237,2.828,3.158
	c1.65,0.719,3.009,1.594,5.008,1.551c4.598-0.098,6.725-3.62,9.861-6.32c8.915-7.676,24.912-3.374,24.07,10.172
	c-0.561,9.013-5.586,17.443,5.015,22.394c4.393,2.052,9.028,1.902,12.089,6.639c3.097,4.792,1.567,10-0.967,14.416
	c-3.534,6.159-9.984,10.049-13.965,15.649c-0.044-0.197-0.111-0.371-0.152-0.571c-1.435-6.95-3.283-10.711-10.654-12.368
	c-9.622-2.163-20.968,1.035-30.565,1.998c-7.025,0.706-14.147,1.44-21.336,2.151C170.212,334.657,166.59,309.273,149.419,303.685z
	 M142.83,302.583c-0.211-0.006-0.413-0.027-0.627-0.027c-1.232-12.305-9.455-23.296-23.386-22.133
	c-0.016,0.001-0.033,0.006-0.049,0.007c-2.258-6.266-3.404-12.531-1.029-19.143c3.741-10.413,10.799-10.452,19.751-6.286
	c3.651,1.699,6.912-1.079,6.368-4.895c-1.101-7.721-0.156-16.612,10.624-14.975c5.945,0.903,9.495,5.425,13.41,9.677
	c2.084,2.264,6.877,2.002,8.211-1.058c3.204-7.346,7.821-15.208,17.144-13.365c10.183,2.012,11.786,10.614,11.576,19.514
	c-0.012,0.532,0.073,1.002,0.198,1.442c-0.913,0.648-1.813,1.386-2.693,2.239c-6.88,6.668-10.543,18.37-5.753,26.836
	c-2.673,1.945-7.441,7.788-9.127,7.993c-2.016,0.245-6.58-4.553-8.656-5.291C166.876,278.882,141.757,287.524,142.83,302.583z
	 M220.773,282.427c-5.478-3.839-12.517-5.387-19.012-3.947c-0.785-14.284,10.826-29.36,24.586-16.734
	c2.763,2.534,6.316,1.147,7.648-2.02c2.71-6.443,8.74-23.099,19.002-16.757c4.002,2.473,5.972,7.954,10.397,10.613
	c2.021,1.214,4.932,0.869,6.575-0.849c4.027-4.211,7.6-8.664,13.579-9.63c6.776-1.096,12.987,3.322,16.721,9.012
	c4.236,6.455,4.774,18.581-2.002,23.551c-0.131,0.096-0.236,0.208-0.355,0.312c-5.23-1.567-10.92-1.674-16.112,0.003
	c-10.592,3.421-14.843,12.211-15.112,21.88c-8.795-4.653-18.304-6.319-26.572,2.084c-3.993,4.059-7.089,10.09-7.092,15.823
	c-1.922-0.673-4.221-1.171-5.154-3.233c-0.855-1.888,1.363-6.958,1.706-9.242C230.864,294.725,228.065,287.538,220.773,282.427z
	 M247.994,345.364c1.535-0.696,3.204-1.193,5.134-1.337c3.037-0.225,16.719,3.012,14.32,7.992c-2.536,5.264,2.963,12.495,8.69,8.69
	c3.97-2.638,11.199-8.184,15.98-4.783c0.777,0.553,1.47,1.466,2.141,2.456c-5.077,10.682-9.436,18.898-22.336,23.284
	c-17.343,5.896-36.118,3.132-44.95-11.395C236.314,366.623,244.861,356.316,247.994,345.364z M274.275,347.39
	c-2.174-2.771-3.998-5.771-7.435-7.718c-4.124-2.336-9.025-3.203-13.713-2.745c-1.279,0.125-2.59,0.384-3.892,0.745
	c0.188-5.81-1.448-11.409-5.631-15.887c-1.391-1.49-2.8-2.47-4.304-3.273c0.294-4.249,2.219-8.706,4.941-11.579
	c7.758-8.189,16.854-4.401,24.307,1.731c2.787,2.293,6.933,0.846,7.115-2.947c0.412-8.585,0.391-17.363,10.207-20.018
	c13.26-3.587,17.532,7.381,22.156,17.184c1.65,3.498,6.569,3.511,9.068,1.168c10.147-9.512,22.929-2.911,25.318,9.859
	c2.086,11.148-2.208,19.849-7.313,29.191c-9.394-0.593-19.348-0.985-28.143,0.909c-3.877,0.835-6.299,2.923-8.23,5.769
	C293.855,343.69,282.849,343.845,274.275,347.39z M314.941,291.414c-1.972-3.677-3.961-7.032-6.957-9.827
	c8.553-8.29,6.282-27.273,0.364-35.882c-0.209-0.305-0.433-0.605-0.655-0.906c1.633-8.084,10.481-15.04,17.893-17.318
	c9.297-2.858,7.361,8.398,10.795,14.191c1.604,2.706,5.928,3.625,8.156,1.051c2.762-3.192,18.869-22.527,23.611-10.123
	c1.654,4.326-1.829,11.968-2.046,16.563c-0.188,3.961,4.572,6.495,7.852,4.506c9.766-5.921,19.65,5.677,21.073,14.74
	c1.267,8.07-3.469,13.614-7.847,19.549c-6.339-3.267-12.859-4.567-20.99-0.511c-6.593,3.288-12.943,9.415-15.943,16.548
	c-0.419-0.938-0.862-1.844-1.351-2.678C341.61,288.885,326.66,285.02,314.941,291.414z M377.329,242.537
	c1.394-9.195,2.98-18.208-8.308-22.646c-10.254-4.033-19.756,1.562-26.758,9.05c-0.835-3.066-1.687-6.107-4.033-8.313
	c-4.487-4.219-11.661-2.965-16.828-0.908c-5.905,2.352-16.802,10.588-19.714,18.701c-4.363-3.625-9.633-6.223-15.146-6.654
	c-8.559-0.669-15.212,4.306-20.989,9.973c-6.065-5.417-8.326-12.523-19.223-10.26c-10.545,2.191-16.765,10.042-19.704,19.523
	c-3.973-2.159-8.18-3.335-12.337-3.055c-0.937-12.553-4.996-22.741-18.553-26.602c-11.082-3.156-19.719,2.512-25.346,11.044
	c-7.442-6.958-16.336-11.805-26.811-6.379c-8.046,4.168-10.823,11.317-9.961,18.968c-2.266-0.548-4.433-0.888-6.509-0.95
	c1.902-11.988,0.894-24.776,2.147-36.825c0.614-5.903,1.728-12.25,1.545-18.378c12.324-0.586,25.174,0.761,37.706,0.462
	c9.652,0.021,19.329-0.32,28.831-0.1c28.989,0.67,57.897,3.04,86.856,4.363c28.056,1.282,56.156,0.851,84.211,2.228
	c5.593,0.275,19.088-0.912,22.892,3.892c3.164,3.996,3.163,14.55,3.488,18.9c0.83,11.086,0.465,22.071,2.163,32.998
	C391.755,245.755,384.813,242.196,377.329,242.537z M391.525,190.284c-10.103-4.026-24.784-2.473-35.423-2.844
	c-15.748-0.55-31.508-0.605-47.262-0.897c-31.558-0.584-63.015-3.184-94.543-4.487c-28.163-1.164-57.376,2.07-85.25-2.938
	c-0.53-1.386-1.185-2.74-2.018-4.046c-5.667-8.882-15.954-14.465-24.043-20.827c-8.323-6.547-17.136-13.219-24.917-20.656
	c12.422,0.281,24.855,0.757,37.341,1.259c5.755,0.314,11.511,0.577,17.268,0.704c0.599,0.014,1.197,0.008,1.796,0.02
	c20.327,0.707,40.649,1.079,60.974,1.348c0.165,6.381-2.537,12.708-1.393,19.143c1.181,6.641,5.704,11.13,11.554,14.038
	c13.144,6.534,29.687,5.647,43.971,6.306c12.122,0.559,24.066-0.42,36.159-1.085c7.328-0.403,13.955-1.216,19.104-7.024
	c5.036-5.679,10.257-19.977,7.603-29.334c25.237,0.717,50.473,1.466,75.721,1.707c13.599,0.13,27.176-0.124,40.757-0.375
	c-7.157,8.145-13.033,17.611-19.799,25.956C402.904,173.92,395.485,181.158,391.525,190.284z M201.494,136.993
	c17.919,0.221,35.84,0.382,53.769,0.636c14.83,0.21,29.656,0.577,44.481,0.982c0.203,4.551,1.633,8.783,0.412,13.814
	c-2.221,9.153-6.85,11.488-15.931,12.255c-14.711,1.243-29.024,2.15-43.786,2.081c-10.301-0.048-25.118,1.216-33.966-5.019
	C197.03,155.086,203.228,145.276,201.494,136.993z M103.393,61.124c1.604-0.007,3.207-0.002,4.81-0.006
	c-0.835,16.3,24.507,25.451,36.776,28.78c10.699,2.903,22.087,4.801,31.968,10.067c11.252,5.996,14.056,15.561,12.367,27.144
	c-16.152-0.285-32.314-0.503-48.456-1.039c-3.544-15.813-15.438-23.235-29.81-29.294c-7.815-3.295-16.134-5.156-23.919-8.479
	c-12.76-5.447-16.231-14.938-17.726-26.924C80.73,61.164,92.068,61.171,103.393,61.124z M13.761,118.794
	c5.744-15.405,10.254-31.36,18.589-45.613c6.434-11.002,18.629-11.344,30.28-11.667c0.526-0.015,1.052-0.019,1.578-0.033
	c-0.238,16.26,6.463,28.538,23.106,35.021c9.217,3.59,18.604,6.129,27.444,10.708c5.12,2.652,10.614,5.599,14.071,10.339
	c1.9,2.605,2.757,5.47,3.976,8.226c-2.793-0.113-5.586-0.23-8.378-0.369c-25.654-1.277-50.925-4.906-76.66-4.261
	c-10.317,0.259-24.198-1.28-34.943,2.52C13.057,122.036,13.372,120.409,13.761,118.794z M111.325,232.782
	c-2.072-1.558-4.115-3.169-6.137-4.805c-0.026-0.047-0.033-0.099-0.061-0.146c-4.433-7.398-12.516-12.682-18.803-18.525
	c-6.255-5.813-12.244-11.863-18.845-17.295c-14.102-11.604-27.727-22.079-39.855-35.845c-5.393-6.122-11.729-12.589-14.198-20.585
	c-0.076-0.249-0.124-0.499-0.191-0.748c19.575-1.468,39.014-1.681,58.469-1.354c10.991,17.346,31.13,26.696,45.219,41.135
	c9.678,9.918,5.296,23.081,4.194,35.356c-0.787,8.772-2.436,19.006-2.007,28.426C116.241,236.039,113.026,234.061,111.325,232.782z
	 M66.718,326.145c1.111-0.912,2.742-1.159,3.881-2.193c8.792-7.984-6.415-22.426,10.112-26.239
	c8.265-1.906,15.757,5.299,23.079,0.123c5.952-4.207,9.985-10.944,18.811-8.689c8.036,2.052,10.286,10.442,9.232,17.822
	c-0.587,4.108,2.25,7.381,6.54,6.54c23.889-4.68,15.329,25.665,8.2,36.97c-0.434,0.689-0.689,1.384-0.795,2.063
	c-24.461,2.203-49.486,3.714-74.042,2.49c-3.156-5.022-7.654-10.831-9.058-16.355C61.452,333.854,63.221,329.017,66.718,326.145z
	 M157.836,449.404c-25.042-1.669-49.993-3.452-75.078-4.453c-12.253-0.489-24.477-1.134-36.7-2.126
	c-3.965-0.322-8.406-0.246-12.199-1.525c-5.72-1.93-6.022-4.595-7.257-10.136c-5.071-22.758-8.013-45.91-10.258-69.107
	c-0.142-1.464-0.215-2.834-0.233-4.142c38.38,10.934,80.388,9.757,119.813,7.811c12.553-0.619,25.133-1.389,37.669-2.545
	c0.521,16.105,7.815,33.31,18.778,44.558c11.732,12.037,29.076,15.95,45.169,17.788c17.371,1.983,34.891,2.366,52.282,4.097
	c10.254,1.021,21.195,2.599,30.497,7.327c5.064,2.574,8.373,5.516,11.003,10.504c0.123,0.233,0.238,0.467,0.355,0.7
	C273.698,450.3,215.693,453.259,157.836,449.404z M340.443,447.835c-3.064-4.514-4.177-9.64-8.789-13.413
	c-5.729-4.687-12.994-7.511-20.07-9.401c-15.647-4.179-32.091-4.137-48.134-5.35c-16.881-1.276-34.753-1.235-50.752-7.424
	c-20.329-7.864-31.455-28.797-35.229-49.445c6.59-0.651,13.167-1.405,19.718-2.321c2.301-0.322,11.974-2.486,14.011-0.422
	c-1.005-1.017,1.225,7.807,1.436,8.366c2.222,5.903,5.656,11.395,10.295,15.701c19.917,18.491,59.16,12.937,74.881-8.414
	c4.337-5.89,6.076-16.211,12.83-19.379c1.815,5.351,3.3,10.336,7.208,15.322c3.346,4.269,7.412,7.914,11.829,11.048
	c11.885,8.435,25.825,9.294,39.358,13.528c14.41,4.508,30.975,9.409,42.282,19.903c9.077,8.424,12.555,18.832,13.723,30.457
	C396.862,446.135,368.657,446.84,340.443,447.835z M466.074,358.423c4.92-0.333,10.532-1.288,14.979,1.364
	c7.186,4.286,3.942,16.184,3.109,23.115c-1.201,9.994-3.319,19.856-4.65,29.834c-1.049,7.87-0.831,16.055-2.348,23.842
	c-1.843,9.461-6.793,9.815-15.951,10.256c-9.286,0.447-18.594,0.171-27.89-0.066c-1.194-22.215-15.176-39.676-35.817-48.441
	c-15.2-6.454-30.615-10.378-46.568-14.23c-9.715-2.345-18.371-6.635-25.63-13.672c-4.689-4.545-7.345-9.733-9.875-15.217
	c3.725-0.379,8.065-0.144,11.013-0.291c6.368-0.318,12.751-0.306,19.124-0.188c22.41,0.411,44.8,2.084,67.183,3.174
	C430.548,358.769,448.299,359.626,466.074,358.423z M399.766,302.883c4.528-5.857,9.495-13.102,17.719-13.406
	c9.619-0.356,13.634,7.525,12.697,15.888c-0.298,2.661,2.535,5.052,5.007,5.007c3.996-0.073,7.008-2.093,10.823-2.578
	c9.04-1.149,11.707,6.922,11.601,14.139c-0.109,7.462-2.412,20.243-9.764,23.932c-1.546,0.776-2.412,1.93-2.798,3.203
	c-22.585,0.371-45.452-1.524-67.89-3.085c-9.53-0.663-19.06-1.385-28.594-2.001c5.009-8.291,6.254-20.355,4.475-30.564
	c3.359-7.717,7.734-15.034,15.719-18.8c6.502-3.066,11.595-1.567,16.273,1.615c0.725,1.081,1.832,1.923,3.041,2.318
	c1.628,1.356,3.231,2.84,4.853,4.334C394.664,304.481,398.113,305.02,399.766,302.883z M401.768,210.509
	c-0.849-5.569-1.553-12.129-5.094-16.49c14.33-18.036,29.141-35.663,43.219-53.906c3.811-0.062,7.622-0.128,11.436-0.166
	c15.881-0.156,31.81,1.714,47.511-0.941c-7.373,19.397-26.176,33.665-40.015,48.268c-13.116,13.84-25.902,29.068-37.29,44.835
	c-3.315,3.691-6.245,7.816-9.147,11.616c-2.156,2.822-4.641,5.448-7.035,8.111C402.5,238.231,403.864,224.253,401.768,210.509z"></path>
<g>
</g>
<g>
</g>
<g>
</g>
<g>
</g>
<g>
</g>
<g>
</g>
<g>
</g>
<g>
</g>
<g>
</g>
<g>
</g>
<g>
</g>
<g>
</g>
<g>
</g>
<g>
</g>
<g>
</g>
</svg>