<svg id="fi_5821460" height="512" viewBox="0 0 361.7 527.9" width="512" xmlns="http://www.w3.org/2000/svg"><g><g><g><g><path d="m162.8 453.9c-.3 23.6-.7 40.2-1.2 43.5-1.3 8.5-3.8 16.8-7.6 24.5h-138.4c-3.8-7.7-6.3-16-7.6-24.5-.5-3.3-.9-19.9-1.2-43.5-.6-48.8-.8-127.1-.3-177.7.3-26 .8-44.7 1.5-48.2 2.9-13.6 36.2-45.3 40-53.5s10.5-127.9 10.5-127.9h52.6s6.7 119.8 10.5 127.9 37.1 39.9 40 53.5c.7 3.5 1.2 22.2 1.5 48.2.5 50.6.3 128.9-.3 177.7z" fill="#3ca936"></path></g><g><path d="m162.8 453.9h-156c-.6-48.8-.8-127.1-.3-177.7h156.6c.5 50.6.3 128.9-.3 177.7z" fill="#c6cdc9"></path></g><g><path d="m55.5 6h57.8c3.9 0 7 3.1 7 7v26.6c0 3.9-3.1 7-7 7h-57.8c-3.9 0-7-3.1-7-7v-26.6c0-3.9 3.1-7 7-7z" fill="#13803a"></path></g></g><g><path d="m291.4 481.1c20.7 0 39.5-6.7 53.7-17.8-.8 1.7-1.4 2.7-1.4 2.7v40.4l-22.5 3.6-.2 9-30 2.9-30-2.9v-9l-22.6-3.6v-40.4l-1.8-3.7c14.2 11.7 33.5 18.8 54.8 18.8z" fill="#f5f6f5"></path><path d="m355.4 415.4h-128.8c-.7-19.6-.4-40.2-.4-40.2h129.6s.3 20.6-.4 40.2z" fill="#f5f6f5"></path><path d="m355.4 415.4c-.4 12-1.3 23.6-2.8 30-.9 4.1-5.3 13.3-7.5 17.9-14.2 11.1-33 17.8-53.7 17.8s-40.6-7.1-54.9-18.8c-2.4-4.9-6.3-13.1-7.1-16.9-1.5-6.4-2.3-18-2.8-30z" fill="#c6cdc9"></path><g><circle cx="290.7" cy="415.4" fill="#db3644" r="30.8"></circle></g></g></g><g id="Layer_51"><g><path d="m167.3 226.8c-2-9.3-13.2-22.6-27.7-39.1-5.4-6.2-11.5-13.2-12.7-15.6-2-5.9-5.6-52.8-8.6-101.2h3.9c3.3 0 6-2.7 6-6s-2.7-6-6-6h-4.6c-.1-2.3-.3-4.6-.4-7 5.3-1.8 8.9-6.7 8.9-12.3v-26.6c0-7.2-5.8-13-13-13h-57.8c-7.2 0-13 5.8-13 13v26.6c0 5.9 4 11.1 9.7 12.6-.2 2.2-.3 4.5-.4 6.7h-4.6c-3.3 0-6 2.7-6 6s2.7 6 6 6h3.9c-3 48.4-6.6 95.3-8.6 101.2-1.2 2.4-7.3 9.4-12.7 15.6-14.5 16.5-25.7 29.8-27.7 39.1-.3 1.5-1.1 5.5-1.6 49.4-.6 52.9-.3 132 .3 177.8.5 39.2 1.1 43 1.3 44.2 1.4 9.2 4.1 18.1 8.2 26.5 1.1 1.9 3.1 3.2 5.3 3.2h138.4c2.2 0 4.2-1.3 5.3-3.2 4.1-8.4 6.8-17.3 8.2-26.5.3-2.6.5-5.3.5-7.9.2-6 .5-16.7.8-36.3.6-46 .9-125.1.3-177.8-.5-43.9-1.3-47.9-1.6-49.4zm-113-213.8c-.1-.5.3-.9.8-1h.2 57.8c.6 0 1 .4 1 1v26.6c0 .6-.4 1-1 1h-57.8c-.5.1-.9-.3-1-.8 0-.1 0-.1 0-.2zm51.3 45.9h-42c.1-2.2.3-4.3.4-6.3h41.2c.1 2 .3 4.1.4 6.3zm-91.9 170.4c1.4-7 15.6-23.1 24.9-33.7s12.9-14.9 14.7-18.6c3.1-6.7 7.1-65.2 9.6-106.1h43.4c2.5 40.9 6.5 99.4 9.6 106.1 1.8 3.7 6.5 9.2 14.7 18.6s23.5 26.7 24.9 33.7c.2.9.9 6.8 1.3 41h-144.4c.4-34.2 1.1-40.1 1.3-41zm141.8 267.3c-1.1 6.6-2.9 13.1-5.6 19.3h-130.6c-2.7-6.2-4.5-12.7-5.6-19.4-.1-1.2-.6-7.2-1-36.4h143.8c-.4 29.2-.9 35.2-1 36.5zm1.1-48.5h-144c-.6-44.6-.8-115.3-.4-165.8h144.8c.4 50.3.2 121-.4 165.8z"></path><path d="m49.3 331.8c-13 0-23.6 10.6-23.6 23.6s10.6 23.6 23.6 23.6 23.6-10.6 23.6-23.6-10.6-23.6-23.6-23.6zm0 35.2c-6.4 0-11.6-5.2-11.6-11.6s5.2-11.6 11.6-11.6 11.6 5.2 11.6 11.6-5.2 11.6-11.6 11.6z"></path><path d="m113.6 373.5c-1.4-3-4.9-4.3-7.9-3l-12.3 5.6v-9l17-6.9c2.2-1 3.7-3.2 3.7-5.6v-27.1c0-2.7-1.7-5-4.3-5.7l-28.6-8.1c-3.2-.8-6.5 1-7.4 4.2s1 6.5 4.2 7.4l24.1 6.8v18.5l-16.9 6.9c-2.3.9-3.8 3.1-3.8 5.6v22.3c0 2 1.1 3.9 2.8 5 .9.7 2.1 1 3.2 1 .9 0 1.7-.2 2.5-.6l20.7-9.3c3-1.4 4.4-4.9 3-8z"></path><path d="m137.6 316.1c-3.3.2-5.8 2.9-5.6 6.2v.1c0 .1.7 14.7 0 25.8s-5.1 20.8-5.1 20.9c-1.3 3 .1 6.5 3 7.8h.1c.7.4 1.6.5 2.4.5 2.4 0 4.5-1.4 5.5-3.6.2-.5 5.2-12.2 6-24.7.6-9.1.6-18.2 0-27.3 0-3.2-2.7-5.8-5.9-5.7-.1 0-.3 0-.4 0z"></path><path d="m122.7 394c-2.7-.1-5.4-.8-7.7-2.2-2.8-1.8-6.5-.9-8.3 1.9s-.9 6.5 1.9 8.3c4.4 2.6 9.3 4 14.4 4 4.5 0 10.5-4.1 14.6-7.5 2.8-1.8 3.5-5.6 1.7-8.3-1.8-2.8-5.6-3.5-8.3-1.7-.3.2-7 5.1-8.3 5.5z"></path><path d="m59.3 386.7c-3.5 1.2-7.1 2-10.7 2.4-2.7.4-5.5-.2-7.8-1.6h.1l-7.3 9.6c2.9 1.9 6.2 3.2 9.7 3.8 0 0 .2 3.1-2.4 11.6-1.3 3 .1 6.5 3.1 7.9.8.3 1.6.5 2.4.5 2.4 0 4.5-1.4 5.5-3.6.4-1 4.1-9.7 3.4-17.2 2.8-.6 5.5-1.3 8.2-2.2 3.1-1.2 4.6-4.6 3.5-7.7-1.2-3.1-4.6-4.6-7.7-3.5z"></path><path d="m361.6 375.1c-.1-3.3-2.7-5.9-6-5.9h-129.6c-3.3.1-5.9 2.6-6 5.9 0 2.2-.7 54.1 3.3 71.7 1.2 5.2 6.7 16.3 8.8 20.6v39c0 3 2.2 5.5 5.1 5.9l17.5 2.9v3.9c.1 3 2.4 5.6 5.4 5.9l30 2.9h1.2l30-2.9c3-.3 5.4-2.8 5.4-5.9v-3.9l17.6-2.9c2.9-.4 5-3 5-5.9v-39c2.2-4.3 7.6-15.4 8.8-20.6 4.3-17.6 3.5-69.5 3.5-71.7zm-95.1 34.3c3.3-13.3 16.8-21.3 30.1-18 8.9 2.2 15.8 9.1 18 18zm48.1 12c-3.3 13.3-16.8 21.3-30.1 18-8.9-2.2-15.8-9.1-18-18zm-82.6-40.2h45.1c-12.1 4.7-20.8 15.4-22.9 28.2h-21.9c-.3-11-.3-21.8-.3-28.2zm105.5 120.1-9.8 1.6.6-10.4-12-.8-1.3 21.8-18.1 1.8v-18h-12v18l-18.1-1.8-1.6-21.8-12 .8.7 10.4-9.7-1.6v-27.6c14.1 8.8 30.5 13.4 47.1 13.4 16.3.1 32.4-4.4 46.3-12.9zm9.1-57.2c-.5 2.2-2.6 7.1-4.9 11.9-13.2 12.1-31.5 19.1-50.5 19.1s-38.6-7.4-51.9-20.3c-1.7-3.5-3.1-7-4.3-10.7-1.1-5-1.8-13.4-2.3-22.7h21.5c3.3 20 22.3 33.6 42.3 30.3 15.5-2.6 27.7-14.7 30.3-30.3h22.1c-.4 9.3-1.1 17.7-2.3 22.7zm2.8-34.7h-22.6c-2.1-12.7-10.8-23.4-22.8-28.2h45.6c.1 6.4.1 17.2-.2 28.2z"></path></g></g></g></svg>