<svg id="fi_2090226" height="512" viewBox="0 0 512 512" width="512" xmlns="http://www.w3.org/2000/svg"><path d="m384 408-45.13-45.13a38 38 0 0 1 0-53.74l17.553-17.553a39 39 0 0 0 0-55.154l-17.553-17.553a38 38 0 0 1 0-53.74l17.553-17.553a39 39 0 0 0 0-55.154l-44.423-44.423h-176v16l48 48v16l-40 40v48l40 40v24l-40 40v32l56 56z" fill="#f9c468"></path><path d="m148.686 52.686 39.737 39.737a39 39 0 0 1 0 55.154l-17.553 17.553a38 38 0 0 0 0 53.74l17.553 17.553a39 39 0 0 1 0 55.154l-17.553 17.553a38 38 0 0 0 0 53.74l45.13 45.13h-45.255l-22.5-22.5a69.541 69.541 0 0 1 -20.5-49.6 71.2 71.2 0 0 1 21.154-50.042l16.9-16.9a7 7 0 0 0 0-9.9l-16.9-16.9a71.2 71.2 0 0 1 -21.154-50.042 69.541 69.541 0 0 1 20.5-49.6l17.555-17.566a7 7 0 0 0 0-9.9l-39.741-39.736c-10.079-10.08-2.941-27.314 11.314-27.314a16 16 0 0 1 11.313 4.686z" fill="#ecaf4a"></path><g fill="#a3783b"><path d="m272 72v-32a16 16 0 0 0 -16-16 16 16 0 0 0 -16 16v32z"></path><path d="m240 160h32v64h-32z"></path><path d="m240 304h32v64h-32z"></path></g><path d="m240 160h32v16h-32z" fill="#8e672c"></path><path d="m240 304h32v16h-32z" fill="#8e672c"></path><path d="m240 408h32v88h-32z" fill="#a3783b"></path><path d="m240 408h32v16h-32z" fill="#8e672c"></path><path d="m391.453 256.887a64.785 64.785 0 0 1 .393 7.113c0 2.1-.1 4.2-.306 6.271l15.924 1.562c.253-2.582.382-5.218.382-7.833a80.65 80.65 0 0 0 -.492-8.883z"></path><path d="m373.394 164.547-17.554 17.553a14.018 14.018 0 0 0 0 19.8l17.553 17.553a62.474 62.474 0 0 1 14.678 22.96l15.036-5.469a78.358 78.358 0 0 0 -18.4-28.8l-16.139-16.144 16.139-16.139a78.479 78.479 0 0 0 23.139-55.861 79.793 79.793 0 0 0 -2-17.8l-15.595 3.576a63.728 63.728 0 0 1 1.6 14.221 62.59 62.59 0 0 1 -18.457 44.55z"></path><path d="m344.527 357.213a30 30 0 0 1 0-42.426l17.553-17.553a47.054 47.054 0 0 0 0-66.468l-17.553-17.553a30.033 30.033 0 0 1 0-42.426l17.553-17.553a47.054 47.054 0 0 0 0-66.468l-44.423-44.423a8 8 0 0 0 -5.657-2.343h-32a24 24 0 0 0 -48 0h-94.627a24 24 0 0 0 -16.973 40.971l39.032 39.029-16.846 16.846a77.483 77.483 0 0 0 -22.846 55.272 79.692 79.692 0 0 0 23.5 55.688l16.192 16.194-16.2 16.195a79.691 79.691 0 0 0 -23.5 55.687 77.483 77.483 0 0 0 22.846 55.272l22.5 22.5a8 8 0 0 0 5.668 2.346h61.254v80h16v-80h16v80h16v-80h104a8 8 0 0 0 5.657-13.657zm-170.467 42.787-20.16-20.16a61.592 61.592 0 0 1 -18.159-43.935 63.579 63.579 0 0 1 18.81-44.4l16.9-16.9a15 15 0 0 0 0-21.213l-16.9-16.9a63.579 63.579 0 0 1 -18.811-44.4 61.592 61.592 0 0 1 18.16-43.932l17.554-17.554a15.019 15.019 0 0 0 0-21.213l-39.738-39.737a8 8 0 0 1 5.657-13.656 7.947 7.947 0 0 1 5.656 2.343l39.737 39.737a31.034 31.034 0 0 1 0 43.84l-17.553 17.553a46.053 46.053 0 0 0 0 65.054l17.553 17.553a31.034 31.034 0 0 1 0 43.84l-17.553 17.553a46 46 0 0 0 0 65.054l31.474 31.473zm45.254 0-42.787-42.787a30 30 0 0 1 0-42.426l17.553-17.553a47.054 47.054 0 0 0 0-66.468l-17.553-17.553a30.033 30.033 0 0 1 0-42.426l17.553-17.553a47.054 47.054 0 0 0 0-66.468l-30.766-30.766h68.686v16h16v-32a8 8 0 0 1 16 0v32h16v-16h28.686l42.08 42.08a31.034 31.034 0 0 1 0 43.84l-17.553 17.553a46.053 46.053 0 0 0 0 65.054l17.553 17.553a31.034 31.034 0 0 1 0 43.84l-17.553 17.553a46.053 46.053 0 0 0 0 65.054l31.473 31.473z"></path><path d="m232 160h16v64h-16z"></path><path d="m264 160h16v64h-16z"></path><path d="m232 304h16v64h-16z"></path><path d="m264 304h16v64h-16z"></path></svg>