<svg width="40" height="40" viewBox="0 0 40 40" fill="none" xmlns="http://www.w3.org/2000/svg">
<circle cx="20" cy="20" r="20" fill="url(#paint0_linear_209_223)"/>
<g clip-path="url(#clip0_209_223)">
<path d="M27.2254 22.3498C27.227 22.3473 27.2287 22.3451 27.2303 22.3427C27.2435 22.3203 27.2244 22.3508 27.2254 22.3498Z" fill="white"/>
<path d="M27.2301 17.5297C27.2288 17.5271 27.2272 17.5247 27.2256 17.5221C27.2287 17.5275 27.2325 17.5342 27.2352 17.5392C27.2335 17.5361 27.2318 17.5329 27.2301 17.5297Z" fill="white"/>
<path d="M27.3973 10.6338C27.4161 10.6115 27.3781 10.6558 27.3973 10.6338V10.6338Z" fill="white"/>
<path d="M21.9884 26.3124C22.0007 26.3067 21.9977 26.3081 21.9884 26.3124V26.3124Z" fill="white"/>
<path d="M30.2523 8.91104C30.1963 8.79621 30.1402 8.68133 30.0842 8.5664C29.8936 8.66494 29.7085 8.77428 29.5263 8.88754C29.4228 8.95202 29.3204 9.01842 29.2188 9.08606L29.0849 9.17663C29.0439 9.11438 29.0027 9.05219 28.9618 8.98986L29.094 8.90822C29.2035 8.84168 29.3139 8.77638 29.4254 8.71343C29.6158 8.60576 29.8093 8.50229 30.0077 8.4102C29.9696 8.3321 29.9314 8.254 29.8933 8.17595C29.8707 8.12957 29.8481 8.08333 29.8254 8.03704C29.8079 8.00112 29.8145 7.99233 29.7757 8.00633C29.4284 8.13172 29.0883 8.27621 28.7556 8.43614C27.9529 8.822 27.1724 9.29332 26.4983 9.87828C25.7987 10.4853 25.1773 11.1862 24.7512 12.0145C24.324 12.8451 24.0995 13.7588 24.0867 14.6925C24.0803 15.1631 24.1414 15.6249 24.2272 16.0865C24.314 16.5542 24.4718 16.9999 24.634 17.4457C24.7447 17.7673 24.9187 18.0644 25.0403 18.3821C25.1194 18.5889 25.1769 18.7969 25.2264 19.012C25.2719 19.2101 25.2805 19.431 25.2571 19.6327C25.2341 19.8306 25.1669 20.0021 25.067 20.1727C24.9621 20.3518 24.802 20.5065 24.649 20.6445C24.4871 20.7907 24.3133 20.9227 24.1325 21.0444C23.3615 21.563 22.4836 21.9171 21.6056 22.2084C21.5773 22.2178 21.5489 22.2265 21.5205 22.2357L19.7161 25.957C19.7408 25.9488 19.7657 25.9411 19.7904 25.9328C20.2251 25.7881 20.6575 25.6359 21.085 25.4709C21.2685 25.4001 21.4508 25.3269 21.633 25.2527C21.648 25.2465 21.6832 25.2313 21.6832 25.2313C21.6832 25.2313 21.7068 25.2893 21.7174 25.3132C21.81 25.5232 21.9024 25.7329 21.995 25.9429C22.0333 26.0295 22.0715 26.1162 22.1096 26.2027C22.1162 26.2177 22.1227 26.2328 22.1294 26.2476C22.1297 26.2485 21.999 26.3079 21.972 26.3201C21.9782 26.3172 21.984 26.3147 21.9886 26.3125C21.9838 26.3148 21.9773 26.3177 21.9673 26.3223C21.2501 26.6511 20.5169 26.9455 19.7753 27.2142C19.5085 27.3109 19.2401 27.4033 18.971 27.4937L16.8204 31.929C17.1468 31.8113 17.4713 31.6883 17.7944 31.5637C18.6551 31.2313 19.5056 30.8719 20.3431 30.4847C22.0452 29.6979 23.7039 28.7972 25.2296 27.7031C26.6877 26.6514 28.0633 25.3998 28.9698 23.8285C29.4249 23.0395 29.7567 22.167 29.8809 21.262C30.008 20.3374 29.9208 19.39 29.6331 18.5024C29.4434 17.9173 29.1725 17.3511 28.8327 16.8376C28.6818 16.6096 28.523 16.3901 28.3576 16.1727C28.2636 16.0495 28.1602 15.9333 28.0583 15.8166C27.9052 15.6411 27.7794 15.4412 27.6543 15.2456C27.4421 14.9142 27.2861 14.5356 27.2091 14.1496C27.1139 13.6732 27.1476 13.1962 27.273 12.729C27.5135 11.833 28.0795 11.0362 28.7029 10.3637C29.086 9.95022 29.5063 9.56956 29.9531 9.22597C30.0422 9.15738 30.1325 9.09031 30.2243 9.02539C30.2957 8.97452 30.2882 8.98441 30.2523 8.91104ZM27.2546 22.2995C27.2546 22.2995 27.245 22.3177 27.2302 22.3427C27.2268 22.3479 27.2256 22.3495 27.2253 22.3497C26.8248 22.9576 26.3534 23.4928 25.8038 23.9711C25.2858 24.4219 24.7221 24.8106 24.1419 25.1758C23.9704 24.8838 23.7989 24.5917 23.6274 24.2996C24.3546 23.8832 25.0619 23.4254 25.6757 22.8505C25.978 22.5672 26.2463 22.2589 26.489 21.9235L26.5462 21.8487L27.2546 22.2995ZM27.2258 17.5221C27.22 17.5118 27.2172 17.5067 27.2302 17.5298C27.2424 17.5517 27.2405 17.5485 27.2353 17.5393C27.6499 18.2917 27.9345 19.1238 27.9309 19.9907C27.6804 19.9859 27.4297 19.9811 27.1791 19.9763C27.2106 19.333 27.043 18.6936 26.7856 18.1082C26.6431 17.7841 26.4624 17.4793 26.2867 17.1725C26.1349 16.9078 26.003 16.6378 25.8747 16.3611C25.9721 16.3171 26.0695 16.2732 26.1669 16.2293C26.2295 16.2011 26.4052 16.1211 26.4052 16.1211L26.4211 16.1543C26.5364 16.3769 26.6549 16.5927 26.787 16.8058C26.9346 17.0439 27.0881 17.2782 27.2258 17.5221ZM27.3972 10.6339C26.9613 11.1361 26.5709 11.6677 26.2981 12.278C26.0429 12.8493 25.898 13.4694 25.908 14.0961C25.7455 14.0937 25.5829 14.0914 25.4203 14.0891C25.4445 13.2546 25.7096 12.4459 26.136 11.731C26.3527 11.3676 26.6091 11.0332 26.8857 10.7139C26.9524 10.6369 27.0238 10.564 27.0938 10.4901C27.1189 10.4636 27.1961 10.3778 27.1961 10.3778C27.1961 10.3778 27.3543 10.531 27.4247 10.5984C27.4257 10.5993 27.4264 10.6001 27.4273 10.601C27.4168 10.6115 27.4068 10.6225 27.3972 10.6339Z" fill="white"/>
<path d="M21.9096 18.0365C21.9096 14.6761 19.1757 11.9421 15.8153 11.9421C12.4549 11.9421 9.72102 14.6761 9.72102 18.0365C9.72102 19.0212 9.95609 19.9519 10.3726 20.7761L15.8153 32.0001L21.2588 20.7743C21.6748 19.9506 21.9096 19.0204 21.9096 18.0365ZM15.8153 21.4089C13.9556 21.4089 12.4427 19.8961 12.4427 18.0364C12.4427 16.1768 13.9557 14.6638 15.8153 14.6638C17.6748 14.6638 19.1878 16.1768 19.1878 18.0364C19.1878 19.8961 17.6748 21.4089 15.8153 21.4089Z" fill="white"/>
</g>
<defs>
<linearGradient id="paint0_linear_209_223" x1="20" y1="0" x2="20" y2="40" gradientUnits="userSpaceOnUse">
<stop stop-color="#0BB8E4"/>
<stop offset="1" stop-color="#3D90D9"/>
</linearGradient>
<clipPath id="clip0_209_223">
<rect width="24" height="24" fill="white" transform="translate(8 8)"/>
</clipPath>
</defs>
</svg>
