<svg width="40" height="40" viewBox="0 0 40 40" fill="none" xmlns="http://www.w3.org/2000/svg">
<circle cx="20" cy="20" r="20" fill="url(#paint0_linear_209_272)"/>
<path d="M25.1936 21.0096C25.1963 21.0021 27.1792 16.3707 27.0757 16.3168C26.9755 16.264 25.6939 18.8832 24.76 20.6565L24.4667 20.5024C25.2805 18.6661 26.5445 16.0379 26.4411 15.9851C26.3408 15.9323 24.9776 18.5072 23.9856 20.2512L23.6923 20.0976C24.5627 18.2896 25.9072 15.7051 25.8064 15.6523C25.7051 15.5995 24.2576 18.1307 23.2085 19.8443L22.9136 19.6891C23.8427 17.9125 25.2693 15.3712 25.1691 15.3184C25.0672 15.2645 22.9547 18.6389 22.3797 19.5339C21.8789 20.3163 21.9125 21.4032 22.5531 21.9867C21.6763 23.52 20.8011 25.0517 19.9248 26.5845C19.0256 25.0533 18.1264 23.5211 17.2267 21.9899C18.2736 21.1792 18.4485 19.5701 17.5899 18.3131C16.6891 16.9696 14.8059 15.4779 13.6843 16.0411C12.5979 16.6699 12.8107 19.0629 13.4405 20.5531C14.0203 21.96 15.4629 22.6976 16.7136 22.2667C17.592 24.0427 18.4699 25.8181 19.3472 27.5936C18.9632 28.2661 18.5792 28.9381 18.1947 29.6112C13.6539 28.7621 10.2155 24.7861 10.2155 20C10.2165 14.5963 14.5963 10.216 20 10.216C25.4037 10.216 29.7835 14.5957 29.7835 19.9995C29.7835 24.8176 26.2981 28.8123 21.712 29.624C21.3131 28.9451 20.9147 28.2667 20.5168 27.5877C21.3701 25.8117 22.2219 24.0357 23.0752 22.2587C23.9093 22.4693 24.7877 21.9483 25.1909 21.0075C25.6133 20.0229 25.1925 21.0096 25.1936 21.0096ZM20.9008 30.7312C20.6016 30.7563 20.304 30.7771 20 30.7771C19.6661 30.7771 19.3365 30.7568 19.0101 30.7269C18.824 31.1141 18.6379 31.5008 18.4528 31.8885C18.9605 31.9547 19.4752 32 20 32C20.5008 32 20.9925 31.9589 21.4779 31.8992C21.2859 31.5104 21.0933 31.1211 20.9008 30.7312ZM20 8C13.3835 8 8 13.3835 8 20C8 25.5968 11.8565 30.2971 17.0485 31.6176C17.2581 31.2507 17.4672 30.8848 17.6768 30.5184C12.848 29.4523 9.2224 25.144 9.2224 20C9.2224 14.0571 14.0571 9.22293 19.9995 9.22293C25.9419 9.22293 30.7765 14.0576 30.7765 20C30.7765 25.1707 27.1136 29.4997 22.2475 30.5371C22.4613 30.9024 22.6763 31.2677 22.8907 31.6336C28.1131 30.3339 32 25.6187 32 20C32 13.3835 26.6165 8 20 8ZM20.4213 29.7627C20.2613 29.4379 20.1008 29.1136 19.9403 28.7888C19.7856 29.112 19.6304 29.4347 19.4757 29.7568C19.6507 29.7659 19.8235 29.7829 20 29.7829C20.1424 29.7835 20.28 29.7675 20.4213 29.7627Z" fill="white"/>
<defs>
<linearGradient id="paint0_linear_209_272" x1="20" y1="0" x2="20" y2="40" gradientUnits="userSpaceOnUse">
<stop stop-color="#0BB8E4"/>
<stop offset="1" stop-color="#3D90D9"/>
</linearGradient>
</defs>
</svg>
