<svg id="fi_8818232" enable-background="new 0 0 512 512" height="512" viewBox="0 0 512 512" width="512" xmlns="http://www.w3.org/2000/svg"><g><path d="m438.672 22.801h-326.477c-19.379 0-34.98 15.601-34.98 34.98v135.547.0012c-23.0313 11.45-38.867 35.2061-38.867 62.6708 0 27.4646 15.8358 51.2207 38.867 62.6707v.0012 139.4331c0 17.1719 13.922 31.094 31.094 31.094h132.144 15.547 178.785c4.305 0 7.774-3.469 7.774-7.7729v-132.1451c0-4.3081-3.469-7.7729-7.774-7.7729h-31.094v-151.5821l17.493-19.4341 17.488 19.4341 17.488-19.4341 17.492 19.4341v-132.145c0-19.379-15.601-34.98-34.98-34.98z" fill="#b0bec5"></path><path d="m178.266 256c0 38.637-31.321 69.961-69.957 69.961-38.637 0-69.961-31.324-69.961-69.961s31.324-69.961 69.961-69.961c38.636 0 69.957 31.324 69.957 69.961z" fill="#43a047"></path><path d="m403.691 189.926v-132.145c0-19.379 15.602-34.98 34.981-34.98s34.98 15.601 34.98 34.98v132.145l-17.492-19.434-17.488 19.434-17.488-19.434z" fill="#78909c"></path><path d="m310.414 123.855c0 38.637-31.324 69.957-69.961 69.957s-69.961-31.32-69.961-69.957c0-38.64 31.324-69.96 69.961-69.96s69.961 31.32 69.961 69.96z" fill="#eceff1"></path><path d="m240.4531 116.8828c-4.6357 0-6.7109-3.2744-6.7109-6.5195 0-3.5947 2.4517-6.5195 5.4648-6.5195h14.957c3.8662 0 7-3.1338 7-7s-3.1338-7-7-7h-6.7109v-5.9141c0-3.8662-3.1338-7-7-7s-7 3.1338-7 7v6.8306c-7.9327 2.593-13.7109 10.3994-13.7109 19.603 0 11.6982 8.9038 20.5195 20.7109 20.5195 4.6357 0 6.7109 3.2744 6.7109 6.5195 0 3.5947-2.4517 6.5195-5.4648 6.5195h-.3832c-.2834-.0349-.5701-.0586-.8629-.0586s-.5795.0237-.8629.0586h-12.848c-3.8662 0-7 3.1338-7 7s3.1338 7 7 7h6.7109v5.8555c0 3.8662 3.1338 7 7 7s7-3.1338 7-7v-6.772c7.9327-2.593 13.7109-10.3994 13.7109-19.603 0-11.6982-8.9038-20.5195-20.7109-20.5195z" fill="#90a4ae"></path><path d="m240.453 341.508h194.332c4.305 0 7.774 3.465 7.774 7.773v132.145c0 4.304-3.469 7.773-7.774 7.773h-194.332c-4.305 0-7.773-3.469-7.773-7.773v-132.145c0-4.308 3.468-7.773 7.773-7.773z" fill="#1e88e5"></path><path d="m268.773 372.598h52.188c2.7614 0 5 2.2386 5 5v28.434c0 2.7614-2.2386 5-5 5h-52.188c-2.7614 0-5-2.2386-5-5v-28.434c0-2.7615 2.2386-5 5-5z" fill="#ffb300"></path><g><path d="m263.7729 465.1055c-3.8662 0-7-3.1338-7-7v-7.7734c0-3.8662 3.1338-7 7-7s7 3.1338 7 7v7.7734c0 3.8662-3.1338 7-7 7z" fill="#1976d2"></path></g><g><path d="m287.0942 465.1055c-3.8662 0-7-3.1338-7-7v-7.7734c0-3.8662 3.1338-7 7-7s7 3.1338 7 7v7.7734c0 3.8662-3.1338 7-7 7z" fill="#1976d2"></path></g><g><path d="m325.9609 465.1055c-3.8662 0-7-3.1338-7-7v-7.7734c0-3.8662 3.1338-7 7-7s7 3.1338 7 7v7.7734c0 3.8662-3.1338 7-7 7z" fill="#1976d2"></path></g><g><path d="m349.2812 465.1055c-3.8662 0-7-3.1338-7-7v-7.7734c0-3.8662 3.1338-7 7-7s7 3.1338 7 7v7.7734c0 3.8662-3.1338 7-7 7z" fill="#1976d2"></path></g><g><path d="m388.145 465.1055c-3.8662 0-7-3.1338-7-7v-7.7734c0-3.8662 3.1338-7 7-7s7 3.1338 7 7v7.7734c0 3.8662-3.1338 7-7 7z" fill="#1976d2"></path></g><g><path d="m411.4648 465.1055c-3.8662 0-7-3.1338-7-7v-7.7734c0-3.8662 3.1338-7 7-7s7 3.1338 7 7v7.7734c0 3.8662-3.1338 7-7 7z" fill="#1976d2"></path></g><g><path d="m411.4648 379.5977h-38.8667c-3.8662 0-7-3.1338-7-7s3.1338-7 7-7h38.8667c3.8662 0 7 3.1338 7 7s-3.1338 7-7 7z" fill="#1976d2"></path></g><g><path d="m411.4648 410.6914h-15.5469c-3.8662 0-7-3.1338-7-7s3.1338-7 7-7h15.5469c3.8662 0 7 3.1338 7 7s-3.1338 7-7 7z" fill="#1976d2"></path></g><g><path d="m201.5859 402.918h-77.731c-3.8662 0-7-3.1338-7-7s3.1338-7 7-7h77.731c3.8662 0 7 3.1338 7 7s-3.1338 7-7 7z" fill="#eceff1"></path></g><g><path d="m201.5859 371.8242h-62.1841c-3.8662 0-7-3.1338-7-7s3.1338-7 7-7h62.1841c3.8662 0 7 3.1338 7 7s-3.1338 7-7 7z" fill="#eceff1"></path></g><g><path d="m201.5859 465.1055h-77.731c-3.8662 0-7-3.1338-7-7s3.1338-7 7-7h77.731c3.8662 0 7 3.1338 7 7s-3.1338 7-7 7z" fill="#eceff1"></path></g><g><path d="m357.0508 231.9062h-147.6919c-3.8662 0-7-3.1338-7-7s3.1338-7 7-7h147.6919c3.8662 0 7 3.1338 7 7s-3.1338 7-7 7z" fill="#eceff1"></path></g><g><path d="m357.0508 263h-15.543c-3.8662 0-7-3.1338-7-7s3.1338-7 7-7h15.543c3.8662 0 7 3.1338 7 7s-3.1338 7-7 7zm-85.504 0h-62.188c-3.8662 0-7-3.1338-7-7s3.1338-7 7-7h62.188c3.8662 0 7 3.1338 7 7s-3.1337 7-7 7z" fill="#eceff1"></path></g><g><path d="m357.0508 294.0938h-15.543c-3.8662 0-7-3.1338-7-7s3.1338-7 7-7h15.543c3.8662 0 7 3.1338 7 7s-3.1338 7-7 7zm-85.504 0h-62.188c-3.8662 0-7-3.1338-7-7s3.1338-7 7-7h62.188c3.8662 0 7 3.1338 7 7s-3.1337 7-7 7z" fill="#eceff1"></path></g><path d="m108.3091 202.3594c-3.8662 0-7 3.1338-7 7v43.7412l-21.271 21.2695c-2.7339 2.7344-2.7339 7.166 0 9.8994 1.3667 1.3672 3.1582 2.0508 4.9497 2.0508 1.791 0 3.583-.6836 4.9497-2.0498l23.3213-23.3203c1.313-1.3135 2.0503-3.0938 2.0503-4.9502v-46.6406c0-3.8662-3.1338-7-7-7z" fill="#66bb6a"></path></g></svg>