<svg width="40" height="40" viewBox="0 0 40 40" fill="none" xmlns="http://www.w3.org/2000/svg">
<circle cx="20" cy="20" r="20" fill="url(#paint0_linear_209_1157)"/>
<path d="M26.6596 26.1818H12.3451C12.0818 26.1818 11.8683 26.3953 11.8678 26.6586L11.866 28.0503C11.8655 28.5709 12.0678 29.0604 12.4355 29.4286C12.8037 29.7973 13.2926 30 13.8133 30H25.1895C26.2634 30 27.1369 29.1265 27.1369 28.0527V26.6591C27.1369 26.3953 26.9234 26.1818 26.6596 26.1818Z" fill="white"/>
<path d="M24.75 10.9091C24.4578 10.9091 24.1576 10.9385 23.8397 10.9977C22.7477 9.72428 21.1826 9 19.5 9C16.3418 9 13.7727 11.5691 13.7727 14.7273C13.7727 14.9906 13.5588 15.2046 13.2955 15.2046C13.0321 15.2046 12.8182 14.9906 12.8182 14.7273C12.8182 13.694 13.0559 12.6942 13.5248 11.756C13.6082 11.5891 13.5867 11.3892 13.4702 11.2438C13.3537 11.0993 13.1631 11.0349 12.9822 11.0792C10.6374 11.6642 9 13.7531 9 16.1591C9 18.1427 10.1186 19.946 11.8748 20.8377L11.8697 24.7495C11.8697 24.8758 11.9196 24.9975 12.0091 25.0874C12.099 25.1769 12.2202 25.2273 12.347 25.2273H26.6591C26.9229 25.2273 27.1364 25.0138 27.1364 24.75V20.8306C28.8861 19.9367 30 18.1362 30 16.1591C30 13.2642 27.6449 10.9091 24.75 10.9091ZM15.9848 22.2555C15.8957 22.3282 15.7886 22.3637 15.6823 22.3637C15.5444 22.3637 15.4073 22.304 15.3127 22.1893C15.1552 21.9968 13.7727 20.2761 13.7727 19.0227C13.7727 18.7589 13.9862 18.5454 14.25 18.5454C14.5138 18.5454 14.7273 18.7589 14.7273 19.0227C14.7273 19.7135 15.5393 20.9598 16.051 21.5834C16.2178 21.7876 16.1884 22.0882 15.9848 22.2555ZM19.9773 21.8864C19.9773 22.1502 19.7638 22.3637 19.5 22.3637C19.2362 22.3637 19.0227 22.1502 19.0227 21.8864V19.0227C19.0227 18.7589 19.2362 18.5454 19.5 18.5454C19.7638 18.5454 19.9773 18.7589 19.9773 19.0227V21.8864H19.9773ZM23.6873 22.1893C23.5927 22.304 23.4561 22.3637 23.3182 22.3637C23.2115 22.3637 23.1043 22.3282 23.0157 22.2555C22.812 22.0882 22.7822 21.7876 22.9491 21.5839C23.4608 20.9589 24.2727 19.7112 24.2727 19.0227C24.2727 18.7589 24.4862 18.5454 24.75 18.5454C25.0138 18.5454 25.2273 18.7589 25.2273 19.0227C25.2273 20.276 23.8449 21.9968 23.6873 22.1893Z" fill="white"/>
<defs>
<linearGradient id="paint0_linear_209_1157" x1="20" y1="0" x2="20" y2="40" gradientUnits="userSpaceOnUse">
<stop stop-color="#0BB8E4"/>
<stop offset="1" stop-color="#3D90D9"/>
</linearGradient>
</defs>
</svg>
