<svg width="40" height="40" viewBox="0 0 40 40" fill="none" xmlns="http://www.w3.org/2000/svg">
    <circle cx="20" cy="20" r="20" fill="url(#paint0_linear_209_1214)" />
    <path
        d="M19.8576 14.1562L21.2326 12.7812H11.4062C11.2661 12.7812 11.0625 13.0491 11.0625 13.4688C11.0625 13.8884 11.2661 14.1562 11.4062 14.1562H19.8576Z"
        fill="white" />
    <path
        d="M21.4657 16.8128C21.1872 17.0294 20.8418 17.142 20.4892 17.131C20.1366 17.12 19.7989 16.9862 19.5345 16.7527C19.27 16.5192 19.0954 16.2006 19.0409 15.8521C18.9863 15.5035 19.0553 15.1469 19.2357 14.8438H12.0069L10.4041 20.2695C10.3848 20.3492 10.375 20.431 10.375 20.513V29.9688H21.7188V20.513C21.7188 20.3725 21.736 20.2325 21.77 20.0962C21.7712 20.0915 21.7725 20.0868 21.7739 20.0821L23.1195 15.5265L21.4657 16.8128ZM15.875 21.7188H15.8744C15.8746 21.7721 15.8624 21.8247 15.8387 21.8725L15.1933 23.1632L15.4778 27.1453C15.4878 27.2865 15.4687 27.4284 15.4216 27.5619C15.3745 27.6954 15.3004 27.8179 15.2039 27.9215C15.1074 28.0251 14.9905 28.1078 14.8607 28.1643C14.7308 28.2208 14.5907 28.25 14.4491 28.25H13.8634C13.7218 28.25 13.5817 28.2208 13.4518 28.1643C13.322 28.1078 13.2051 28.0251 13.1086 27.9215C13.0121 27.8179 12.938 27.6954 12.8909 27.5619C12.8438 27.4284 12.8247 27.2865 12.8347 27.1453L13.1192 23.1632L12.4738 21.8725C12.4501 21.8247 12.4379 21.7721 12.4381 21.7188H12.4375V20.3438C12.4375 20.2526 12.4737 20.1651 12.5382 20.1007C12.6026 20.0362 12.6901 20 12.7812 20C12.8724 20 12.9599 20.0362 13.0243 20.1007C13.0888 20.1651 13.125 20.2526 13.125 20.3438V21.375H13.8125V20.3438C13.8125 20.2526 13.8487 20.1651 13.9132 20.1007C13.9776 20.0362 14.0651 20 14.1562 20C14.2474 20 14.3349 20.0362 14.3993 20.1007C14.4638 20.1651 14.5 20.2526 14.5 20.3438V21.375H15.1875V20.3438C15.1875 20.2526 15.2237 20.1651 15.2882 20.1007C15.3526 20.0362 15.4401 20 15.5312 20C15.6224 20 15.7099 20.0362 15.7743 20.1007C15.8388 20.1651 15.875 20.2526 15.875 20.3438V21.7188ZM18.9737 27.9105C18.8769 28.0173 18.7589 28.1027 18.6272 28.1612C18.4955 28.2196 18.353 28.2499 18.2088 28.25H17.6659C17.5219 28.25 17.3794 28.2198 17.2477 28.1614C17.116 28.1029 16.998 28.0175 16.9013 27.9107C16.8047 27.8039 16.7315 27.678 16.6864 27.5411C16.6414 27.4043 16.6255 27.2595 16.6398 27.1161L16.9062 24.4516V24.3373L16.4088 24.0885C16.3477 24.058 16.2972 24.01 16.2635 23.9507C16.2298 23.8914 16.2146 23.8234 16.2197 23.7553C16.2312 23.6022 16.5255 20 18.625 20C18.7162 20 18.8036 20.0362 18.8681 20.1007C18.9325 20.1651 18.9688 20.2526 18.9688 20.3438V24.4516L19.2352 27.116C19.2494 27.2593 19.2335 27.4041 19.1885 27.5409C19.1434 27.6778 19.0703 27.8037 18.9737 27.9105Z"
        fill="white" />
    <path d="M27.5625 10.0312H29.625V13.8125H27.5625V10.0312Z" fill="white" />
    <path
        d="M19.1383 10.8616L16.8794 12.0938H22.0625C22.1305 12.0937 22.197 12.1139 22.2535 12.1517C22.31 12.1895 22.3541 12.2431 22.3801 12.306C22.4061 12.3688 22.4129 12.4379 22.3997 12.5046C22.3864 12.5712 22.3537 12.6325 22.3056 12.6806L19.9523 15.0339C19.8035 15.1826 19.717 15.3823 19.7105 15.5925C19.7039 15.8027 19.7777 16.0074 19.9169 16.1651C20.056 16.3227 20.2501 16.4213 20.4595 16.4409C20.6688 16.4604 20.8778 16.3994 21.0437 16.2702L23.189 14.6016C23.2737 14.5359 23.3779 14.5002 23.4851 14.5H24.3301C24.6403 14.4996 24.9376 14.3763 25.157 14.157C25.3763 13.9376 25.4997 13.6403 25.5 13.3301C25.5002 13.1846 25.5581 13.0451 25.661 12.9422C25.7638 12.8393 25.9033 12.7814 26.0489 12.7812H26.875V10.7188H19.6985C19.5027 10.7189 19.3102 10.768 19.1383 10.8616Z"
        fill="white" />
    <path
        d="M14.5238 23.4375H13.789L13.5204 27.1943C13.517 27.2414 13.5234 27.2887 13.5391 27.3332C13.5548 27.3777 13.5796 27.4185 13.6117 27.453C13.6439 27.4876 13.6828 27.5151 13.7261 27.5339C13.7694 27.5528 13.8161 27.5625 13.8633 27.5625H14.449C14.4962 27.5625 14.5429 27.5528 14.5862 27.5339C14.6295 27.5151 14.6684 27.4876 14.7006 27.453C14.7328 27.4185 14.7575 27.3777 14.7732 27.3332C14.7889 27.2887 14.7953 27.2414 14.7919 27.1943L14.5238 23.4375Z"
        fill="white" />
    <path
        d="M17.5937 24.125H18.2812V20.7501C17.8575 20.9116 17.5104 21.3844 17.2463 22.1618C17.0954 22.6234 16.9894 23.0985 16.9298 23.5806L17.4037 23.8175C17.4608 23.8461 17.5088 23.89 17.5424 23.9443C17.5759 23.9986 17.5937 24.0611 17.5937 24.125Z"
        fill="white" />
    <path d="M13.6811 22.75H14.6312L14.975 22.0625H13.3374L13.6811 22.75Z" fill="white" />
    <path d="M22.8924 29.9688H24.6701L23.7812 29.08L22.8924 29.9688Z" fill="white" />
    <path
        d="M18.3138 24.8125H17.561L17.3238 27.1844C17.319 27.2322 17.3242 27.2805 17.3392 27.3261C17.3542 27.3717 17.3787 27.4137 17.4109 27.4494C17.4431 27.485 17.4825 27.5135 17.5264 27.533C17.5703 27.5524 17.6178 27.5625 17.6658 27.5625H18.209C18.257 27.5625 18.3045 27.5524 18.3484 27.533C18.3924 27.5135 18.4317 27.485 18.4639 27.4494C18.4962 27.4137 18.5206 27.3717 18.5356 27.3261C18.5506 27.2805 18.5559 27.2322 18.551 27.1844L18.3138 24.8125Z"
        fill="white" />
    <path
        d="M22.4354 20.2694C22.4161 20.3492 22.4063 20.4309 22.4062 20.513V29.4826L23.4375 28.4513V21.0312C23.4375 20.94 23.4737 20.8526 23.5382 20.7881C23.6026 20.7237 23.6901 20.6875 23.7812 20.6875C23.8724 20.6875 23.9599 20.7237 24.0243 20.7881C24.0888 20.8526 24.125 20.94 24.125 21.0312V28.4513L25.1562 29.4826V20.5417C25.1563 20.4433 25.1422 20.3453 25.1144 20.2509L23.7805 15.7158L22.4354 20.2694Z"
        fill="white" />
    <defs>
        <linearGradient id="paint0_linear_209_1214" x1="20" y1="0" x2="20" y2="40" gradientUnits="userSpaceOnUse">
            <stop stop-color="#0BB8E4" />
            <stop offset="1" stop-color="#3D90D9" />
        </linearGradient>
    </defs>
</svg>