<svg width="29" height="29" viewBox="0 0 29 29" fill="none" xmlns="http://www.w3.org/2000/svg">
    <rect x="1" y="0.286499" width="28" height="28" rx="4" transform="rotate(0.265883 1 0.286499)" fill="#EDF2F4" />
    <path fill-rule="evenodd" clip-rule="evenodd"
        d="M12.7462 8.92832C12.3319 9.50307 12.1852 10.2208 12.1852 10.6847V11.6013H17.6852V10.6847C17.6852 10.2199 17.5386 9.50307 17.1251 8.92832C16.7447 8.40032 16.1031 7.93465 14.9352 7.93465C13.7674 7.93465 13.1257 8.40032 12.7462 8.92832ZM19.5186 11.6013V10.6847C19.5186 9.92657 19.2986 8.81098 18.6129 7.85765C17.8924 6.85757 16.7007 6.10132 14.9352 6.10132C13.1697 6.10132 11.9781 6.85757 11.2576 7.85765C10.5719 8.81098 10.3519 9.92657 10.3519 10.6847V11.6013H6.68522C6.44211 11.6013 6.20895 11.6979 6.03704 11.8698C5.86513 12.0417 5.76855 12.2749 5.76855 12.518C5.76855 12.7611 5.86513 12.9943 6.03704 13.1662C6.20895 13.3381 6.44211 13.4347 6.68522 13.4347H6.7723L7.60647 21.7763C7.6292 22.0024 7.7351 22.212 7.90363 22.3645C8.07216 22.5169 8.29131 22.6013 8.51855 22.6013H21.3519C21.5791 22.6013 21.7983 22.5169 21.9668 22.3645C22.1353 22.212 22.2412 22.0024 22.264 21.7763L23.0981 13.4347H23.1852C23.4283 13.4347 23.6615 13.3381 23.8334 13.1662C24.0053 12.9943 24.1019 12.7611 24.1019 12.518C24.1019 12.2749 24.0053 12.0417 23.8334 11.8698C23.6615 11.6979 23.4283 11.6013 23.1852 11.6013H19.5186ZM12.1852 16.1847C12.1852 15.9415 12.0886 15.7084 11.9167 15.5365C11.7448 15.3646 11.5117 15.268 11.2686 15.268C11.0254 15.268 10.7923 15.3646 10.6204 15.5365C10.4485 15.7084 10.3519 15.9415 10.3519 16.1847V18.018C10.3519 18.2611 10.4485 18.4943 10.6204 18.6662C10.7923 18.8381 11.0254 18.9347 11.2686 18.9347C11.5117 18.9347 11.7448 18.8381 11.9167 18.6662C12.0886 18.4943 12.1852 18.2611 12.1852 18.018V16.1847ZM15.8519 16.1847C15.8519 15.9415 15.7553 15.7084 15.5834 15.5365C15.4115 15.3646 15.1783 15.268 14.9352 15.268C14.6921 15.268 14.4589 15.3646 14.287 15.5365C14.1151 15.7084 14.0186 15.9415 14.0186 16.1847V18.018C14.0186 18.2611 14.1151 18.4943 14.287 18.6662C14.4589 18.8381 14.6921 18.9347 14.9352 18.9347C15.1783 18.9347 15.4115 18.8381 15.5834 18.6662C15.7553 18.4943 15.8519 18.2611 15.8519 18.018V16.1847ZM19.5186 16.1847C19.5186 15.9415 19.422 15.7084 19.2501 15.5365C19.0782 15.3646 18.845 15.268 18.6019 15.268C18.3588 15.268 18.1256 15.3646 17.9537 15.5365C17.7818 15.7084 17.6852 15.9415 17.6852 16.1847V18.018C17.6852 18.2611 17.7818 18.4943 17.9537 18.6662C18.1256 18.8381 18.3588 18.9347 18.6019 18.9347C18.845 18.9347 19.0782 18.8381 19.2501 18.6662C19.422 18.4943 19.5186 18.2611 19.5186 18.018V16.1847Z"
        fill="#363D4E" />
</svg>