<svg width="29" height="29" viewBox="0 0 29 29" fill="none" xmlns="http://www.w3.org/2000/svg">
    <rect x="0.5" y="0.286499" width="28" height="28" rx="4" transform="rotate(0.265883 0.5 0.286499)" fill="#EDF2F4" />
    <path fill-rule="evenodd" clip-rule="evenodd"
        d="M17.5596 8.72632C17.5596 7.89752 17.2303 7.10266 16.6443 6.51661C16.0582 5.93056 15.2634 5.60132 14.4346 5.60132C13.6058 5.60132 12.8109 5.93056 12.2249 6.51661C11.6388 7.10266 11.3096 7.89752 11.3096 8.72632V9.35132H17.5596V8.72632ZM18.8096 8.72632V9.35132H23.1846V21.8513C23.1846 22.5144 22.9212 23.1502 22.4523 23.6191C21.9835 24.0879 21.3476 24.3513 20.6846 24.3513H8.18457C7.52153 24.3513 6.88564 24.0879 6.4168 23.6191C5.94796 23.1502 5.68457 22.5144 5.68457 21.8513V9.35132H10.0596V8.72632C10.0596 7.566 10.5205 6.4532 11.341 5.63273C12.1615 4.81225 13.2742 4.35132 14.4346 4.35132C15.5949 4.35132 16.7077 4.81225 17.5282 5.63273C18.3486 6.4532 18.8096 7.566 18.8096 8.72632ZM18.0021 15.4188C18.1194 15.3015 18.1854 15.1423 18.1854 14.9763C18.1854 14.8103 18.1194 14.6512 18.0021 14.5338C17.8847 14.4165 17.7255 14.3505 17.5596 14.3505C17.3936 14.3505 17.2344 14.4165 17.1171 14.5338L13.8096 17.8426L12.3771 16.4088C12.319 16.3507 12.25 16.3046 12.174 16.2732C12.0981 16.2417 12.0168 16.2255 11.9346 16.2255C11.8524 16.2255 11.771 16.2417 11.6951 16.2732C11.6192 16.3046 11.5502 16.3507 11.4921 16.4088C11.434 16.4669 11.3879 16.5359 11.3564 16.6118C11.325 16.6878 11.3088 16.7691 11.3088 16.8513C11.3088 16.9335 11.325 17.0149 11.3564 17.0908C11.3879 17.1667 11.434 17.2357 11.4921 17.2938L13.3671 19.1688C13.4251 19.227 13.4941 19.2732 13.57 19.3047C13.646 19.3362 13.7274 19.3524 13.8096 19.3524C13.8918 19.3524 13.9732 19.3362 14.0491 19.3047C14.125 19.2732 14.194 19.227 14.2521 19.1688L18.0021 15.4188Z"
        fill="#363D4E" />
</svg>