<svg width="28" height="28" viewBox="0 0 28 28" fill="none" xmlns="http://www.w3.org/2000/svg">
    <rect width="28" height="28" rx="4" fill="#EDF0F2" />
    <path
        d="M15.0008 17.1455C14.5279 17.5054 13.5516 18.3955 13.5516 19.6082C13.5516 20.4088 14.2013 21.0601 15 21.0601C15.7987 21.0601 16.4484 20.4088 16.4484 19.6082C16.4484 18.4597 15.4716 17.5278 15.0008 17.1455Z"
        fill="#363D4E" />
    <path
        d="M18.3947 8.78477C18.2191 8.58611 17.9159 8.57408 17.7246 8.75265L15.5188 10.8114V6.49996C15.5188 6.13905 15.0837 5.86939 14.7578 6.06652C14.6961 6.10383 13.2302 6.99896 11.7491 8.62449C9.94815 10.601 8.72162 13.0075 8.72162 15.7064C8.72162 19.1767 11.5381 22 15 22C13.6843 22 12.614 20.9271 12.614 19.6083C12.614 17.4773 14.683 16.2154 14.7711 16.1627C14.9255 16.0705 15.1187 16.0748 15.2689 16.1737C15.3553 16.2307 17.3859 17.5927 17.3859 19.6083C17.3859 20.9271 16.3156 22 15 22C18.4618 22 21.2783 19.1767 21.2783 15.7064C21.2783 13.086 20.122 10.7372 18.3947 8.78477Z"
        fill="#363D4E" />
</svg>