<svg width="28" height="28" viewBox="0 0 28 28" fill="none" xmlns="http://www.w3.org/2000/svg">
    <rect width="28" height="28" rx="4" fill="#EDF0F2" />
    <g clip-path="url(#clip0_2_396)">
        <path
            d="M16.5 14.5C16.5 15.163 16.2366 15.7989 15.7678 16.2678C15.2989 16.7366 14.663 17 14 17C13.337 17 12.7011 16.7366 12.2322 16.2678C11.7634 15.7989 11.5 15.163 11.5 14.5C11.5 13.837 11.7634 13.2011 12.2322 12.7322C12.7011 12.2634 13.337 12 14 12C14.663 12 15.2989 12.2634 15.7678 12.7322C16.2366 13.2011 16.5 13.837 16.5 14.5Z"
            fill="#363D4E" />
        <path
            d="M8 10C7.46957 10 6.96086 10.2107 6.58579 10.5858C6.21071 10.9609 6 11.4696 6 12V18C6 18.5304 6.21071 19.0391 6.58579 19.4142C6.96086 19.7893 7.46957 20 8 20H20C20.5304 20 21.0391 19.7893 21.4142 19.4142C21.7893 19.0391 22 18.5304 22 18V12C22 11.4696 21.7893 10.9609 21.4142 10.5858C21.0391 10.2107 20.5304 10 20 10H18.828C18.2976 9.99989 17.789 9.7891 17.414 9.414L16.586 8.586C16.211 8.2109 15.7024 8.00011 15.172 8H12.828C12.2976 8.00011 11.789 8.2109 11.414 8.586L10.586 9.414C10.211 9.7891 9.70239 9.99989 9.172 10H8ZM8.5 12C8.36739 12 8.24021 11.9473 8.14645 11.8536C8.05268 11.7598 8 11.6326 8 11.5C8 11.3674 8.05268 11.2402 8.14645 11.1464C8.24021 11.0527 8.36739 11 8.5 11C8.63261 11 8.75979 11.0527 8.85355 11.1464C8.94732 11.2402 9 11.3674 9 11.5C9 11.6326 8.94732 11.7598 8.85355 11.8536C8.75979 11.9473 8.63261 12 8.5 12ZM17.5 14.5C17.5 15.4283 17.1313 16.3185 16.4749 16.9749C15.8185 17.6313 14.9283 18 14 18C13.0717 18 12.1815 17.6313 11.5251 16.9749C10.8687 16.3185 10.5 15.4283 10.5 14.5C10.5 13.5717 10.8687 12.6815 11.5251 12.0251C12.1815 11.3687 13.0717 11 14 11C14.9283 11 15.8185 11.3687 16.4749 12.0251C17.1313 12.6815 17.5 13.5717 17.5 14.5Z"
            fill="#363D4E" />
    </g>
    <defs>
        <clipPath id="clip0_2_396">
            <rect width="16" height="16" fill="white" transform="translate(6 6)" />
        </clipPath>
    </defs>
</svg>