<svg width="28" height="28" viewBox="0 0 28 28" fill="none" xmlns="http://www.w3.org/2000/svg">
    <rect width="28" height="28" rx="4" fill="#EDF0F2" />
    <rect width="16" height="16" transform="translate(7 6)" fill="#EDF0F2" />
    <rect x="7" y="6" width="16" height="16" rx="6" fill="#363D4E" />
    <g clip-path="url(#clip0_2_396)">
        <path
            d="M13.6936 18.1666C13.5618 18.1666 13.4299 18.141 13.3058 18.0899C13.0477 17.9829 12.8432 17.7714 12.7451 17.5095L12.4814 16.8066C12.4314 16.6732 12.3266 16.5684 12.1936 16.5184L11.4903 16.2547C11.2288 16.1566 11.0173 15.9521 10.9103 15.694C10.8032 15.4358 10.808 15.1414 10.924 14.8869L11.2347 14.2036C11.2932 14.0744 11.2932 13.9258 11.2347 13.7962L10.924 13.1125C10.808 12.8584 10.8032 12.564 10.9099 12.3058C11.0166 12.0477 11.2284 11.8432 11.4903 11.7451L12.1932 11.4814C12.3266 11.4314 12.4314 11.3266 12.4814 11.1932L12.7451 10.4899C12.8432 10.2284 13.0477 10.0169 13.3058 9.90991C13.564 9.80324 13.8584 9.80769 14.1129 9.92361L14.7962 10.2344C14.9255 10.2929 15.0736 10.2929 15.2036 10.2344L15.8873 9.92361C16.1414 9.80769 16.4358 9.80287 16.694 9.90991C16.9521 10.0169 17.1566 10.2284 17.2547 10.4903L17.5184 11.1932C17.5684 11.3266 17.6732 11.4314 17.8062 11.4814L18.5095 11.7451C18.771 11.8432 18.9825 12.0477 19.0895 12.3058C19.1966 12.564 19.1918 12.8584 19.0758 13.1129L18.7651 13.7962C18.7066 13.9255 18.7066 14.074 18.7651 14.2036L19.0755 14.8873C19.1914 15.1418 19.1962 15.4358 19.0892 15.694C18.9821 15.9521 18.7706 16.1566 18.5088 16.2547L17.8066 16.5184C17.6732 16.5684 17.5684 16.6732 17.5184 16.8062L17.2547 17.5095C17.1566 17.771 16.9521 17.9825 16.694 18.0895C16.4355 18.1962 16.1414 18.1918 15.8869 18.0758L15.2036 17.7651C15.074 17.7066 14.9258 17.7062 14.7962 17.7651L14.1125 18.0755C13.9803 18.1362 13.8366 18.1666 13.6936 18.1666V18.1666ZM15.3114 10.4714H15.3147H15.3114Z"
            fill="#CDD4DB" />
        <path
            d="M13.7037 12.9818C13.3463 12.9818 13.0555 12.6911 13.0555 12.3337C13.0555 11.9763 13.3463 11.6855 13.7037 11.6855C14.0611 11.6855 14.3518 11.9763 14.3518 12.3337C14.3518 12.6911 14.0611 12.9818 13.7037 12.9818Z"
            fill="white" />
        <path
            d="M16.2965 16.2846C15.9561 16.2846 15.679 16.0076 15.679 15.6672C15.679 15.3268 15.9561 15.0498 16.2965 15.0498C16.6368 15.0498 16.9139 15.3268 16.9139 15.6672C16.9139 16.0076 16.6368 16.2846 16.2965 16.2846V16.2846Z"
            fill="white" />
        <path
            d="M13.6067 18.4445C13.4659 18.4445 13.3252 18.4171 13.1933 18.3626C12.9178 18.2485 12.6996 18.023 12.5952 17.7437L12.3137 16.9941C12.2604 16.8519 12.1485 16.74 12.0067 16.6867L11.2567 16.4052C10.9778 16.3008 10.7522 16.0826 10.6382 15.8071C10.5241 15.5315 10.5293 15.2178 10.653 14.9463L10.9845 14.2174C11.047 14.0793 11.047 13.9211 10.9845 13.783L10.6526 13.0541C10.5293 12.783 10.5237 12.4689 10.6378 12.1937C10.7519 11.9186 10.9778 11.7 11.257 11.5956L12.0067 11.3141C12.1489 11.2608 12.2607 11.1489 12.3141 11.0071L12.5956 10.2571C12.7 9.97819 12.9182 9.75263 13.1937 9.63856C13.4693 9.52448 13.783 9.52967 14.0544 9.65337L14.7833 9.98485C14.9215 10.0471 15.0793 10.0471 15.2178 9.98485L15.947 9.65337C16.2182 9.52967 16.5322 9.52485 16.8074 9.63856C17.083 9.75263 17.3011 9.97819 17.4056 10.2574L17.687 11.0071C17.7404 11.1493 17.8522 11.2611 17.9941 11.3145L18.7441 11.596C19.023 11.7004 19.2485 11.9186 19.3626 12.1941C19.4767 12.4697 19.4715 12.7834 19.3478 13.0548L19.0163 13.7837C18.9537 13.9219 18.9537 14.08 19.0163 14.2182L19.3474 14.9474C19.4707 15.2186 19.4763 15.5326 19.3622 15.8078C19.2482 16.083 19.0226 16.3015 18.7433 16.406L17.9937 16.6874C17.8515 16.7408 17.7396 16.8526 17.6863 16.9945L17.4048 17.7445C17.3004 18.0234 17.0822 18.2489 16.8067 18.363C16.5311 18.4771 16.2174 18.4719 15.9459 18.3482L15.217 18.0167C15.0789 17.9541 14.9207 17.9541 14.7826 18.0167L14.0533 18.3478C13.9122 18.4123 13.7593 18.4445 13.6067 18.4445V18.4445ZM13.607 10.1115C13.5389 10.1115 13.4711 10.1249 13.4059 10.1519C13.27 10.2078 13.1667 10.3149 13.1152 10.4523L12.8337 11.2023C12.7241 11.4941 12.4937 11.7245 12.2015 11.8341L11.4519 12.1156C11.3145 12.1671 11.2074 12.2704 11.1511 12.4063C11.0952 12.5419 11.0974 12.6904 11.1582 12.8241L11.4896 13.5534C11.6189 13.8374 11.6189 14.163 11.4896 14.4471L11.1582 15.1763C11.0974 15.31 11.0948 15.4589 11.1511 15.5945C11.2074 15.7304 11.3141 15.8337 11.4519 15.8852L12.2019 16.1667C12.4941 16.2763 12.7245 16.5067 12.8341 16.7989L13.1156 17.5485C13.167 17.6863 13.2704 17.793 13.4063 17.8493C13.5419 17.9052 13.6904 17.9034 13.8241 17.8423L14.5533 17.5108C14.8374 17.3815 15.163 17.3819 15.447 17.5108L16.1763 17.8423C16.3104 17.9034 16.4589 17.9052 16.5944 17.8493C16.7304 17.793 16.8337 17.6863 16.8852 17.5485L17.1667 16.7985C17.2763 16.5063 17.5067 16.276 17.7989 16.1663L18.5485 15.8848C18.6863 15.8334 18.793 15.73 18.8493 15.5941C18.9056 15.4586 18.903 15.3097 18.8422 15.1763L18.5107 14.4471C18.3815 14.163 18.3815 13.8374 18.5107 13.5534L18.8422 12.8241C18.903 12.6904 18.9056 12.5415 18.8493 12.406C18.793 12.27 18.6863 12.1667 18.5485 12.1152L17.7985 11.8337C17.5063 11.7241 17.2759 11.4937 17.1663 11.2015L16.8848 10.4519C16.8333 10.3141 16.73 10.2074 16.5941 10.1511C16.4585 10.0952 16.31 10.0974 16.1763 10.1582L15.447 10.4897C15.163 10.6186 14.8374 10.6186 14.5533 10.4897L13.8241 10.1586C13.7541 10.1271 13.6807 10.1115 13.607 10.1115V10.1115ZM15.3319 10.2371H15.3356H15.3319Z"
            fill="#DEE3E7" />
        <path
            d="M13.7037 13.2591C13.1933 13.2591 12.7778 12.8435 12.7778 12.3332C12.7778 11.8228 13.1933 11.4072 13.7037 11.4072C14.2141 11.4072 14.6296 11.8228 14.6296 12.3332C14.6296 12.8435 14.2141 13.2591 13.7037 13.2591ZM13.7037 11.9628C13.4996 11.9628 13.3333 12.1291 13.3333 12.3332C13.3333 12.5372 13.4996 12.7035 13.7037 12.7035C13.9078 12.7035 14.0741 12.5372 14.0741 12.3332C14.0741 12.1291 13.9078 11.9628 13.7037 11.9628Z"
            fill="#363D4E" />
        <path
            d="M16.2964 16.5931C15.786 16.5931 15.3705 16.1775 15.3705 15.6671C15.3705 15.1568 15.786 14.7412 16.2964 14.7412C16.8068 14.7412 17.2223 15.1568 17.2223 15.6671C17.2223 16.1775 16.8068 16.5931 16.2964 16.5931ZM16.2964 15.2968C16.0923 15.2968 15.926 15.4631 15.926 15.6671C15.926 15.8712 16.0923 16.0375 16.2964 16.0375C16.5005 16.0375 16.6668 15.8712 16.6668 15.6671C16.6668 15.4631 16.5005 15.2968 16.2964 15.2968Z"
            fill="#363D4E" />
        <path
            d="M13.7963 16.2226C13.7463 16.2226 13.696 16.2093 13.6504 16.1811C13.5197 16.1004 13.4797 15.9293 13.5604 15.7989L15.9678 11.91C16.0485 11.7793 16.2204 11.7393 16.35 11.82C16.4808 11.9008 16.5208 12.0719 16.44 12.2022L14.0326 16.0911C13.98 16.1759 13.8889 16.2226 13.7963 16.2226V16.2226Z"
            fill="#363D4E" />
    </g>
    <defs>
        <clipPath id="clip0_2_396">
            <rect width="8.88889" height="8.88889" fill="white" transform="translate(10.5555 9.55566)" />
        </clipPath>
    </defs>
</svg>