<svg height="512" viewBox="0 0 64 64" width="512" xmlns="http://www.w3.org/2000/svg" id="fi_7712575"><g id="p"><g><path d="m34.665 19.777-2.665 1.087v31.136l15 10v-34z" fill="#4889f4"></path><path d="m2 18v34l15 10v-34z" fill="#4889f4"></path><path d="m62 30.999-11 7.001v-12.667l-4 2.667v12h-11v-7l9.024-6.317-4.274-2.85-14.427 9.619-.464.309-4.859 3.239v-11.69l-4 2.69v12l-15-8v5l15 8v17l4-2.667v-16.333l11-7.001v16.001l4 2.667v-9.667h11l15-9z" fill="#f1a141"></path><path d="m36 40v-7l9.024-6.317-4.274-2.85-8.75 5.834v6.332 16.001l4 2.667v-9.667h11v-5z" fill="#ffcb74"></path><path d="m17 40-15-8v5l15 8z" fill="#ffcb74"></path><path d="m2 37 15 8v17l-15-10z" fill="#4889f4"></path><path d="m47 45 15-9v16l-15 10z" fill="#0f9452"></path><path d="m47 45h-11v9l11 8z" fill="#10b255"></path><path d="m32 29.667-11 7.333v-11.69l11-4.68z" fill="#0f9452"></path><path d="m45.024 26.683 1.976 1.317v12h-11v-7z" fill="#10b255"></path><path d="m51 25.333v12.667l11-7.001v-12.999z" fill="#0f9452"></path><path d="m40.75 23.833-8.75 5.834v-11.042l2.665 1.152z" fill="#10b255"></path><path d="m17 28v12l-15-8v-14z" fill="#10b255"></path><path d="m32 35.999v16.001l-11 7.333v-16.333z" fill="#074fea"></path><path d="m47 28-12.335-8.223-13.736 5.603-3.929 2.62-15-10v34l15 10 15-10 15 10 15-10v-34zm13 22.93-13 8.667-15-10-15 10-13-8.667v-29.193l13 8.667 4.871-3.248 11.564-5.795 13.565 9.043 13-8.667z" fill="#deebeb"></path><path d="m47 59.597v2.403l-15-10v-2.403z" fill="#f5ffff"></path><path d="m47 27.944v2.403l-15-10v-2.403z" fill="#f5ffff"></path><g><path d="m18.222 20.778 7.778 13.222 7.778-13.222c1.991-1.99 3.222-4.74 3.222-7.778 0-6.075-4.925-11-11-11s-11 4.925-11 11c0 3.038 1.231 5.788 3.222 7.778z" fill="#c12b35"></path><path d="m33.485 20c-.383 0-.77-.109-1.112-.339-.917-.615-1.163-1.858-.547-2.775.768-1.146 1.174-2.489 1.174-3.886 0-3.86-3.14-7-7-7-1.104 0-2-.896-2-2s.896-2 2-2c6.065 0 11 4.935 11 11 0 2.193-.641 4.307-1.852 6.114-.386.576-1.019.886-1.663.886z" fill="#e63a45"></path><circle cx="26" cy="13" fill="#97262e" r="7"></circle><path d="m26 14c-.552 0-1 .448-1 1v4.92c.327.047.66.08 1 .08s.673-.033 1-.08v-4.92c0-.552-.448-1-1-1z" fill="#deebeb"></path><circle cx="26" cy="13" fill="#c12b35" r="2"></circle></g><path d="m17 59.597v2.403l-15-10v-34l15 10v2.404l-13-8.667v29.193z" fill="#f5ffff"></path></g></g></svg>