<svg id="fi_18390739" enable-background="new 0 0 512 512" viewBox="0 0 512 512" xmlns="http://www.w3.org/2000/svg"><g><g clip-rule="evenodd" fill-rule="evenodd"><path d="m173 148.8c84.4 0 127.3 77.2 98.4 153.7-23 60.7-75.4 135.1-98.4 175-24.3-42.1-80.9-121.8-101.7-184.3-24.4-73.2 23.8-144.4 101.7-144.4z" fill="#e64343"></path><path d="m167.1 467.7c-26.6-43.9-76.6-116.6-95.8-174.4-23.8-71.4 21.5-140.9 95.9-144.3 80.5 3.5 120.8 78.9 92.5 153.5-21.2 56-67.5 123.7-92.6 165.2z" fill="#ff4a4a"></path><path d="m378.5 0c53.9 0 81.3 49.3 62.9 98.1-14.7 38.8-48.1 86.3-62.9 111.8-15.5-26.9-51.6-77.8-64.9-117.7-15.6-46.7 15.1-92.2 64.9-92.2z" fill="#e64343"></path><path d="m374.4 203c-17-28.1-48.7-74.1-60.9-110.8-15.1-45.5 13.6-89.8 60.9-92.1 51.2 2.4 76.7 50.4 58.7 98-13.4 35.6-42.6 78.4-58.7 104.9z" fill="#ff4a4a"></path></g><path d="m203.1 486.8c-2.6-.6-5.2.3-6.9 2.2-3.5 4-1.5 10.4 3.7 11.6l2.5.6 2.4.5 2.4.5 2.4.5 2.4.5 1.9.4c5.6 1.1 10.2-4.5 7.9-9.8-.9-2.2-2.8-3.6-5.1-4.1l-1.9-.4-2.3-.5-2.3-.5-2.4-.5-2.4-.5zm173.5-242.5c2.6-.9 4.4-3.1 4.8-5.8.6-5.2-4.4-9.3-9.3-7.6l-1.5.5-1.6.5-1.6.6-1.6.5-1.6.5-1.6.5-1.5.5-1.5.5-1.1.4c-5.3 2-6.3 9.2-1.6 12.5 1.9 1.4 4.3 1.6 6.5.8l2.6-.9 3-1.1 1.5-.5 1.6-.5 1.6-.5 1.6-.5zm-67.8 38.8c2.2-4.5-.9-9.9-5.9-10.2-2.9-.1-5.5 1.4-6.8 4l-.1.2-.3.6-.3.7-.4.6-.3.7-.2.7-.2.7-.2.7-.2.7-.2.7-.2.7-.1.7-.1.7-.1.7-.1.7-.1.7-.1.7-.1.7-.1.7v.7.7.7.7.7l.1.7.1.7.1.7v.4c.9 5.7 7.8 8 12 4.1 1.7-1.6 2.4-3.9 2.1-6.2l-.1-.4v-.4-.3-.3-.4-.3-.3-.3-.4-.3l.1-.3v-.3l.1-.3.1-.4.1-.3.1-.3.1-.3.1-.4.1-.3.1-.4.1-.4.1-.3.1-.4.2-.4.2-.4.2-.4zm41.7 56.9c-4.4-3.4-10.7-.6-11.4 4.9-.3 2.5.7 4.9 2.7 6.4 3.8 2.9 7.6 5.7 11.3 8.6 4.1 3 9.9 1.1 11.2-3.9.7-2.8-.3-5.7-2.6-7.4-3.6-2.9-7.4-5.7-11.2-8.6zm60 64c-1.6-4.1-6.3-5.8-10.1-3.7-3.1 1.8-4.4 5.4-3.2 8.7l.4 1.1.3.8.3.8.3.8.3.8.2.8.2.8.2.8.2.8.2.8.2.8.2.8.2.8.1.8.2 1.1c.7 4.4 5.1 7 9.3 5.6 3.3-1.1 5.3-4.4 4.7-7.8l-.1-.5-.2-.9-.2-.9-.2-1-.2-.9-.2-.9-.2-1-.3-.9-.3-.9-.3-.9-.3-.9-.3-.9-.3-.9-.3-.9-.3-.9-.3-.9zm-25.6 83.5c4.7-3.4 3.6-10.7-2-12.5-2.2-.7-4.5-.3-6.3 1l-.6.4-.8.6-.8.5-.8.5-.8.5-.9.5-.9.5-.9.5-.9.5-.9.5-.9.5-.9.5-1.1.6c-3.2 1.6-4.7 5.4-3.5 8.8 1.5 4 6.1 5.8 9.9 3.9l.3-.2 1.1-.5 1.1-.6 1-.6 1-.6 1-.6 1-.6 1-.6 1-.6 1-.6 1-.6.9-.7.9-.6zm-84.7 24.3c5.1-.2 8.4-5.5 6.2-10.1-1.2-2.6-3.8-4.1-6.6-4.1l-.9.1h-1.7l-1.7.1h-1.7-1.8-1.8-1.8-1.8-.6c-3.6-.1-6.6 2.5-7.2 6.1-.6 4.3 2.6 8 6.9 8.1h.9 1.9 1.9 1.8 1.8 1.8 1.8l1.8-.1z" fill="#cf3c3c"></path><path clip-rule="evenodd" d="m378.3 101.4c17.2 0 31.2-14 31.2-31.2s-14-31.2-31.2-31.2-31.2 14-31.2 31.2 14 31.2 31.2 31.2z" fill="#fff" fill-rule="evenodd"></path><path clip-rule="evenodd" d="m172.7 303.1c27.1 0 49.3-22.1 49.3-49.3s-22.1-49.3-49.3-49.3-49.3 22.1-49.3 49.3 22.1 49.3 49.3 49.3z" fill="#fff" fill-rule="evenodd"></path></g></svg>