<svg id="fi_11500303" enable-background="new 0 0 491.52 491.52" viewBox="0 0 491.52 491.52" xmlns="http://www.w3.org/2000/svg"><g id="Layer_x0020_1"><g id="_320271808" clip-rule="evenodd" fill="#FEC00E" fill-rule="evenodd"><path id="_320272288" d="m273.14 36.7v417.96l182.87-45.6v-331.31zm-4.8 428.91c-1.06 0-2.1-.35-2.95-1.02-1.17-.91-1.85-2.3-1.85-3.78v-430.1c0-1.46.67-2.84 1.8-3.75 1.14-.91 2.64-1.25 4.06-.94l192.46 43.21c2.19.49 3.75 2.43 3.75 4.68v338.9c0 2.2-1.5 4.12-3.64 4.66l-192.46 48c-.39.09-.78.14-1.17.14z"></path><path id="_320272528" d="m167.54 211.25c-2.65 0-4.8-2.15-4.8-4.8v-145.92c0-2.65 2.15-4.8 4.8-4.8h100.8c2.65 0 4.8 2.15 4.8 4.8s-2.15 4.8-4.8 4.8h-96v141.12c0 2.65-2.15 4.8-4.8 4.8zm100.8 219.73h-100.8c-2.65 0-4.8-2.14-4.8-4.8v-145.91c0-2.65 2.15-4.8 4.8-4.8s4.8 2.15 4.8 4.8v141.11h96c2.65 0 4.8 2.15 4.8 4.8 0 2.66-2.15 4.8-4.8 4.8z"></path><path id="_320271712" d="m311.55 278.16c-2.66 0-4.8-2.15-4.8-4.8v-55.2c0-2.65 2.14-4.8 4.8-4.8 2.65 0 4.8 2.15 4.8 4.8v55.2c0 2.65-2.15 4.8-4.8 4.8z"></path><path id="_320271592" d="m35.51 264.18h101.65c2.65 0 4.8 2.15 4.8 4.8v26.83l61.39-52.45-61.39-52.46v26.84c0 2.65-2.15 4.8-4.8 4.8h-101.65zm101.65 46.85c-.68 0-1.37-.15-2.01-.44-1.7-.79-2.79-2.49-2.79-4.36v-32.45h-101.65c-2.65 0-4.8-2.15-4.8-4.8v-51.24c0-2.65 2.15-4.8 4.8-4.8h101.65v-32.45c0-1.88 1.09-3.58 2.79-4.36 1.7-.79 3.7-.51 5.13.71l73.58 62.87c1.06.91 1.68 2.24 1.68 3.65 0 1.4-.62 2.74-1.68 3.65l-73.58 62.87c-.89.75-2 1.15-3.12 1.15z"></path></g></g></svg>