<svg id="fi_4002791" height="512" viewBox="0 0 64 64" width="512" xmlns="http://www.w3.org/2000/svg" data-name="Layer 3"><path d="m62 11a3 3 0 0 0 -3-3h-54a3 3 0 0 0 -3 3v48a3 3 0 0 0 3 3h54a3 3 0 0 0 3-3z" fill="#9d9e9d"></path><path d="m58 60h-43l-10-10v-31h53z" fill="#878787"></path><path d="m59 8h-54a2.965 2.965 0 0 0 -.945.167 53.992 53.992 0 0 0 53.945 51.833h3.816a2.962 2.962 0 0 0 .184-1v-48a3 3 0 0 0 -3-3z" fill="#bcbdbc"></path><path d="m6 21v28l10 10h39a3 3 0 0 0 3-3v-35" fill="#dfe0df"></path><path d="m58 21h-51.873a54.063 54.063 0 0 0 41.507 38h7.366a3 3 0 0 0 3-3z" fill="#edeeed"></path><path d="m6 49h7a3 3 0 0 1 3 3v7" fill="#bcbdbc"></path><path d="m62 11a3 3 0 0 0 -3-3h-54a3 3 0 0 0 -3 3v10h60z" fill="#c33e37"></path><path d="m4.055 8.167a53.9 53.9 0 0 0 2.072 12.833h55.873v-10a3 3 0 0 0 -3-3h-54a2.965 2.965 0 0 0 -.945.167z" fill="#d4483e"></path><path d="m9 15c-2.28 0-4-3.009-4-7s1.72-7 4-7 4 3.009 4 7h-2c0-3.052-1.185-5-2-5s-2 1.948-2 5 1.185 5 2 5z" fill="#dfe0df"></path><g fill="#f7c243"><circle cx="24" cy="15" r="2"></circle><circle cx="32" cy="15" r="2"></circle><circle cx="40" cy="15" r="2"></circle></g><path d="m9.5 1.055c-2.026.405-3.5 3.252-3.5 6.945 0 3.381 1.236 6.049 3 6.789v-1.789c-.815 0-2-1.948-2-5s1.185-5 2-5a.874.874 0 0 1 .5.23c.727.579 1.5 2.3 1.5 4.77h2c0-3.693-1.474-6.54-3.5-6.945z" fill="#bcbdbc"></path><path d="m18 15c-2.28 0-4-3.009-4-7s1.72-7 4-7 4 3.009 4 7h-2c0-3.052-1.185-5-2-5s-2 1.948-2 5 1.185 5 2 5z" fill="#dfe0df"></path><path d="m18.5 1.055c-2.026.405-3.5 3.252-3.5 6.945 0 3.381 1.236 6.049 3 6.789v-1.789c-.815 0-2-1.948-2-5s1.185-5 2-5a.874.874 0 0 1 .5.23c.727.579 1.5 2.3 1.5 4.77h2c0-3.693-1.474-6.54-3.5-6.945z" fill="#bcbdbc"></path><path d="m46 15c-2.28 0-4-3.009-4-7s1.72-7 4-7 4 3.009 4 7h-2c0-3.052-1.185-5-2-5s-2 1.948-2 5 1.185 5 2 5z" fill="#dfe0df"></path><path d="m46.5 1.055c-2.026.405-3.5 3.252-3.5 6.945 0 3.381 1.236 6.049 3 6.789v-1.789c-.815 0-2-1.948-2-5s1.185-5 2-5a.874.874 0 0 1 .5.23c.727.579 1.5 2.3 1.5 4.77h2c0-3.693-1.474-6.54-3.5-6.945z" fill="#bcbdbc"></path><path d="m55 15c-2.28 0-4-3.009-4-7s1.72-7 4-7 4 3.009 4 7h-2c0-3.052-1.185-5-2-5s-2 1.948-2 5 1.185 5 2 5z" fill="#dfe0df"></path><path d="m55.5 1.055c-2.026.405-3.5 3.252-3.5 6.945 0 3.381 1.236 6.049 3 6.789v-1.789c-.815 0-2-1.948-2-5s1.185-5 2-5a.874.874 0 0 1 .5.23c.727.579 1.5 2.3 1.5 4.77h2c0-3.693-1.474-6.54-3.5-6.945z" fill="#bcbdbc"></path><circle cx="32" cy="40" fill="#bcbdbc" r="8"></circle><circle cx="32" cy="40" fill="#dfe0df" r="4"></circle><path d="m44 50v-6h-1v-8.877a5.281 5.281 0 0 1 4-5.123v20z" fill="#bcbdbc"></path><path d="m44 35.123v8.877h1v6h2v-19.627a5.273 5.273 0 0 0 -3 4.75z" fill="#9d9e9d"></path><path d="m21 29v3h-1v-3h-2v3h-1v-3h-2v6a4 4 0 0 0 3 3.858v12.142h2v-12.142a4 4 0 0 0 3-3.858v-6z" fill="#9d9e9d"></path><path d="m44 44h3v6h-3z" fill="#684d42"></path></svg>