<svg id="fi_8555052" enable-background="new 0 0 512 512" height="512" viewBox="0 0 512 512" width="512" xmlns="http://www.w3.org/2000/svg"><g><path d="m487.544 187.987-1.177 303.781c0 8.53-6.923 15.453-15.453 15.453l-15.306 4.779h-309.003c8.54 0 5.256-6.923 5.256-15.453l-5.49-309.961c0-14.886-4.028-29.494-11.672-42.279l-43.477-98.98h320.335l62.944 98.176c8.52 13.28 13.043 28.712 13.043 44.484z" fill="#f4b887"></path><path d="m491.664 187.987v308.56c0 8.53-6.923 15.453-15.453 15.453h-20.604v-324.013c0-15.772-4.523-31.204-13.042-44.483l-62.944-98.176h36.056l62.944 98.176c8.521 13.279 13.043 28.711 13.043 44.483z" fill="#eaa978"></path><g><path d="m162.058 186.587v309.961c0 3.173-.958 6.119-2.596 8.571l-83.81-51.454 15.55-408.285 59.184 98.928c7.644 12.784 11.672 27.392 11.672 42.279z" fill="#cb7d50"></path><path d="m159.462 505.118c-2.771 4.152-7.489 6.882-12.857 6.882h-110.817c-5.357 0-10.086-2.73-12.857-6.882l26.542-43.891 41.739-13.418z" fill="#de955e"></path><path d="m91.212 447.809-68.28 57.309c-1.638-2.452-2.596-5.398-2.596-8.571v-309.96c0-14.886 4.038-29.494 11.672-42.279l59.163-98.98.031.052z" fill="#eaa978"></path></g><path d="m429.937 3.973c15.458 0 23.852 11.495 23.852 30.574s-9.169 30.316-24.627 30.316l-34.303 4.227h-303.634v-69.09h303.633z" fill="#eaa978"></path><path d="m457.74 34.542c0 19.079-12.527 34.552-27.99 34.552h-34.892v-69.094h34.892c15.463 0 27.99 15.463 27.99 34.542z" fill="#de955e"></path><ellipse cx="91.225" cy="34.545" fill="#de955e" rx="27.989" ry="34.545"></ellipse><path d="m420.401 253.957h-187.081c-5.69 0-10.302 4.612-10.302 10.302v113.631c0 5.69 4.612 10.302 10.302 10.302h187.08c5.69 0 10.302-4.612 10.302-10.302v-113.631c.001-5.689-4.612-10.302-10.301-10.302z" fill="#eaa978"></path><g><g><path d="m394.609 118.54h-180.83c-4.268 0-7.726-3.459-7.726-7.726 0-4.268 3.459-7.726 7.726-7.726h180.83c4.268 0 7.726 3.459 7.726 7.726s-3.459 7.726-7.726 7.726z" fill="#eaa978"></path></g><g><path d="m356.223 155.464h-104.058c-4.268 0-7.726-3.459-7.726-7.726s3.459-7.726 7.726-7.726h104.058c4.268 0 7.726 3.459 7.726 7.726s-3.458 7.726-7.726 7.726z" fill="#eaa978"></path></g></g></g></svg>